<?xml version="1.0" standalone="no"?>
<!DOCTYPE svg PUBLIC "-//W3C//DTD SVG 1.1//EN" "http://www.w3.org/Graphics/SVG/1.1/DTD/svg11.dtd" >
<svg xmlns="http://www.w3.org/2000/svg" xmlns:xlink="http://www.w3.org/1999/xlink" version="1.1">
<metadata></metadata>
<defs>
<font id="geoxe3regular" horiz-adv-x="1183" >
<font-face units-per-em="2048" ascent="1638" descent="-410" />
<missing-glyph horiz-adv-x="591" />
<glyph horiz-adv-x="0" />
<glyph unicode="&#xd;" horiz-adv-x="591" />
<glyph unicode=" "  horiz-adv-x="591" />
<glyph unicode="&#x09;" horiz-adv-x="591" />
<glyph unicode="&#xa0;" horiz-adv-x="591" />
<glyph unicode="!" horiz-adv-x="657" d="M211 86q0 47 35 83t84 36t84 -36t35 -83q0 -49 -35 -84t-84 -35t-84 35t-35 84zM238 356v1188h184v-1188h-184z" />
<glyph unicode="&#x22;" horiz-adv-x="899" d="M184 1544h201l-37 -672h-127zM514 1544h201l-37 -672h-127z" />
<glyph unicode="#" d="M51 430v164h236l55 315h-215v164h244l73 397h158l-74 -397h254l72 397h162l-72 -397h189v-164h-220l-55 -315h207v-164h-240l-77 -430h-156l76 430h-252l-82 -430h-154l76 430h-205zM446 594h252l56 315h-252z" />
<glyph unicode="$" d="M53 203l183 82q51 -72 122 -109q66 -35 152 -45v598q-31 14 -66.5 33.5t-69.5 39t-62.5 39t-45.5 36.5q-16 14 -30.5 26t-24.5 27q-20 20 -33.5 38.5t-23 38t-15.5 43t-12 54.5q-10 88 12 172q10 35 29.5 71.5t50.5 71.5t77 66t112 55q59 18 102 21v182h123v-182 q51 -4 99 -16.5t102 -37.5q70 -31 114 -71q16 -16 27.5 -28.5t19.5 -23.5l-161 -92q-29 23 -70 45l-47 21q-20 8 -41 13t-43 9v-489q10 -4 19.5 -8t13.5 -6q18 -6 36.5 -13.5t34.5 -15.5q35 -16 101 -53q33 -18 55 -32.5t37 -25.5q47 -33 77.5 -70.5t55.5 -84.5 q27 -61 27 -148q0 -104 -39 -190q-43 -90 -113 -154q-70 -70 -164 -102q-35 -14 -69.5 -22.5t-71.5 -12.5v-113h-123v113q-25 4 -50.5 7t-49.5 7q-80 18 -158 56q-39 20 -72 42.5t-61 51.5q-45 45 -66 86zM317 1180q0 -35 13 -66q8 -29 42 -67.5t93 -73.5q12 -6 23.5 -12.5 t21.5 -10.5v432q-18 -2 -41 -10q-23 -6 -76 -39q-35 -29 -55 -67q-20 -39 -21 -86zM633 131q14 4 27.5 7t27.5 7q27 10 49 21.5t51 36.5q45 35 70 86t25 114q0 39 -13 74q0 2 -1 3t-1 5q-16 37 -46.5 66t-61.5 51l-78 43q-10 4 -22.5 10.5t-26.5 12.5v-537z" />
<glyph unicode="%" horiz-adv-x="1449" d="M35 1225q0 74 28.5 138t77.5 111.5t114.5 75t139.5 27.5t139.5 -27.5t114.5 -75t78 -112t29 -137.5q0 -74 -30 -137.5t-79 -110.5t-114.5 -75t-137.5 -28t-137 28t-114.5 75t-79 110.5t-29.5 137.5zM158 1225q0 -47 19.5 -88t52 -72t75.5 -49.5t90 -18.5t90 18.5t76 49.5 t52.5 72t19.5 88t-19.5 89t-52.5 72.5t-76 49t-90 18.5t-90 -18.5t-75.5 -49t-52 -72.5t-19.5 -89zM227 18l903 1559l93 -53l-901 -1557zM696 317q0 74 29 138.5t78 111.5t114.5 75t139.5 28t139.5 -28t114.5 -75t77.5 -111.5t28.5 -138.5t-29.5 -137t-78.5 -110t-115 -75 t-137 -28q-72 0 -137.5 28t-114.5 75t-79 110.5t-30 136.5zM819 317q0 -47 19.5 -88t52.5 -71.5t76 -49t90 -18.5t90 18.5t75.5 49t52 71.5t19.5 88t-19.5 89.5t-52 73t-75.5 49t-90 18.5t-90 -18.5t-76 -49t-52.5 -72.5t-19.5 -90z" />
<glyph unicode="&#x26;" horiz-adv-x="1417" d="M109 422q0 74 21.5 132t58 106.5t86 89.5t104.5 81l96 70q-66 70 -118 155t-52 183q0 80 27.5 142.5t75 106.5t113 66.5t141.5 22.5q70 0 134 -21.5t113 -63.5t79 -101.5t30 -135.5q0 -66 -25.5 -121t-66.5 -102t-90.5 -87t-98.5 -75l322 -389l69 86l234 -4l-188 -221 l276 -342h-238l-168 209q-88 -104 -206.5 -173t-255.5 -69q-96 0 -182.5 34t-151 94.5t-102 143.5t-37.5 183zM289 424q0 -55 23.5 -106.5t63.5 -91.5t92 -63.5t107 -23.5q53 0 102.5 18.5t93.5 48.5t83 65.5t76 72.5l-342 418l-19 -12q-41 -29 -89 -62t-91 -74t-71.5 -88 t-28.5 -102zM485 1262q0 -59 29 -104.5t64 -88.5l51 -65l24 16q80 51 115 89t52.5 71.5t17.5 76.5q0 82 -51.5 125t-129.5 43q-70 0 -121 -45t-51 -118z" />
<glyph unicode="'" horiz-adv-x="567" d="M184 1544h201l-37 -600h-127z" />
<glyph unicode="(" horiz-adv-x="598" d="M117 637q0 109 9 225.5t27.5 233t48 231.5t72.5 219h203q-47 -102 -79.5 -214.5t-53 -229.5t-30 -235.5t-9.5 -229.5t9.5 -227.5t28.5 -233.5t52 -229.5t80 -212.5h-203q-84 211 -119.5 448.5t-35.5 454.5z" />
<glyph unicode=")" horiz-adv-x="598" d="M129 1550h203q43 -104 72.5 -218.5t48 -231.5t27.5 -233.5t9 -225.5q0 -217 -35.5 -454.5t-119.5 -448.5h-203q47 100 80 212.5t52.5 229.5t28.5 233.5t9 227.5t-9 229.5t-29.5 235.5t-53.5 229.5t-80 214.5z" />
<glyph unicode="*" horiz-adv-x="884" d="M129 1124l174 101l-172 102l64 117l182 -101v201h141v-194l166 98l72 -121l-174 -102l174 -103l-72 -118l-166 102v-197h-141v199l-178 -100z" />
<glyph unicode="+" d="M68 436v176h436v437h176v-437h436v-176h-436v-436h-176v436h-436z" />
<glyph unicode="," horiz-adv-x="591" d="M111 -319l200 499h185l-252 -499h-133z" />
<glyph unicode="-" horiz-adv-x="679" d="M117 463v153h448v-153h-448z" />
<glyph unicode="." horiz-adv-x="591" d="M178 86q0 47 35 83t84 36t84 -36t35 -83q0 -49 -35 -84t-84 -35t-84 35t-35 84z" />
<glyph unicode="/" horiz-adv-x="983" d="M66 -2l671 1542h158l-662 -1542h-167z" />
<glyph unicode="0" horiz-adv-x="1175" d="M49 483v574q0 109 40 203t108.5 162.5t161.5 107.5t202 39t203 -39t162.5 -107.5t108.5 -163t40 -202.5v-574q0 -109 -40 -202t-108.5 -161.5t-162.5 -107.5t-203 -39t-202 39t-161.5 107.5t-108.5 162t-40 201.5zM233 483q0 -68 26 -128t70 -106t104.5 -72.5 t127.5 -26.5q70 0 129.5 26.5t104.5 72.5t70.5 106.5t25.5 127.5v574q0 68 -25.5 128t-70.5 106t-104.5 73t-129.5 27q-68 0 -128 -27t-104 -73t-70 -106.5t-26 -127.5v-574z" />
<glyph unicode="1" horiz-adv-x="649" d="M-2 1309l317 239h185v-1548h-185v1331l-213 -162z" />
<glyph unicode="2" horiz-adv-x="1157" d="M82 1122q12 102 51 187.5t101.5 146t148.5 93t190 32.5q98 0 187.5 -35t156 -96t106.5 -146t40 -186q0 -86 -31 -169t-84 -150l-579 -621h694v-178h-926v178l602 653q25 31 49.5 64t44 67.5t33 71.5t13.5 76q0 61 -26 114.5t-68 93.5t-97 63.5t-115 23.5 q-59 0 -111 -22.5t-92 -60.5t-64.5 -90t-29.5 -110h-194z" />
<glyph unicode="3" d="M109 381h186q6 -57 33.5 -102.5t67.5 -77t91.5 -49t106.5 -17.5q63 0 117.5 23.5t94.5 64.5t61.5 96.5t21.5 118.5q0 74 -24.5 132.5t-67.5 97.5t-102.5 57t-131.5 12v160q61 0 116.5 12.5t97.5 42t65.5 76.5t23.5 117q0 57 -20.5 106t-56 84t-85 54.5t-106.5 19.5 q-104 0 -172 -60.5t-84 -160.5h-190q29 193 144.5 291t307.5 98q92 0 173 -28.5t142.5 -83t96.5 -131.5t35 -173q0 -115 -49.5 -204t-147.5 -144q115 -53 167 -155.5t52 -227.5q0 -109 -38 -194.5t-104.5 -145t-156.5 -91.5t-194 -32q-90 0 -174 29t-148.5 83t-104.5 130 t-44 172z" />
<glyph unicode="4" horiz-adv-x="1175" d="M23 446v170l688 928h192v-930h182v-170h-182v-444h-192v444zM233 616l478 -2v611z" />
<glyph unicode="5" horiz-adv-x="1093" d="M109 721q8 61 16 129q8 59 16.5 133t18.5 152q23 182 51 411h700v-164h-534l-60 -456q109 59 244 59q106 0 200.5 -39t163 -107.5t108.5 -162.5t40 -203t-40 -202t-108.5 -161.5t-162.5 -107.5t-201 -39q-141 0 -256 63.5t-180 172.5l170 80q45 -63 113.5 -101.5 t152.5 -38.5q68 0 128.5 27t104.5 73t69.5 106.5t25.5 127.5q0 68 -25.5 129.5t-69.5 107.5t-104.5 72.5t-128.5 26.5q-66 0 -121 -23.5t-100 -64.5h-231z" />
<glyph unicode="6" d="M84 473q0 66 14.5 124t42.5 114q4 10 32 52t71 102.5t96 134t109 149.5q127 176 288 397h230l-420 -563q12 0 24.5 1t26.5 1q106 0 200.5 -39t163 -107.5t108.5 -162.5t40 -203t-40 -202t-108.5 -161.5t-162.5 -107.5t-201 -39q-109 0 -203 39t-162.5 107.5t-108.5 162 t-40 201.5zM268 473q0 -68 25.5 -128t70 -106t104.5 -73t130 -27q68 0 128 27t104 73t70 106.5t26 127.5q0 68 -26 129.5t-70 107.5t-104 72.5t-128 26.5q-70 0 -130 -26.5t-104.5 -72.5t-70 -107.5t-25.5 -129.5z" />
<glyph unicode="7" horiz-adv-x="1146" d="M96 1372v172l998 2v-174l-725 -1372h-207l719 1372h-785z" />
<glyph unicode="8" d="M111 453q0 141 66.5 253.5t180.5 176.5q-10 6 -17 13l-15 15q-53 53 -85 125t-32 158q0 84 31.5 155.5t85.5 125.5q53 53 125.5 83.5t154.5 30.5q84 0 157 -30.5t126 -83.5q55 -53 86 -125t31 -156q0 -86 -31 -157.5t-86 -125.5q-8 -8 -15.5 -15t-15.5 -13 q113 -63 179.5 -176t66.5 -254q0 -104 -39 -194.5t-105.5 -158t-157.5 -105.5t-196 -38q-104 0 -194 38t-157 105.5t-105.5 157.5t-38.5 195zM289 453q0 -66 24.5 -124.5t67.5 -103.5t101 -70.5t124 -25.5q68 0 126.5 25.5t101.5 70.5t67.5 103.5t24.5 124.5t-24.5 125 t-67.5 103t-101.5 69.5t-126.5 25.5q-66 0 -124 -25.5t-101 -69.5t-67.5 -103.5t-24.5 -124.5zM385 1194q0 -47 18.5 -88t49.5 -74q29 -29 68.5 -46t84.5 -17q47 0 87 17.5t71 45.5q29 33 46 74t17 88q0 45 -17 86t-46 72q-66 66 -158 65q-92 1 -153 -65q-31 -31 -49.5 -72 t-18.5 -86z" />
<glyph unicode="9" horiz-adv-x="1136" d="M23 1071q0 109 39.5 202t109.5 161.5t163 107.5t202 39q106 0 200 -39t164 -107.5t110 -161.5t40 -202q0 -66 -14.5 -123t-41.5 -110q-61 -96 -104 -156.5t-96.5 -135.5t-108.5 -151q-129 -178 -289 -395h-243l413 561q6 0 -6 -1t-24 -1q-109 0 -202 39t-163 107.5 t-109.5 163t-39.5 202.5zM209 1071q0 -68 25.5 -129t69.5 -107.5t104.5 -73t128.5 -26.5t128 26.5t104 73t69.5 108t25.5 128.5q0 68 -25.5 128.5t-69.5 106.5t-104 72.5t-128 26.5t-128.5 -26.5t-104.5 -72.5t-69.5 -106.5t-25.5 -128.5z" />
<glyph unicode=":" horiz-adv-x="591" d="M178 86q0 47 35 83t84 36t84 -36t35 -83q0 -49 -35 -84t-84 -35t-84 35t-35 84zM178 868q0 47 35 83t84 36t84 -36t35 -83q0 -49 -35 -83.5t-84 -34.5t-84 34.5t-35 83.5z" />
<glyph unicode=";" horiz-adv-x="591" d="M94 -319l201 501l184 -2l-250 -499h-135zM274 868q0 47 35 83t84 36t84 -36t35 -83q0 -49 -35 -83.5t-84 -34.5t-84 34.5t-35 83.5z" />
<glyph unicode="&#x3c;" d="M68 453v143l1048 424v-193l-786 -303l786 -303v-192z" />
<glyph unicode="=" d="M68 260v176h1048v-176h-1048zM68 612v176h1048v-176h-1048z" />
<glyph unicode="&#x3e;" d="M68 29v192l786 303l-786 303v193l1048 -424v-143z" />
<glyph unicode="?" horiz-adv-x="978" d="M102 1204q2 55 23.5 104.5t46.5 86.5q29 43 66 78q117 100 294 100q86 0 160 -24.5t127 -71.5t85 -117t32 -160q0 -78 -22.5 -134t-61.5 -108q-2 -2 -28.5 -33.5t-94.5 -93.5q-2 0 -5 -3l-15 -15q-33 -29 -53.5 -51.5t-30.5 -46.5q-12 -25 -16.5 -54.5t-4.5 -72.5v-230 h-184v265q0 55 7 91t24 64q16 29 43.5 56.5t68.5 66.5q33 31 66 62.5t61 66.5q27 35 44.5 74t17.5 86q0 98 -66 160q-63 63 -158 63q-51 0 -93 -17.5t-75 -47.5q-29 -31 -48 -62t-27 -82h-183zM393 86q0 45 35 84q35 35 84 35t84 -35q35 -39 35 -84t-35 -84q-35 -35 -84 -35 t-84 35q-35 39 -35 84z" />
<glyph unicode="@" horiz-adv-x="1638" d="M74 772q0 172 60.5 319.5t167 255t248.5 169t306 61.5q135 0 257 -43t224 -135q104 -92 167 -210t63 -261q0 -129 -33 -242t-94 -192q-74 -98 -158 -140.5t-158 -38.5q-43 2 -71.5 35t-38.5 92q-53 -53 -120 -90t-159 -37q-68 0 -130 30t-109 81t-76 119.5t-29 148.5 q0 92 30 180.5t84 157t131 109.5t173 41q78 0 144.5 -33t127.5 -113l29 127h145l-102 -526q-6 -27 -11 -57.5t-5 -57t9 -44t36 -17.5q35 0 73.5 32.5t71.5 88t54.5 126t21.5 146.5q0 129 -42 232.5t-117 176t-176 111.5t-218 39q-129 0 -240.5 -50t-194.5 -137t-130 -204 t-47 -250q0 -141 52 -259t140 -203t206 -132t249 -47q129 0 225 24.5t156 73.5l153 -123q-55 -29 -110.5 -54t-120 -43.5t-142 -30t-178.5 -11.5q-166 0 -310 60.5t-251.5 168t-170 255t-62.5 321.5zM551 709q0 -45 14.5 -87t41 -75t64.5 -52.5t85 -19.5q68 0 117 23.5 t81.5 63.5t51 92.5t24.5 107.5q16 125 -43 192.5t-166 67.5q-61 0 -111.5 -27.5t-86 -72.5t-54 -101.5t-18.5 -111.5z" />
<glyph unicode="A" horiz-adv-x="1470" d="M-4 -2l676 1550h125l678 -1550h-209l-164 389h-735l-164 -389h-207zM442 563h584l-291 697z" />
<glyph unicode="B" horiz-adv-x="1136" d="M133 -2v1546h461q55 0 112.5 -14t110.5 -47q102 -61 152 -166q32 -70 32 -145q0 -39 -8 -73t-20 -71q-6 -18 -21.5 -42.5t-33 -45t-29.5 -34t-12 -11.5q4 -2 36.5 -27.5t70.5 -75t68.5 -125t30.5 -180.5q0 -2 -3 -37.5t-17 -89t-44 -115t-85 -114.5t-139 -91t-205 -42 h-457zM324 184h268q113 12 173 58.5t88 98.5t32 94t4 44q0 68 -17.5 126.5t-61.5 101.5t-120 67.5t-188 26.5h-121h-57v-617zM324 977h284q57 0 103 20q39 16 71.5 52t32.5 106v16q-4 78 -60.5 134.5t-154.5 58.5h-276v-387z" />
<glyph unicode="C" horiz-adv-x="1460" d="M4 776q0 170 64 311q66 152 174 256q109 109 258 175q152 63 313 63q162 0 313 -63q117 -51 213 -134l-129 -127q-70 55 -149 93q-111 51 -248 51q-139 0 -250 -51q-115 -49 -194 -136q-84 -84 -127 -198q-45 -111 -45 -240q0 -135 49 -248q51 -117 133 -196 q82 -82 196 -133q113 -47 238 -47q123 0 236 47q20 8 49.5 23.5t59.5 33.5t54.5 38.5t36.5 41.5l148 -123q-66 -63 -130.5 -106.5t-138.5 -73.5q-147 -61 -315 -62q-168 0 -315 62q-150 61 -258 168q-111 106 -172 256q-63 145 -64 319z" />
<glyph unicode="D" horiz-adv-x="1388" d="M135 -2v1546l508 -4q145 -10 275.5 -65.5t234.5 -153.5q115 -109 175.5 -249t60.5 -294q0 -160 -61.5 -303t-178.5 -254q-102 -98 -231.5 -156.5t-274.5 -68.5h-508v2zM319 170q72 -2 132 -2h141q125 0 234.5 47t191.5 129t129 192.5t47 235.5q0 123 -47 232.5 t-128 191.5t-190.5 129t-232.5 47h-277v-1202z" />
<glyph unicode="E" horiz-adv-x="1067" d="M147 0v1548h832v-178h-639v-508h637v-178h-637v-508h639v-176h-832z" />
<glyph unicode="F" horiz-adv-x="970" d="M145 -4v1548h750v-178h-557v-508h539v-176h-539v-686h-193z" />
<glyph unicode="G" horiz-adv-x="1597" d="M41 772q0 172 64.5 320.5t176 258t261 173t321.5 63.5q102 0 201.5 -25.5t189.5 -80.5l-98 -154q-72 41 -151.5 61.5t-159.5 20.5q-129 0 -241.5 -50t-194.5 -136t-129.5 -201t-47.5 -244q0 -127 47.5 -241.5t128 -200.5t192.5 -136t241 -50q115 0 220 40.5t191 116.5 v383h-362v178h545v-2h2v-663q-76 -66 -170 -117q-80 -43 -188 -80q-101 -35 -219 -35h-13q-166 2 -312.5 64.5t-257 170t-174 253t-63.5 313.5z" />
<glyph unicode="H" horiz-adv-x="1382" d="M131 -4v1548h193v-686h737v686h192v-1548h-192v682h-737v-682h-193z" />
<glyph unicode="I" horiz-adv-x="475" d="M141 0v1544h193v-1544h-193z" />
<glyph unicode="J" horiz-adv-x="741" d="M-39 43l96 164q68 -51 154 -51q82 0 127 43t64.5 105.5t22.5 135t3 131.5v981h193v-981q0 -111 -14.5 -218t-59.5 -191t-127 -135.5t-217 -51.5q-68 0 -126.5 16.5t-115.5 51.5z" />
<glyph unicode="K" horiz-adv-x="1228" d="M150 -2v1548h194v-643l629 643h252l-668 -696l709 -852h-260l-662 827v-827h-194z" />
<glyph unicode="L" horiz-adv-x="788" d="M147 0v1544h193v-1368h469v-176h-662z" />
<glyph unicode="M" horiz-adv-x="1437" d="M109 0v1546h194l414 -565l409 565h197v-1546h-193v1223l-411 -549l-418 553v-1227h-192z" />
<glyph unicode="N" horiz-adv-x="1556" d="M119 0v1546h196l908 -1218v1218h196v-1546h-190l-914 1225v-1225h-196z" />
<glyph unicode="O" horiz-adv-x="1695" d="M39 772q0 166 64.5 312.5t174 256t257 173t313.5 63.5t313.5 -63.5t257 -173t174 -256t64.5 -312.5q0 -172 -63.5 -319.5t-173 -255t-257 -169t-315.5 -61.5t-315.5 61.5t-257 169t-173 255t-63.5 319.5zM231 772q0 -133 49.5 -246.5t134.5 -197.5t196.5 -132.5 t236.5 -48.5t236.5 48.5t196.5 132.5t134 197.5t49 246.5q0 127 -45 240.5t-127 198.5t-195.5 135.5t-248.5 50.5t-249 -50.5t-195.5 -135.5t-127 -198.5t-45.5 -240.5z" />
<glyph unicode="P" horiz-adv-x="1255" d="M143 -2v1546h521q98 0 188 -37q88 -37 154 -100q66 -61 102 -145q18 -41 28.5 -86.5t10.5 -94.5v-2q0 -92 -39 -180q-35 -80 -102 -143q-66 -63 -154 -101q-86 -37 -186 -37h-334v-620h-189zM332 797h332q57 0 114 22q51 21 94 62q37 37 64 90q25 49 25 110q0 59 -25 109 q-25 53 -64 92q-84 80 -206 84h-334v-569z" />
<glyph unicode="Q" horiz-adv-x="1695" d="M27 807q0 168 63 313q66 147 176 256q109 109 258 174q145 63 314 64q168 0 313 -64q150 -66 258 -174q109 -104 174 -256q66 -150 66 -313q0 -162 -64 -313q-66 -150 -178 -256l195 -238h-205l-117 137q-100 -66 -215 -102q-121 -35 -227 -35q-168 0 -316 61 q-145 61 -258 170q-113 111 -174 256q-63 145 -63 320zM219 807q0 -135 49 -248q53 -117 135 -199q84 -84 197 -133q113 -47 238 -47q74 0 153 21q41 10 79 28.5t75 40.5l-453 547h215l369 -442q23 20 42 41.5t36 48.5q16 27 30.5 54.5t26.5 55.5q10 29 19.5 59t13.5 58 q12 57 12 115q0 125 -47 242q-47 115 -127 198q-84 86 -197 135q-111 51 -247 52q-139 0 -250 -52q-115 -49 -195 -135q-82 -82 -129 -198q-45 -111 -45 -242z" />
<glyph unicode="R" horiz-adv-x="1212" d="M152 0v1548h518q102 0 188 -37q86 -35 154 -100q68 -61 104 -145q37 -84 37 -181v-2q0 -98 -37 -180t-104 -143q-61 -61 -152 -101q-55 -23 -119 -32l433 -627h-226l-430 623h-178v-623h-188zM340 801h330q31 0 59.5 5t54.5 17q53 20 95 62q23 20 38 42.5t27 47.5 q23 45 23 110q0 63 -23 109q-25 51 -65 92q-84 82 -207 84h-332v-569z" />
<glyph unicode="S" horiz-adv-x="1179" d="M59 211l183 82q25 -35 55.5 -62.5t67.5 -46.5q47 -27 102 -38t115 -11q59 0 112 19q27 10 49.5 21t51.5 36q45 35 69.5 86t24.5 115q0 39 -12 73q0 2 -1.5 3t-1.5 6q-16 37 -46.5 65.5t-61.5 50.5l-78 43q-29 12 -69.5 33t-81.5 42.5t-95.5 48t-97.5 56t-72 52.5 q-33 27 -55 53q-41 43 -55.5 77t-28.5 97q-3 28 -3 55q0 60 15 117q10 35 29 72t50.5 71.5t77.5 65.5t112 55q47 14 81.5 18.5t75.5 4.5q72 0 135.5 -11.5t133.5 -43.5q72 -31 114 -72q31 -31 47 -51l-161 -93q-31 25 -70 46l-47 20q-20 8 -40.5 13t-43.5 10q-47 6 -88 6 t-76 -15q-20 -6 -76 -39q-16 -14 -30.5 -30.5t-24.5 -36.5q-20 -39 -20 -86q0 -35 12 -66q6 -16 14 -30.5t25.5 -36t42 -38t53.5 -36.5q166 -82 202 -95.5t70 -29.5q35 -16 100.5 -53t93.5 -57.5t53.5 -45t44 -52t34.5 -58.5q27 -63 27 -148q0 -100 -39 -190 q-43 -90 -113 -154q-68 -68 -164 -102q-92 -37 -196 -37q-43 0 -85 4t-83 12q-82 18 -158 56q-78 39 -133 94q-43 43 -66 86z" />
<glyph unicode="T" horiz-adv-x="1048" d="M0 1368v176h1049v-176h-428v-1368h-193v1368h-428z" />
<glyph unicode="U" horiz-adv-x="1370" d="M121 567v977h192v-911q0 -94 16.5 -182.5t58.5 -156t114.5 -107.5t183.5 -40t183.5 40t114.5 107.5t58.5 156t16.5 182.5v911h192v-977q0 -127 -38.5 -236.5t-111.5 -190.5t-177.5 -127t-237.5 -46t-237.5 46t-177 127t-111.5 190.5t-39 236.5z" />
<glyph unicode="V" horiz-adv-x="1437" d="M-4 1550h207l149 -352l15 -37h2l88 -209l278 -663l277 663l90 209l166 389h207l-674 -1550h-135z" />
<glyph unicode="W" horiz-adv-x="2293" d="M0 1544h209l530 -1255l267 641l-269 612h207l164 -377l164 377h207l-271 -612l260 -637l541 1249h207l-674 -1542h-135l-299 696l-303 -696h-135z" />
<glyph unicode="X" horiz-adv-x="1175" d="M0 0l485 809l-426 735h220l315 -563l336 563h219l-444 -735l469 -809h-216l-364 633l-379 -633h-215z" />
<glyph unicode="Y" horiz-adv-x="1173" d="M-12 1544h221l379 -659l379 659h221l-504 -872v-672h-192v672z" />
<glyph unicode="Z" horiz-adv-x="1130" d="M20 -2v176l877 1194h-782v178h1007l2 -178l-878 -1194h872v-176h-1098z" />
<glyph unicode="[" horiz-adv-x="636" d="M125 -395v2052h389v-172h-201v-1708h201v-172h-389z" />
<glyph unicode="\" horiz-adv-x="1128" d="M63 1778h173l827 -1778h-172z" />
<glyph unicode="]" horiz-adv-x="636" d="M123 -223h201v1708h-201v172h389v-2052h-389v172z" />
<glyph unicode="^" d="M68 631l409 913h230l409 -913h-192l-332 741l-334 -741h-190z" />
<glyph unicode="_" horiz-adv-x="1175" d="M49 463v614q0 109 40 203t108.5 162.5t161.5 107.5t202 39t203 -39t162.5 -107.5t108.5 -162.5t40 -203v-614q0 -109 -40 -202t-108.5 -161.5t-162.5 -107.5t-203 -39t-202 39t-161.5 107.5t-108.5 161.5t-40 202zM233 463q0 -68 26 -128.5t70 -106.5t104.5 -72.5 t127.5 -26.5q70 0 129.5 26.5t104.5 72.5t70.5 106.5t25.5 128.5v614q0 68 -25.5 128.5t-70.5 106.5t-104.5 72.5t-129.5 26.5q-68 0 -128 -26.5t-104 -72.5t-70 -106.5t-26 -128.5v-614z" />
<glyph unicode="`" horiz-adv-x="737" d="M156 1413h231l195 -250h-150z" />
<glyph unicode="a" horiz-adv-x="1138" d="M55 475q0 111 41 206t112 163.5t167 107.5t207 39q66 0 132 -27.5t122 -66.5l20 64h164v-961h-164l-20 63q-63 -41 -128 -67.5t-137 -26.5q-106 0 -199 39t-164 106.5t-112 160t-41 200.5zM242 483q0 -74 24.5 -137t68.5 -108t104 -71t134 -26q80 0 144.5 31t118.5 90 v434q-109 123 -275 123q-68 0 -126 -27.5t-101 -73.5t-67.5 -107.5t-24.5 -127.5z" />
<glyph unicode="b" horiz-adv-x="1138" d="M111 0v1550h186v-641q55 41 121.5 69t132.5 28q111 0 206 -39t165.5 -107.5t111.5 -164t41 -206.5q0 -109 -41 -200.5t-110.5 -159.5t-162.5 -106.5t-200 -38.5q-72 0 -136.5 26.5t-127.5 69.5l-21 -80h-165zM297 276q53 -59 117.5 -89.5t144.5 -30.5q74 0 134.5 25.5 t104.5 70.5t68.5 108.5t24.5 137.5q0 66 -24.5 127t-67.5 107t-101.5 74t-126.5 28q-166 0 -274 -123v-435z" />
<glyph unicode="c" horiz-adv-x="1030" d="M51 471q0 109 40 203t108.5 162.5t162 107.5t201.5 39q115 0 212 -43t169 -121l-131 -129q-47 53 -110.5 85t-139.5 32q-68 0 -128 -26.5t-104 -72.5t-69.5 -106.5t-25.5 -130.5q0 -68 25.5 -128t69.5 -106.5t104.5 -73t127.5 -26.5q84 0 152.5 38t113.5 101l144 -118 q-72 -92 -176.5 -144.5t-233.5 -52.5q-109 0 -202 39t-161.5 107.5t-108.5 161.5t-40 202z" />
<glyph unicode="d" horiz-adv-x="1138" d="M61 487q0 111 41 206t112 165t167 109t207 39q63 0 129.5 -28t122.5 -69l2 635h184l-2 -1546h-164l-20 80q-63 -43 -127 -69.5t-135 -26.5q-106 0 -200.5 38.5t-164.5 106.5t-111 160t-41 200zM246 496q0 -74 24.5 -136.5t68.5 -108.5t105.5 -71.5t135.5 -25.5 q78 0 142 30.5t118 87.5v439q-55 63 -123 91.5t-150 28.5q-68 0 -127 -27.5t-102 -73.5t-67.5 -107.5t-24.5 -126.5z" />
<glyph unicode="e" horiz-adv-x="1116" d="M43 473q0 111 39 203q39 88 108 162q35 35 76 61.5t88 44.5q92 39 203 39q109 0 201 -39q70 -29 125 -79t93 -117.5t56 -131.5q17 -58 17 -155v-21h-820q2 -33 9.5 -58.5t21.5 -53.5q27 -57 72 -99q47 -45 102 -67q57 -25 123 -25q84 0 156 41q66 35 110 101l181 -60 q-55 -102 -154 -168q-66 -45 -137 -65q-74 -25 -156 -25q-102 0 -203 39q-96 39 -164 109q-68 68 -108 161q-39 92 -39 203zM254 608h598q-23 76 -111 142q-78 57 -184 57q-104 0 -186 -57q-78 -55 -117 -142z" />
<glyph unicode="f" horiz-adv-x="737" d="M0 786v172h158l2 33q0 16 3 58.5t15 93.5t37 105.5t70 97.5q8 8 40.5 32.5t89 42t135.5 18.5h4q78 0 177 -36l-69 -154q-56 22 -100 22h-10q-48 -3 -81 -18q-37 -16 -63 -47q-25 -31 -38.5 -66.5t-17.5 -68.5q-4 -37 -6 -113h336v-172h-336v-782v-4h-188v786h-158z" />
<glyph unicode="g" horiz-adv-x="1136" d="M53 479q0 113 41 207q41 96 111 164q72 72 166 108q92 39 207 39q68 0 133 -26l120 -68l21 58h164v-943q0 -127 -21 -227q-20 -102 -73 -180q-53 -76 -144 -119q-90 -43 -231 -43q-102 0 -185 31q-80 27 -145 86q-29 27 -61.5 67.5t-38.5 81.5l172 56q18 -49 59 -84 q82 -72 207 -72q84 0 141 29q53 29 84 73q29 53 41 113q4 33 7 66.5t3 70.5v103l-122 -66q-74 -29 -142 -29q-109 0 -198 39q-92 35 -164 105q-72 68 -111 160q-41 94 -41 200zM238 487q0 -74 24 -135q25 -63 70 -108q47 -47 104 -70q55 -27 133 -27t144 31q61 27 116 88 v439q-105 120 -269 120h-3q-70 0 -125 -26q-61 -29 -102 -76q-41 -45 -68 -107q-24 -59 -24 -124v-5z" />
<glyph unicode="h" horiz-adv-x="1052" d="M129 -4v1546h184v-670q68 55 136.5 85t142.5 30q100 0 166.5 -32.5t104.5 -89t53.5 -132.5t15.5 -164v-573h-184v551q0 61 -6.5 111.5t-29 87t-64.5 56t-111 19.5q-86 0 -141.5 -32.5t-82.5 -79.5v-713h-184z" />
<glyph unicode="i" horiz-adv-x="520" d="M133 1397q0 53 37 91t90 38t90 -38t37 -91t-37 -89t-90 -36t-90 35.5t-37 89.5zM168 0v958h184v-958h-184z" />
<glyph unicode="j" horiz-adv-x="520" d="M-219 -406l65 158q56 -19 104 -19q29 0 56 7q31 8 59.5 26.5t50 53.5t35 89t13.5 132v917h188v-950q-2 -86 -16 -158.5t-49 -128.5q-63 -98 -143.5 -130.5t-155.5 -33.5h-8q-69 0 -124 16q-57 17 -75 21zM127 1391q0 51 37 92q37 37 90 37t90 -37q37 -41 37 -92 q0 -55 -37 -88q-37 -37 -90 -37t-90 37q-37 33 -37 88z" />
<glyph unicode="k" horiz-adv-x="989" d="M135 -4v1550h184v-1550h-184zM319 514v80l363 362h244l-412 -399l453 -561h-240z" />
<glyph unicode="l" horiz-adv-x="454" d="M135 0v1544h184v-1544h-184z" />
<glyph unicode="m" horiz-adv-x="1636" d="M119 0v961h172l12 -84q68 55 136.5 82.5t142.5 29.5h13q77 1 128 -21q55 -24 90 -55q39 -37 61 -82q6 8 37 34t68 53.5t90 49t123 21.5q100 0 166.5 -31.5t104.5 -88t53.5 -132t15.5 -164.5v-573h-184v551q0 61 -6.5 111.5t-29 87t-63.5 56t-112 19.5q-86 0 -139.5 -26.5 t-86.5 -89.5q6 -33 8.5 -67t2.5 -69v-573h-185v551q0 61 -6 111.5t-28.5 87t-64.5 56t-112 19.5q-86 0 -138 -26.5t-85 -85.5v-713h-184z" />
<glyph unicode="n" horiz-adv-x="1044" d="M127 -2v960h174l12 -84q72 55 137.5 84t139.5 29q102 0 170.5 -31.5t106.5 -88t53.5 -133.5t15.5 -165v-571h-186v549q0 61 -6.5 112.5t-29 88t-64.5 56t-107 23.5q-90 -2 -146.5 -37.5t-83.5 -80.5v-711h-186z" />
<glyph unicode="o" horiz-adv-x="1105" d="M41 477q0 109 40 202t108.5 161.5t161.5 107.5t202 39q106 0 200.5 -39t163 -107.5t108.5 -161.5t40 -202t-40 -202t-108.5 -161.5t-163 -107.5t-200.5 -39q-109 0 -202 39t-161.5 107.5t-108.5 162t-40 201.5zM225 477q0 -68 25.5 -128t70 -106t104.5 -73t128 -27 t128 27t104 73t70 106.5t26 127.5q0 68 -26 129.5t-70 106.5t-104 71.5t-128 26.5t-128 -26.5t-104.5 -71.5t-70 -106.5t-25.5 -129.5z" />
<glyph unicode="p" horiz-adv-x="1138" d="M115 -549v1512h172l12 -80q63 43 127.5 69.5t138.5 26.5q106 0 199.5 -39t163 -106.5t110.5 -160.5t41 -200q0 -111 -41 -206t-111.5 -164.5t-165.5 -108.5t-206 -39q-66 0 -133.5 27.5t-122.5 70.5v-600zM299 252q108 -123 276 -123q68 0 126.5 27.5t101.5 73.5 t67.5 107.5t24.5 127.5q0 74 -24.5 136.5t-68.5 108.5t-104.5 71.5t-134.5 25.5q-82 0 -146.5 -31t-117.5 -90v-434z" />
<glyph unicode="q" horiz-adv-x="1138" d="M53 471q0 106 41 199.5t111.5 161t164 106.5t199.5 39q72 0 136.5 -26.5t128.5 -69.5l12 80h172v-1510h-184v598q-55 -41 -122 -68.5t-132 -27.5q-111 0 -207.5 39t-167 108.5t-111.5 164.5t-41 206zM240 463q0 -66 24.5 -127.5t67.5 -107.5t101 -73.5t126 -27.5 q166 0 275 123v432q-53 59 -118 90t-145 31q-74 0 -134 -25.5t-104 -70.5t-68.5 -107.5t-24.5 -136.5z" />
<glyph unicode="r" horiz-adv-x="718" d="M143 -4v962h172l13 -86q47 55 114.5 85t141.5 30q49 0 90 -8t74 -23l-60 -172q-100 37 -160 37q-84 0 -131 -30.5t-69 -81.5v-713h-185z" />
<glyph unicode="s" horiz-adv-x="831" d="M68 166l157 72q57 -104 193 -105q59 0 105 37t46 98q0 39 -20.5 60.5t-52.5 44.5l-181 96q-41 20 -75.5 43t-60 50.5t-41 63.5t-15.5 85q0 57 23.5 108t63.5 89t92 59.5t112 21.5q88 0 173 -37t124 -114l-150 -80q-8 18 -26.5 30.5t-41 20.5t-46 12t-44.5 4 q-39 0 -73.5 -26.5t-34.5 -67.5q0 -31 20.5 -54.5t53 -44t73.5 -37.5t84 -36q43 -18 83 -41.5t73 -56.5t52.5 -75t19.5 -99q0 -68 -28 -126.5t-74 -101.5t-106.5 -66.5t-127.5 -23.5q-53 0 -106.5 11.5t-101.5 36t-86 61.5t-56 88z" />
<glyph unicode="t" horiz-adv-x="624" d="M0 791v174h160v245h184v-245h197v-174h-197v-486q4 -63 36 -93t66 -40q31 -9 68 -9q12 0 25 1v-176q-29 -2 -54 -2q-86 0 -142 20q-73 26 -113 69.5t-53 94.5t-17 94v527h-160z" />
<glyph unicode="u" horiz-adv-x="1048" d="M119 408v550h184v-530q0 -57 9.5 -109.5t34 -92.5t67.5 -63.5t110 -23.5q68 0 111 23.5t67.5 63.5t33.5 92.5t9 109.5v530h185v-550q0 -98 -23.5 -179.5t-73 -139.5t-126 -90t-183.5 -32q-106 0 -183 32t-126 90t-72.5 139t-23.5 180z" />
<glyph unicode="v" horiz-adv-x="962" d="M-4 961h207l276 -674l277 674h207l-418 -961h-131z" />
<glyph unicode="w" horiz-adv-x="1568" d="M-2 961h207l276 -674l183 442v232h94h2h2h96v-232l180 -440l277 672h207l-418 -961h-131l-213 483l-213 -483h-133z" />
<glyph unicode="x" horiz-adv-x="1001" d="M-20 0l403 508l-356 448l235 2l240 -303l239 303l238 -2l-358 -448l403 -508l-233 -2l-289 362l-289 -362z" />
<glyph unicode="y" horiz-adv-x="991" d="M-27 958h215l324 -608l301 608h207l-776 -1507h-209l377 713z" />
<glyph unicode="z" horiz-adv-x="937" d="M27 -2v133l542 655h-540v175h784v-132l-537 -659h537v-172h-786z" />
<glyph unicode="{" horiz-adv-x="684" d="M98 555v150q78 35 116 113.5t38 195.5v372q0 61 18.5 111.5t45 85.5t57 54.5t53.5 19.5h160v-172h-82q-47 0 -55.5 -38t-8.5 -89v-377q0 -88 -20.5 -151.5t-47 -105.5t-52 -65.5t-35.5 -29.5q10 -6 35.5 -28.5t52 -64.5t47 -105.5t20.5 -151.5v-377q0 -51 8.5 -89 t55.5 -38h82v-172h-160q-23 0 -53.5 19.5t-57 54t-45 85t-18.5 111.5v373q0 117 -38 195.5t-116 113.5z" />
<glyph unicode="|" horiz-adv-x="1167" d="M496 0v1778h176v-1778h-176z" />
<glyph unicode="}" horiz-adv-x="684" d="M98 -225h82q47 0 55.5 37.5t8.5 89.5v377q0 88 20.5 151.5t47 105.5t52 64.5t35.5 28.5q-10 6 -35.5 29.5t-52 65.5t-47 105.5t-20.5 151.5v377q0 51 -8.5 89t-55.5 38h-82v172h160q23 0 53.5 -19.5t57 -54.5t45 -85t18.5 -112v-372q0 -117 38 -196t116 -113v-150 q-78 -35 -116 -114t-38 -195v-373q0 -61 -18.5 -111.5t-45 -85t-57 -54t-53.5 -19.5h-160v172z" />
<glyph unicode="~" d="M68 465q27 39 58.5 84t70.5 82t84 61.5t100 24.5q76 0 137.5 -33t112.5 -72t93 -71.5t79 -32.5q29 0 51.5 13.5t43 37t39.5 55t42 70.5l137 -102q-23 -43 -53.5 -87t-69.5 -80t-86 -59.5t-102 -23.5q-57 0 -117.5 32.5t-118.5 71.5q-57 39 -104 72t-80 33q-53 0 -96 -44 t-92 -124z" />
<glyph unicode="&#xa2;" d="M205 772q0 94 30.5 181t87 155t134.5 114t174 60v160h98v-156q66 -4 129.5 -17.5t120.5 -45.5v-236h-4q-43 57 -107.5 92t-138.5 37v-672q78 10 137.5 40t112.5 87v-239q-102 -49 -215 -58l-35 -2v-174h-98v183q-92 14 -171 57t-135.5 108.5t-88 148.5t-31.5 177z M385 780q0 -55 17.5 -109.5t49 -99.5t76.5 -76.5t103 -43.5v653q-55 -6 -100.5 -39t-77 -80t-50 -101.5t-18.5 -103.5z" />
<glyph unicode="&#xa3;" d="M23 49q27 49 57.5 90t67 72t84 49.5t106.5 20.5q27 88 29 171t-45 164h-265v119h205q-43 82 -81 179.5t-38 189.5q0 100 43 186t114 149.5t162 100.5t187 37q109 0 197 -35t151.5 -98.5t100.5 -151.5t43 -194l-185 -70v57q0 63 -22.5 120t-62.5 100t-94 67.5t-120 24.5 q-63 0 -122.5 -28t-105.5 -72t-73.5 -99t-27.5 -111q0 -53 15 -100t36.5 -90t47.5 -83t46 -79h303v-119h-254q29 -96 29 -176t-29 -176l152 -53q43 -16 94 -37.5t98 -21.5q31 0 56.5 14t46 36.5t37 49.5t30.5 51l154 -94q-43 -102 -123 -172t-197 -70q-66 0 -134 20.5 t-134 47.5t-125 46t-112 19q-72 0 -114 -35.5t-67 -97.5z" />
<glyph unicode="&#xa4;" d="M70 614q0 88 22.5 158t63.5 133l-84 90l123 123l94 -90q59 45 132 71.5t171 26.5t171 -26.5t132 -71.5l94 90l123 -123l-84 -90q41 -63 63.5 -133t22.5 -158t-22.5 -157.5t-63.5 -132.5l84 -91l-123 -122l-94 90q-59 -45 -132 -72t-171 -27t-171 27t-132 72l-94 -90 l-123 122l84 91q-41 63 -63.5 132.5t-22.5 157.5zM233 614q2 -72 30 -135t76 -110t113.5 -75t139.5 -28t139.5 28t113.5 75t76.5 110.5t28.5 134.5q0 76 -26.5 140.5t-74.5 110.5t-114.5 72t-142.5 26q-78 0 -143.5 -26t-113.5 -72t-76 -110.5t-26 -140.5z" />
<glyph unicode="&#xa5;" d="M-8 1544h221l379 -659l379 659h221l-324 -561h303v-119h-370l-113 -192v-21h483v-119h-483v-532h-192v532h-484v119h484v21l-111 192h-373v119h303z" />
<glyph unicode="&#xa6;" horiz-adv-x="1167" d="M496 0v711h176v-711h-176zM496 1067v711h176v-711h-176z" />
<glyph unicode="&#xa7;" d="M82 856q0 113 55.5 189.5t141.5 142.5q-43 49 -67 105.5t-24 121.5q0 78 33 144.5t87 114.5t125 76t147 28q78 0 149.5 -22.5t126.5 -66.5t90 -108.5t41 -146.5h-178q-2 45 -23.5 78.5t-53.5 56t-71.5 35t-80.5 12.5q-43 0 -81 -16.5t-65.5 -44t-44 -64.5t-16.5 -80 q0 -41 14 -72.5t39 -56.5t56.5 -43t64.5 -35l272 -137q47 -25 97.5 -52.5t91.5 -63.5t67.5 -82t26.5 -107q0 -102 -50.5 -194.5t-131.5 -151.5q109 -102 108 -250q0 -92 -36 -165t-96 -124t-139 -78.5t-165 -27.5q-98 0 -183 29.5t-147.5 87t-97.5 139.5t-35 184v31h182 q-2 -61 17.5 -116.5t56.5 -97.5t88 -65.5t117 -23.5q49 0 94 16t81 47t57.5 74t21.5 94q0 45 -19.5 79t-50.5 60.5t-67.5 46t-71.5 37.5l-289 142q-55 27 -103 54t-84 63t-56.5 85t-20.5 119zM264 877q0 -39 15.5 -68t41 -51.5t56.5 -40t61 -31.5l359 -178q53 35 88 93 t35 122q0 37 -13.5 64.5t-35 48t-50 37t-57.5 30.5l-377 191q-55 -35 -89 -93.5t-34 -123.5z" />
<glyph unicode="&#xa8;" horiz-adv-x="962" d="M141 1298q0 51 36 87t89 36q51 0 87 -35.5t36 -87.5q0 -53 -36 -88.5t-87 -35.5q-53 0 -89 35.5t-36 88.5zM573 1298q0 51 36 87t89 36q51 0 87 -35.5t36 -87.5q0 -53 -35.5 -88.5t-87.5 -35.5q-53 0 -89 35.5t-36 88.5z" />
<glyph unicode="&#xa9;" horiz-adv-x="1638" d="M12 772q0 168 62.5 314.5t172 256t256 172t316.5 62.5q168 0 315.5 -62.5t257 -172t172 -256t62.5 -314.5t-62.5 -314.5t-172 -256t-257 -172t-315.5 -62.5q-170 0 -316.5 62.5t-256 172t-172 256t-62.5 314.5zM143 772q0 -141 53.5 -265t145.5 -214t215 -142.5 t262 -52.5q137 0 260 52.5t215 142.5t146.5 214t54.5 265q0 143 -54.5 266t-146.5 213t-215 142.5t-260 52.5q-139 0 -262 -52.5t-215 -142.5t-145.5 -213t-53.5 -266zM403 778q0 100 31 185.5t88.5 148t140 97t187.5 34.5q143 0 246.5 -81t132.5 -224h-125q-18 86 -86 130 t-170 44q-84 0 -142.5 -28.5t-97.5 -75.5t-56 -105.5t-17 -120.5q0 -72 20 -133t61 -106t99.5 -71t136.5 -26q102 0 165.5 46.5t86.5 136.5h125q-10 -74 -44 -131.5t-84 -98.5t-114.5 -62.5t-134.5 -21.5q-102 0 -185 36t-141.5 99.5t-90.5 147.5t-32 180z" />
<glyph unicode="&#xaa;" horiz-adv-x="684" d="M25 754v98h634v-98h-634zM43 1272q0 66 24.5 122t65.5 96t98.5 63.5t124.5 23.5q37 0 76 -16.5t74 -38.5l12 39h96v-572h-96l-12 39q-39 -25 -77 -41t-81 -16q-61 0 -117.5 23.5t-97.5 63.5t-65.5 94t-24.5 120zM154 1276q0 -43 14 -81t39.5 -64.5t62.5 -42t80 -15.5 q47 0 85 18.5t71 53.5v256q-66 74 -162 74q-43 0 -77 -16.5t-59.5 -43t-39.5 -63.5t-14 -76z" />
<glyph unicode="&#xab;" horiz-adv-x="1071" d="M61 655l312 408h176l-305 -408l305 -391h-178zM455 655l307 408h180l-305 -408l305 -391h-180z" />
<glyph unicode="&#xac;" d="M68 612v176h1048v-552h-176v376h-872z" />
<glyph unicode="&#xad;" horiz-adv-x="679" d="M117 463v153h448v-153h-448z" />
<glyph unicode="&#xae;" horiz-adv-x="1638" d="M12 772q0 168 62.5 314.5t172 256t256 172t316.5 62.5q168 0 315.5 -62.5t257 -172t172 -256t62.5 -314.5t-62.5 -314.5t-172 -256t-257 -172t-315.5 -62.5q-170 0 -316.5 62.5t-256 172t-172 256t-62.5 314.5zM143 772q0 -141 53.5 -265t145.5 -214t215 -142.5 t262 -52.5q137 0 260 52.5t215 142.5t146.5 214t54.5 265q0 143 -54.5 266t-146.5 213t-215 142.5t-260 52.5q-139 0 -262 -52.5t-215 -142.5t-145.5 -213t-53.5 -266zM508 313v906h381q61 0 117.5 -10.5t99.5 -38t68.5 -73.5t25.5 -118q0 -68 -20.5 -114t-54 -75.5 t-77.5 -43t-90 -15.5l230 -418h-150l-231 418h-168v-418h-131zM639 862h139q45 0 96.5 -1t94.5 6t71.5 29t28.5 69q0 43 -16.5 67.5t-45 36.5t-65.5 15t-78 3h-225v-225z" />
<glyph unicode="&#xaf;" horiz-adv-x="1024" d="M143 1282v139h740v-139h-740z" />
<glyph unicode="&#xb0;" horiz-adv-x="819" d="M102 1270q0 63 24 118.5t65.5 97.5t98 66.5t120.5 24.5q63 0 118.5 -24.5t97.5 -66.5t66.5 -97.5t24.5 -118.5t-24.5 -119.5t-66.5 -97.5t-97.5 -65.5t-118.5 -24.5t-120 24.5t-97.5 65.5t-65.5 97t-25 120zM205 1270q0 -88 58.5 -146.5t146.5 -58.5q86 0 145 58.5 t59 146.5q0 43 -16 79.5t-44 64.5t-65.5 44.5t-80.5 16.5t-80 -16.5t-64.5 -44.5t-43 -64.5t-15.5 -79.5z" />
<glyph unicode="&#xb1;" d="M68 0v176h1048v-176h-1048zM68 621v176h436v354h176v-354h436v-176h-436v-355h-176v355h-436z" />
<glyph unicode="&#xb2;" horiz-adv-x="679" d="M33 1288q8 63 31.5 113.5t60.5 86.5t88 56.5t115 20.5q59 0 112.5 -21.5t93 -57.5t64.5 -87t25 -113q0 -51 -19.5 -100t-50.5 -90l-336 -373h406v-109h-557v109l362 391q14 20 28.5 38.5t27 40t20.5 44.5t8 43q0 39 -16.5 70.5t-41 55.5t-58.5 38t-68 14q-35 0 -67 -13 t-55.5 -37t-38.5 -54.5t-17 -65.5h-117z" />
<glyph unicode="&#xb3;" horiz-adv-x="661" d="M29 856h110q4 -35 20.5 -60.5t41 -46t55.5 -29.5t63 -9q39 0 71 13t56.5 37.5t37 58.5t12.5 71q0 45 -14.5 80t-41 57.5t-61.5 33.5t-78 9v94q37 0 69.5 8.5t58.5 24.5t40 45t14 70q0 35 -12 64.5t-34.5 51t-51.5 33t-63 11.5q-61 0 -102.5 -37t-51.5 -97h-113 q16 117 85 175.5t186 58.5q55 0 103 -17.5t85 -50t57.5 -79t20.5 -101.5q0 -70 -28.5 -123t-88.5 -86q70 -33 100.5 -94t30.5 -135q0 -66 -22.5 -117t-62.5 -87t-94 -54.5t-116 -18.5q-55 0 -104 16.5t-89 49.5t-63.5 78t-25.5 102z" />
<glyph unicode="&#xb4;" horiz-adv-x="737" d="M156 1163l186 250h240l-277 -250h-149z" />
<glyph unicode="&#xb5;" horiz-adv-x="1048" d="M119 -549v1507h184v-530q0 -57 9.5 -109.5t34 -92.5t67.5 -63.5t110 -23.5q68 0 111 23.5t67.5 63.5t33.5 92.5t9 109.5v530h185v-550q0 -98 -23.5 -179.5t-73 -139.5t-126 -90t-183.5 -32q-61 0 -120.5 28t-100.5 62v-606h-184z" />
<glyph unicode="&#xb6;" d="M84 1018q-6 92 23.5 186t88 170t142.5 123t186 47h578v-172h-125v-1685h-172v1685h-127v-1685h-172v893q-86 0 -161 29.5t-130 86t-89 137t-42 185.5z" />
<glyph unicode="&#xb7;" horiz-adv-x="591" d="M178 524q0 47 35 83t84 36t84 -36t35 -83q0 -49 -35 -83.5t-84 -34.5t-84 34.5t-35 83.5z" />
<glyph unicode="&#xb8;" horiz-adv-x="675" d="M176 -315l178 280l146 -59l-215 -277z" />
<glyph unicode="&#xb9;" horiz-adv-x="612" d="M104 1403l193 145h111v-936h-111v805l-129 -98z" />
<glyph unicode="&#xba;" horiz-adv-x="663" d="M0 754v98h666v-98h-666zM0 1270q0 66 25.5 122t70.5 97t105.5 64.5t130.5 23.5t131 -23.5t106 -64.5t71 -97.5t26 -121.5q0 -66 -26 -121t-71 -96t-106.5 -64.5t-130.5 -23.5q-70 0 -130.5 23.5t-105.5 64.5t-70.5 96t-25.5 121zM121 1270q0 -41 16.5 -77t45 -62.5 t66.5 -43t83 -16.5t84 16.5t67.5 43t45 62.5t16.5 77q0 84 -61.5 142t-151.5 58t-150.5 -58t-60.5 -142z" />
<glyph unicode="&#xbb;" horiz-adv-x="1071" d="M129 264l305 391l-305 408h174l313 -408l-313 -391h-174zM522 264l305 391l-305 408h176l312 -408l-312 -391h-176z" />
<glyph unicode="&#xbc;" horiz-adv-x="1775" d="M242 1403l192 145h111v-934h-111v803l-129 -98zM391 25l901 1552l105 -53l-901 -1557zM1020 283v108l436 590h123v-592h117v-108h-117v-281h-123v281zM1155 391l301 -2v389z" />
<glyph unicode="&#xbd;" horiz-adv-x="1775" d="M78 1403l192 145h111v-934h-111v803l-129 -98zM272 25l902 1552l104 -53l-901 -1557zM1081 684q8 63 32 114.5t61.5 88.5t90 57.5t115.5 20.5q61 0 115.5 -21.5t94.5 -58.5t64.5 -89.5t24.5 -113.5q0 -53 -18.5 -103.5t-50.5 -91.5l-340 -378h409v-109h-565v109l369 399 q14 18 29.5 37.5t26.5 41t19.5 44t8.5 47.5q0 37 -15.5 69.5t-41 56t-59.5 39t-71 15.5q-35 0 -66.5 -14.5t-56 -37t-40 -55t-17.5 -67.5h-119z" />
<glyph unicode="&#xbe;" horiz-adv-x="1775" d="M82 860h131q10 -70 58 -100.5t126 -30.5q74 0 130.5 44t56.5 120q0 80 -60.5 126t-146.5 42v119q86 0 139 33.5t53 103.5q0 35 -14 61.5t-38.5 44t-55.5 26.5t-62 9q-59 0 -106 -27.5t-47 -87.5h-137q18 115 94 174.5t200 59.5q59 0 113.5 -17.5t95.5 -49t64.5 -79 t23.5 -104.5q0 -68 -34.5 -121t-100.5 -88q74 -33 112 -93t38 -136q0 -66 -25.5 -117t-71 -87t-104.5 -55.5t-127 -19.5q-59 0 -112.5 17.5t-95.5 50.5t-68.5 79t-28.5 103zM506 25l901 1552l104 -53l-901 -1557zM965 135l628 834v-715h101v-119h-101v-135h-131v135h-497z M1204 254h258v336h-6z" />
<glyph unicode="&#xc0;" horiz-adv-x="1439" d="M-4 -2l676 1550h125l678 -1550h-209l-164 389h-735l-164 -389h-207zM442 563h584l-291 697zM508 1999h231l195 -250h-150z" />
<glyph unicode="&#xc1;" horiz-adv-x="1439" d="M-4 -2l676 1550h125l678 -1550h-209l-164 389h-735l-164 -389h-207zM442 563h584l-291 697zM508 1749l186 250h240l-277 -250h-149z" />
<glyph unicode="&#xc2;" horiz-adv-x="1439" d="M-4 -2l676 1550h125l678 -1550h-209l-164 389h-735l-164 -389h-207zM394 1792l325 297l330 -297l-121 -94l-209 197l-207 -197zM442 563h584l-291 697z" />
<glyph unicode="&#xc3;" horiz-adv-x="1439" d="M-4 -2l676 1550h125l678 -1550h-209l-164 389h-735l-164 -389h-207zM330 1841l6 11q20 31 42 58.5t48.5 49t58 34.5t72.5 13q53 0 97.5 -15t85.5 -38t76.5 -39t70.5 -16q45 0 77 31.5t54 66.5l96 -80q-35 -72 -95 -120t-146 -48q-43 0 -86 16.5t-84 37.5q-41 18 -80 34.5 t-80 16.5q-39 0 -69.5 -31t-47.5 -63zM442 563h584l-291 697z" />
<glyph unicode="&#xc4;" horiz-adv-x="1439" d="M-4 -2l676 1550h125l678 -1550h-209l-164 389h-735l-164 -389h-207zM381 1884q0 51 36 87t89 36q51 0 87 -35.5t36 -87.5q0 -53 -36 -88.5t-87 -35.5q-53 0 -89 35.5t-36 88.5zM442 563h584l-291 697zM813 1884q0 51 36 87t89 36q51 0 87 -35.5t36 -87.5 q0 -53 -35.5 -88.5t-87.5 -35.5q-53 0 -89 35.5t-36 88.5z" />
<glyph unicode="&#xc5;" horiz-adv-x="1439" d="M-4 -2l676 1550h125l678 -1550h-209l-164 389h-735l-164 -389h-207zM442 563h584l-291 697zM536 1903q0 78 53.5 132t131.5 54q39 0 72.5 -14t59 -40t40 -59.5t14.5 -72.5t-14.5 -73t-40 -58.5t-59 -38.5t-72.5 -14q-78 0 -131.5 53t-53.5 131zM628 1903q0 -39 28 -65.5 t65 -26.5q39 0 66.5 26.5t27.5 65.5t-27.5 66.5t-66.5 27.5q-37 0 -65 -27.5t-28 -66.5z" />
<glyph unicode="&#xc6;" horiz-adv-x="2041" d="M0 0l741 1544h676l78 -176h-633l187 -432h616l82 -176h-619l248 -584h637l78 -176h-831l-170 387h-703l-176 -387h-211zM469 563h549l-266 598z" />
<glyph unicode="&#xc7;" horiz-adv-x="1353" d="M65 776q0 170 64 311q66 152 174 256q109 109 258 175q152 63 313 63q162 0 313 -63q117 -51 213 -134l-129 -127q-70 55 -149 93q-111 51 -248 51q-139 0 -250 -51q-115 -49 -194 -136q-84 -84 -127 -198q-45 -111 -45 -240q0 -135 49 -248q51 -117 133 -196 q82 -82 196 -133q113 -47 238 -47q123 0 236 47q20 8 49.5 23.5t59.5 33.5t54.5 38.5t36.5 41.5l148 -123q-66 -63 -130.5 -106.5t-138.5 -73.5q-147 -61 -315 -62q-168 0 -315 62q-150 61 -258 168q-111 106 -172 256q-63 145 -64 319zM135 -315l178 280l146 -59l-215 -277 z" />
<glyph unicode="&#xc8;" horiz-adv-x="1067" d="M147 0v1548h832v-178h-639v-508h637v-178h-637v-508h639v-176h-832zM322 1999h231l195 -250h-150z" />
<glyph unicode="&#xc9;" horiz-adv-x="1067" d="M147 0v1548h832v-178h-639v-508h637v-178h-637v-508h639v-176h-832zM389 1749l186 250h240l-277 -250h-149z" />
<glyph unicode="&#xca;" horiz-adv-x="1067" d="M147 0v1548h832v-178h-639v-508h637v-178h-637v-508h639v-176h-832zM207 1792l325 297l330 -297l-121 -94l-209 197l-207 -197z" />
<glyph unicode="&#xcb;" horiz-adv-x="1067" d="M147 0v1548h832v-178h-639v-508h637v-178h-637v-508h639v-176h-832zM219 1884q0 51 36 87t89 36q51 0 87 -35.5t36 -87.5q0 -53 -36 -88.5t-87 -35.5q-53 0 -89 35.5t-36 88.5zM651 1884q0 51 36 87t89 36q51 0 87 -35.5t36 -87.5q0 -53 -35.5 -88.5t-87.5 -35.5 q-53 0 -89 35.5t-36 88.5z" />
<glyph unicode="&#xcc;" horiz-adv-x="475" d="M50 1999h231l195 -250h-150zM141 0v1544h193v-1544h-193z" />
<glyph unicode="&#xcd;" horiz-adv-x="475" d="M50 1749l186 250h240l-277 -250h-149zM141 0v1544h193v-1544h-193z" />
<glyph unicode="&#xce;" horiz-adv-x="475" d="M-65 1792l325 297l330 -297l-121 -94l-209 197l-207 -197zM141 0v1544h193v-1544h-193z" />
<glyph unicode="&#xcf;" horiz-adv-x="475" d="M-78 1884q0 51 36 87t89 36q51 0 87 -35.5t36 -87.5q0 -53 -36 -88.5t-87 -35.5q-53 0 -89 35.5t-36 88.5zM141 0v1544h193v-1544h-193zM354 1884q0 51 36 87t89 36q51 0 87 -35.5t36 -87.5q0 -53 -35.5 -88.5t-87.5 -35.5q-53 0 -89 35.5t-36 88.5z" />
<glyph unicode="&#xd0;" horiz-adv-x="1361" d="M0 741v181h131v622h320q178 0 334.5 -47t275.5 -142t187.5 -238.5t68.5 -336.5q0 -197 -67.5 -344t-185.5 -243.5t-277.5 -144.5t-342.5 -48h-313v741h-131zM324 176h67q147 0 280.5 30t234 99.5t159.5 184t59 282.5t-59 282.5t-159.5 184.5t-233.5 99.5t-281 29.5h-67 v-446h274v-181h-274v-565z" />
<glyph unicode="&#xd1;" horiz-adv-x="1607" d="M119 0v1546h196l908 -1218v1218h196v-1546h-190l-914 1225v-1225h-196zM414 1841l6 11q20 31 42 58.5t48.5 49t58 34.5t72.5 13q53 0 97.5 -15t85.5 -38t76.5 -39t70.5 -16q45 0 77 31.5t54 66.5l96 -80q-35 -72 -95 -120t-146 -48q-43 0 -86 16.5t-84 37.5 q-41 18 -80 34.5t-80 16.5q-39 0 -69.5 -31t-47.5 -63z" />
<glyph unicode="&#xd2;" horiz-adv-x="1695" d="M39 772q0 166 64.5 312.5t174 256t257 173t313.5 63.5t313.5 -63.5t257 -173t174 -256t64.5 -312.5q0 -172 -63.5 -319.5t-173 -255t-257 -169t-315.5 -61.5t-315.5 61.5t-257 169t-173 255t-63.5 319.5zM231 772q0 -133 49.5 -246.5t134.5 -197.5t196.5 -132.5 t236.5 -48.5t236.5 48.5t196.5 132.5t134 197.5t49 246.5q0 127 -45 240.5t-127 198.5t-195.5 135.5t-248.5 50.5t-249 -50.5t-195.5 -135.5t-127 -198.5t-45.5 -240.5zM635 1999h231l195 -250h-150z" />
<glyph unicode="&#xd3;" horiz-adv-x="1695" d="M39 772q0 166 64.5 312.5t174 256t257 173t313.5 63.5t313.5 -63.5t257 -173t174 -256t64.5 -312.5q0 -172 -63.5 -319.5t-173 -255t-257 -169t-315.5 -61.5t-315.5 61.5t-257 169t-173 255t-63.5 319.5zM231 772q0 -133 49.5 -246.5t134.5 -197.5t196.5 -132.5 t236.5 -48.5t236.5 48.5t196.5 132.5t134 197.5t49 246.5q0 127 -45 240.5t-127 198.5t-195.5 135.5t-248.5 50.5t-249 -50.5t-195.5 -135.5t-127 -198.5t-45.5 -240.5zM635 1749l186 250h240l-277 -250h-149z" />
<glyph unicode="&#xd4;" horiz-adv-x="1695" d="M39 772q0 166 64.5 312.5t174 256t257 173t313.5 63.5t313.5 -63.5t257 -173t174 -256t64.5 -312.5q0 -172 -63.5 -319.5t-173 -255t-257 -169t-315.5 -61.5t-315.5 61.5t-257 169t-173 255t-63.5 319.5zM231 772q0 -133 49.5 -246.5t134.5 -197.5t196.5 -132.5 t236.5 -48.5t236.5 48.5t196.5 132.5t134 197.5t49 246.5q0 127 -45 240.5t-127 198.5t-195.5 135.5t-248.5 50.5t-249 -50.5t-195.5 -135.5t-127 -198.5t-45.5 -240.5zM521 1792l325 297l330 -297l-121 -94l-209 197l-207 -197z" />
<glyph unicode="&#xd5;" horiz-adv-x="1695" d="M39 772q0 166 64.5 312.5t174 256t257 173t313.5 63.5t313.5 -63.5t257 -173t174 -256t64.5 -312.5q0 -172 -63.5 -319.5t-173 -255t-257 -169t-315.5 -61.5t-315.5 61.5t-257 169t-173 255t-63.5 319.5zM231 772q0 -133 49.5 -246.5t134.5 -197.5t196.5 -132.5 t236.5 -48.5t236.5 48.5t196.5 132.5t134 197.5t49 246.5q0 127 -45 240.5t-127 198.5t-195.5 135.5t-248.5 50.5t-249 -50.5t-195.5 -135.5t-127 -198.5t-45.5 -240.5zM457 1841l6 11q20 31 42 58.5t48.5 49t58 34.5t72.5 13q53 0 97.5 -15t85.5 -38t76.5 -39t70.5 -16 q45 0 77 31.5t54 66.5l96 -80q-35 -72 -95 -120t-146 -48q-43 0 -86 16.5t-84 37.5q-41 18 -80 34.5t-80 16.5q-39 0 -69.5 -31t-47.5 -63z" />
<glyph unicode="&#xd6;" horiz-adv-x="1695" d="M39 772q0 166 64.5 312.5t174 256t257 173t313.5 63.5t313.5 -63.5t257 -173t174 -256t64.5 -312.5q0 -172 -63.5 -319.5t-173 -255t-257 -169t-315.5 -61.5t-315.5 61.5t-257 169t-173 255t-63.5 319.5zM231 772q0 -133 49.5 -246.5t134.5 -197.5t196.5 -132.5 t236.5 -48.5t236.5 48.5t196.5 132.5t134 197.5t49 246.5q0 127 -45 240.5t-127 198.5t-195.5 135.5t-248.5 50.5t-249 -50.5t-195.5 -135.5t-127 -198.5t-45.5 -240.5zM508 1884q0 51 36 87t89 36q51 0 87 -35.5t36 -87.5q0 -53 -36 -88.5t-87 -35.5q-53 0 -89 35.5 t-36 88.5zM940 1884q0 51 36 87t89 36q51 0 87 -35.5t36 -87.5q0 -53 -35.5 -88.5t-87.5 -35.5q-53 0 -89 35.5t-36 88.5z" />
<glyph unicode="&#xd7;" d="M68 125l399 399l-399 400l122 125l402 -400l401 400l123 -125l-399 -400l399 -399l-123 -125l-401 399l-402 -399z" />
<glyph unicode="&#xd8;" horiz-adv-x="1695" d="M27 43l202 203q-96 106 -143 233t-47 293t64.5 312.5t174 256t257 173t313.5 63.5q143 0 285.5 -52t248.5 -153l205 205l82 -84l-205 -205q88 -111 140.5 -243t52.5 -273q0 -172 -63.5 -319.5t-173 -255t-257 -169t-315.5 -61.5q-160 0 -288 51.5t-245 143.5l-204 -205z M231 772q0 -111 34 -213t100 -188l884 876q-80 78 -185.5 115t-215.5 35q-135 0 -249 -50.5t-195.5 -135.5t-127 -198.5t-45.5 -240.5zM457 291q78 -76 179 -110t212 -34q125 0 236.5 48.5t196.5 132.5t134 197.5t49 246.5q0 215 -135 387z" />
<glyph unicode="&#xd9;" horiz-adv-x="1370" d="M121 567v977h192v-911q0 -94 16.5 -182.5t58.5 -156t114.5 -107.5t183.5 -40t183.5 40t114.5 107.5t58.5 156t16.5 182.5v911h192v-977q0 -127 -38.5 -236.5t-111.5 -190.5t-177.5 -127t-237.5 -46t-237.5 46t-177 127t-111.5 190.5t-39 236.5zM449 1999h231l195 -250 h-150z" />
<glyph unicode="&#xda;" horiz-adv-x="1370" d="M121 567v977h192v-911q0 -94 16.5 -182.5t58.5 -156t114.5 -107.5t183.5 -40t183.5 40t114.5 107.5t58.5 156t16.5 182.5v911h192v-977q0 -127 -38.5 -236.5t-111.5 -190.5t-177.5 -127t-237.5 -46t-237.5 46t-177 127t-111.5 190.5t-39 236.5zM473 1749l186 250h240 l-277 -250h-149z" />
<glyph unicode="&#xdb;" horiz-adv-x="1370" d="M121 567v977h192v-911q0 -94 16.5 -182.5t58.5 -156t114.5 -107.5t183.5 -40t183.5 40t114.5 107.5t58.5 156t16.5 182.5v911h192v-977q0 -127 -38.5 -236.5t-111.5 -190.5t-177.5 -127t-237.5 -46t-237.5 46t-177 127t-111.5 190.5t-39 236.5zM359 1792l325 297 l330 -297l-121 -94l-209 197l-207 -197z" />
<glyph unicode="&#xdc;" horiz-adv-x="1370" d="M121 567v977h192v-911q0 -94 16.5 -182.5t58.5 -156t114.5 -107.5t183.5 -40t183.5 40t114.5 107.5t58.5 156t16.5 182.5v911h192v-977q0 -127 -38.5 -236.5t-111.5 -190.5t-177.5 -127t-237.5 -46t-237.5 46t-177 127t-111.5 190.5t-39 236.5zM346 1884q0 51 36 87 t89 36q51 0 87 -35.5t36 -87.5q0 -53 -36 -88.5t-87 -35.5q-53 0 -89 35.5t-36 88.5zM778 1884q0 51 36 87t89 36q51 0 87 -35.5t36 -87.5q0 -53 -35.5 -88.5t-87.5 -35.5q-53 0 -89 35.5t-36 88.5z" />
<glyph unicode="&#xdd;" horiz-adv-x="1173" d="M-12 1544h221l379 -659l379 659h221l-504 -872v-672h-192v672zM457 1749l186 250h240l-277 -250h-149z" />
<glyph unicode="&#xde;" horiz-adv-x="1013" d="M147 0v1544h193v-287h29q178 0 297.5 -29.5t191.5 -87t102.5 -140t30.5 -189.5q0 -123 -43 -208t-116.5 -139t-172 -79t-208.5 -25h-111v-360h-193zM340 532h61q74 0 147 9.5t131 40t95 86t37 147.5q0 90 -39 144.5t-99.5 82t-135 35.5t-146.5 8h-51v-553z" />
<glyph unicode="&#xdf;" horiz-adv-x="1187" d="M57 791v172h82v303q0 117 23.5 215t77 169.5t140.5 111.5t214 40q94 0 175 -32.5t141.5 -91t94 -140.5t33.5 -178q0 -227 -196 -342q76 -25 135 -75t100 -116.5t62.5 -143.5t21.5 -155q0 -121 -47 -225t-127 -181t-185.5 -119t-223.5 -36v172q80 0 152.5 31t126.5 84 t87 124t33 150q0 88 -31 157t-85 117t-126.5 73.5t-156.5 31.5v180q59 0 109 21.5t87 59.5t58.5 90.5t21.5 111.5q0 57 -21.5 104.5t-57.5 82t-84 54t-103 19.5q-102 0 -155.5 -48t-78 -120.5t-27.5 -157.5t-3 -159v-1145h-185v791h-82z" />
<glyph unicode="&#xe0;" horiz-adv-x="1138" d="M55 475q0 111 41 206t112 163.5t167 107.5t207 39q66 0 132 -27.5t122 -66.5l20 64h164v-961h-164l-20 63q-63 -41 -128 -67.5t-137 -26.5q-106 0 -199 39t-164 106.5t-112 160t-41 200.5zM242 483q0 -74 24.5 -137t68.5 -108t104 -71t134 -26q80 0 144.5 31t118.5 90 v434q-109 123 -275 123q-68 0 -126 -27.5t-101 -73.5t-67.5 -107.5t-24.5 -127.5zM314 1413h231l195 -250h-150z" />
<glyph unicode="&#xe1;" horiz-adv-x="1138" d="M55 475q0 111 41 206t112 163.5t167 107.5t207 39q66 0 132 -27.5t122 -66.5l20 64h164v-961h-164l-20 63q-63 -41 -128 -67.5t-137 -26.5q-106 0 -199 39t-164 106.5t-112 160t-41 200.5zM242 483q0 -74 24.5 -137t68.5 -108t104 -71t134 -26q80 0 144.5 31t118.5 90 v434q-109 123 -275 123q-68 0 -126 -27.5t-101 -73.5t-67.5 -107.5t-24.5 -127.5zM383 1163l186 250h240l-277 -250h-149z" />
<glyph unicode="&#xe2;" horiz-adv-x="1138" d="M55 475q0 111 41 206t112 163.5t167 107.5t207 39q66 0 132 -27.5t122 -66.5l20 64h164v-961h-164l-20 63q-63 -41 -128 -67.5t-137 -26.5q-106 0 -199 39t-164 106.5t-112 160t-41 200.5zM242 483q0 -74 24.5 -137t68.5 -108t104 -71t134 -26q80 0 144.5 31t118.5 90 v434q-109 123 -275 123q-68 0 -126 -27.5t-101 -73.5t-67.5 -107.5t-24.5 -127.5zM242 1206l325 297l330 -297l-121 -94l-209 197l-207 -197z" />
<glyph unicode="&#xe3;" horiz-adv-x="1138" d="M55 475q0 111 41 206t112 163.5t167 107.5t207 39q66 0 132 -27.5t122 -66.5l20 64h164v-961h-164l-20 63q-63 -41 -128 -67.5t-137 -26.5q-106 0 -199 39t-164 106.5t-112 160t-41 200.5zM178 1255l6 11q20 31 42 58.5t48.5 49t58 34.5t72.5 13q53 0 97.5 -15t85.5 -38 t76.5 -39t70.5 -16q45 0 77 31.5t54 66.5l96 -80q-35 -72 -95 -120t-146 -48q-43 0 -86 16.5t-84 37.5q-41 18 -80 34.5t-80 16.5q-39 0 -69.5 -31t-47.5 -63zM242 483q0 -74 24.5 -137t68.5 -108t104 -71t134 -26q80 0 144.5 31t118.5 90v434q-109 123 -275 123 q-68 0 -126 -27.5t-101 -73.5t-67.5 -107.5t-24.5 -127.5z" />
<glyph unicode="&#xe4;" horiz-adv-x="1138" d="M55 475q0 111 41 206t112 163.5t167 107.5t207 39q66 0 132 -27.5t122 -66.5l20 64h164v-961h-164l-20 63q-63 -41 -128 -67.5t-137 -26.5q-106 0 -199 39t-164 106.5t-112 160t-41 200.5zM229 1298q0 51 36 87t89 36q51 0 87 -35.5t36 -87.5q0 -53 -36 -88.5t-87 -35.5 q-53 0 -89 35.5t-36 88.5zM242 483q0 -74 24.5 -137t68.5 -108t104 -71t134 -26q80 0 144.5 31t118.5 90v434q-109 123 -275 123q-68 0 -126 -27.5t-101 -73.5t-67.5 -107.5t-24.5 -127.5zM661 1298q0 51 36 87t89 36q51 0 87 -35.5t36 -87.5q0 -53 -35.5 -88.5t-87.5 -35.5 q-53 0 -89 35.5t-36 88.5z" />
<glyph unicode="&#xe5;" horiz-adv-x="1138" d="M55 475q0 111 41 206t112 163.5t167 107.5t207 39q66 0 132 -27.5t122 -66.5l20 64h164v-961h-164l-20 63q-63 -41 -128 -67.5t-137 -26.5q-106 0 -199 39t-164 106.5t-112 160t-41 200.5zM242 483q0 -74 24.5 -137t68.5 -108t104 -71t134 -26q80 0 144.5 31t118.5 90 v434q-109 123 -275 123q-68 0 -126 -27.5t-101 -73.5t-67.5 -107.5t-24.5 -127.5zM385 1317q0 78 53.5 132t131.5 54q39 0 72.5 -14t59 -40t40 -59.5t14.5 -72.5t-14.5 -73t-40 -58.5t-59 -38.5t-72.5 -14q-78 0 -131.5 53t-53.5 131zM477 1317q0 -39 28 -65.5t65 -26.5 q39 0 66.5 26.5t27.5 65.5t-27.5 66.5t-66.5 27.5q-37 0 -65 -27.5t-28 -66.5z" />
<glyph unicode="&#xe7;" horiz-adv-x="903" d="M51 471q0 109 40 203t108.5 162.5t162 107.5t201.5 39q115 0 212 -43t169 -121l-131 -129q-47 53 -110.5 85t-139.5 32q-68 0 -128 -26.5t-104 -72.5t-69.5 -106.5t-25.5 -130.5q0 -68 25.5 -128t69.5 -106.5t104.5 -73t127.5 -26.5q84 0 152.5 38t113.5 101l144 -118 q-72 -92 -176.5 -144.5t-233.5 -52.5q-109 0 -202 39t-161.5 107.5t-108.5 161.5t-40 202zM291 -315l178 280l146 -59l-215 -277z" />
<glyph unicode="&#xe8;" horiz-adv-x="1171" d="M43 473q0 111 39 203q39 88 108 162q35 35 76 61.5t88 44.5q92 39 203 39q109 0 201 -39q70 -29 125 -79t93 -117.5t56.5 -132t16.5 -175.5h-820q2 -33 9.5 -58.5t21.5 -53.5q27 -57 72 -99q47 -45 102 -67q57 -25 123 -25q84 0 156 41q66 35 110 101l181 -60 q-55 -102 -154 -168q-66 -45 -137 -65q-74 -25 -156 -25q-102 0 -203 39q-96 39 -164 109q-68 68 -108 161q-39 92 -39 203zM254 608h598q-23 76 -111 142q-78 57 -184 57q-104 0 -186 -57q-78 -55 -117 -142zM297 1413h231l195 -250h-150z" />
<glyph unicode="&#xe9;" horiz-adv-x="1140" d="M43 473q0 111 39 203q39 88 108 162q35 35 76 61.5t88 44.5q92 39 203 39q109 0 201 -39q70 -29 125 -79t93 -117.5t56.5 -132t16.5 -175.5h-820q2 -33 9.5 -58.5t21.5 -53.5q27 -57 72 -99q47 -45 102 -67q57 -25 123 -25q84 0 156 41q66 35 110 101l181 -60 q-55 -102 -154 -168q-66 -45 -137 -65q-74 -25 -156 -25q-102 0 -203 39q-96 39 -164 109q-68 68 -108 161q-39 92 -39 203zM254 608h598q-23 76 -111 142q-78 57 -184 57q-104 0 -186 -57q-78 -55 -117 -142zM371 1163l186 250h240l-277 -250h-149z" />
<glyph unicode="&#xea;" horiz-adv-x="1157" d="M43 473q0 111 39 203q39 88 108 162q35 35 76 61.5t88 44.5q92 39 203 39q109 0 201 -39q70 -29 125 -79t93 -117.5t56.5 -132t16.5 -175.5h-820q2 -33 9.5 -58.5t21.5 -53.5q27 -57 72 -99q47 -45 102 -67q57 -25 123 -25q84 0 156 41q66 35 110 101l181 -60 q-55 -102 -154 -168q-66 -45 -137 -65q-74 -25 -156 -25q-102 0 -203 39q-96 39 -164 109q-68 68 -108 161q-39 92 -39 203zM172 1206l325 297l330 -297l-121 -94l-209 197l-207 -197zM254 608h598q-23 76 -111 142q-78 57 -184 57q-104 0 -186 -57q-78 -55 -117 -142z" />
<glyph unicode="&#xeb;" horiz-adv-x="1157" d="M43 473q0 111 39 203q39 88 108 162q35 35 76 61.5t88 44.5q92 39 203 39q109 0 201 -39q70 -29 125 -79t93 -117.5t56.5 -132t16.5 -175.5h-820q2 -33 9.5 -58.5t21.5 -53.5q27 -57 72 -99q47 -45 102 -67q57 -25 123 -25q84 0 156 41q66 35 110 101l181 -60 q-55 -102 -154 -168q-66 -45 -137 -65q-74 -25 -156 -25q-102 0 -203 39q-96 39 -164 109q-68 68 -108 161q-39 92 -39 203zM159 1298q0 51 36 87t89 36q51 0 87 -35.5t36 -87.5q0 -53 -36 -88.5t-87 -35.5q-53 0 -89 35.5t-36 88.5zM254 608h598q-23 76 -111 142 q-78 57 -184 57q-104 0 -186 -57q-78 -55 -117 -142zM591 1298q0 51 36 87t89 36q51 0 87 -35.5t36 -87.5q0 -53 -35.5 -88.5t-87.5 -35.5q-53 0 -89 35.5t-36 88.5z" />
<glyph unicode="&#xec;" horiz-adv-x="520" d="M72 1413h231l195 -250h-150zM168 0v958h184v-958h-184z" />
<glyph unicode="&#xed;" horiz-adv-x="520" d="M72 1163l186 250h240l-277 -250h-149zM168 0v958h184v-958h-184z" />
<glyph unicode="&#xee;" horiz-adv-x="520" d="M-43 1206l325 297l330 -297l-121 -94l-209 197l-207 -197zM168 0v958h184v-958h-184z" />
<glyph unicode="&#xef;" horiz-adv-x="520" d="M-56 1298q0 51 36 87t89 36q51 0 87 -35.5t36 -87.5q0 -53 -36 -88.5t-87 -35.5q-53 0 -89 35.5t-36 88.5zM168 0v958h184v-958h-184zM376 1298q0 51 36 87t89 36q51 0 87 -35.5t36 -87.5q0 -53 -35.5 -88.5t-87.5 -35.5q-53 0 -89 35.5t-36 88.5z" />
<glyph unicode="&#xf0;" horiz-adv-x="1105" d="M-23 1274l324 186l-207 228l160 90l207 -228l299 170l100 -110l-297 -172q37 -45 81 -102.5t88 -121t88 -129t81 -127.5q66 -104 115 -230t49 -251q0 -117 -40 -211t-108.5 -160.5t-163 -102.5t-200.5 -36q-109 0 -202 39t-161.5 107.5t-108.5 162t-40 201.5 q0 109 40 202t108.5 161.5t161.5 107.5t202 39q41 0 73.5 -8t61.5 -21l4 5q-27 41 -65.5 98t-79.5 112.5t-80 103.5t-64 71l-323 -187zM225 477q0 -68 25.5 -128t70 -106t104.5 -73t128 -27t128 27t104 73t70 106.5t26 127.5q0 68 -26 129.5t-70 106.5t-104 71.5t-128 26.5 t-128 -26.5t-104.5 -71.5t-70 -106.5t-25.5 -129.5z" />
<glyph unicode="&#xf1;" horiz-adv-x="1071" d="M127 -2v960h174l12 -84q72 55 137.5 84t139.5 29q102 0 170.5 -31.5t106.5 -88t53.5 -133.5t15.5 -165v-571h-186v549q0 61 -6.5 112.5t-29 88t-64.5 56t-107 23.5q-90 -2 -146.5 -37.5t-83.5 -80.5v-711h-186zM145 1255l6 11q20 31 42 58.5t48.5 49t58 34.5t72.5 13 q53 0 97.5 -15t85.5 -38t76.5 -39t70.5 -16q45 0 77 31.5t54 66.5l96 -80q-35 -72 -95 -120t-146 -48q-43 0 -86 16.5t-84 37.5q-41 18 -80 34.5t-80 16.5q-39 0 -69.5 -31t-47.5 -63z" />
<glyph unicode="&#xf2;" horiz-adv-x="1105" d="M41 477q0 109 40 202t108.5 161.5t161.5 107.5t202 39q106 0 200.5 -39t163 -107.5t108.5 -161.5t40 -202t-40 -202t-108.5 -161.5t-163 -107.5t-200.5 -39q-109 0 -202 39t-161.5 107.5t-108.5 162t-40 201.5zM225 477q0 -68 25.5 -128t70 -106t104.5 -73t128 -27 t128 27t104 73t70 106.5t26 127.5q0 68 -26 129.5t-70 106.5t-104 71.5t-128 26.5t-128 -26.5t-104.5 -71.5t-70 -106.5t-25.5 -129.5zM252 1413h231l195 -250h-150z" />
<glyph unicode="&#xf3;" horiz-adv-x="1105" d="M41 477q0 109 40 202t108.5 161.5t161.5 107.5t202 39q106 0 200.5 -39t163 -107.5t108.5 -161.5t40 -202t-40 -202t-108.5 -161.5t-163 -107.5t-200.5 -39q-109 0 -202 39t-161.5 107.5t-108.5 162t-40 201.5zM225 477q0 -68 25.5 -128t70 -106t104.5 -73t128 -27 t128 27t104 73t70 106.5t26 127.5q0 68 -26 129.5t-70 106.5t-104 71.5t-128 26.5t-128 -26.5t-104.5 -71.5t-70 -106.5t-25.5 -129.5zM377 1163l186 250h240l-277 -250h-149z" />
<glyph unicode="&#xf4;" horiz-adv-x="1105" d="M41 477q0 109 40 202t108.5 161.5t161.5 107.5t202 39q106 0 200.5 -39t163 -107.5t108.5 -161.5t40 -202t-40 -202t-108.5 -161.5t-163 -107.5t-200.5 -39q-109 0 -202 39t-161.5 107.5t-108.5 162t-40 201.5zM225 477q0 -68 25.5 -128t70 -106t104.5 -73t128 -27 t128 27t104 73t70 106.5t26 127.5q0 68 -26 129.5t-70 106.5t-104 71.5t-128 26.5t-128 -26.5t-104.5 -71.5t-70 -106.5t-25.5 -129.5zM226 1206l325 297l330 -297l-121 -94l-209 197l-207 -197z" />
<glyph unicode="&#xf5;" horiz-adv-x="1105" d="M41 477q0 109 40 202t108.5 161.5t161.5 107.5t202 39q106 0 200.5 -39t163 -107.5t108.5 -161.5t40 -202t-40 -202t-108.5 -161.5t-163 -107.5t-200.5 -39q-109 0 -202 39t-161.5 107.5t-108.5 162t-40 201.5zM162 1255l6 11q20 31 42 58.5t48.5 49t58 34.5t72.5 13 q53 0 97.5 -15t85.5 -38t76.5 -39t70.5 -16q45 0 77 31.5t54 66.5l96 -80q-35 -72 -95 -120t-146 -48q-43 0 -86 16.5t-84 37.5q-41 18 -80 34.5t-80 16.5q-39 0 -69.5 -31t-47.5 -63zM225 477q0 -68 25.5 -128t70 -106t104.5 -73t128 -27t128 27t104 73t70 106.5t26 127.5 q0 68 -26 129.5t-70 106.5t-104 71.5t-128 26.5t-128 -26.5t-104.5 -71.5t-70 -106.5t-25.5 -129.5z" />
<glyph unicode="&#xf6;" horiz-adv-x="1105" d="M41 477q0 109 40 202t108.5 161.5t161.5 107.5t202 39q106 0 200.5 -39t163 -107.5t108.5 -161.5t40 -202t-40 -202t-108.5 -161.5t-163 -107.5t-200.5 -39q-109 0 -202 39t-161.5 107.5t-108.5 162t-40 201.5zM213 1298q0 51 36 87t89 36q51 0 87 -35.5t36 -87.5 q0 -53 -36 -88.5t-87 -35.5q-53 0 -89 35.5t-36 88.5zM225 477q0 -68 25.5 -128t70 -106t104.5 -73t128 -27t128 27t104 73t70 106.5t26 127.5q0 68 -26 129.5t-70 106.5t-104 71.5t-128 26.5t-128 -26.5t-104.5 -71.5t-70 -106.5t-25.5 -129.5zM645 1298q0 51 36 87t89 36 q51 0 87 -35.5t36 -87.5q0 -53 -35.5 -88.5t-87.5 -35.5q-53 0 -89 35.5t-36 88.5z" />
<glyph unicode="&#xf7;" d="M68 436v176h1048v-176h-1048zM465 125q0 53 37 91t90 38t90 -38t37 -91t-37 -89t-90 -36t-90 36t-37 89zM465 920q0 53 37 91t90 38t90 -38t37 -91t-37 -89t-90 -36t-90 35.5t-37 89.5z" />
<glyph unicode="&#xf8;" horiz-adv-x="1105" d="M31 18l125 127q-53 76 -84 156t-31 176q0 109 40 202t108.5 161.5t161.5 107.5t202 39q86 0 173 -30.5t153 -88.5l135 138l63 -66l-133 -131q53 -72 87 -157t34 -175q0 -109 -40 -202t-108.5 -161.5t-163 -107.5t-200.5 -39q-98 0 -179 29t-155 90l-125 -131zM225 477 q0 -59 16.5 -107t49.5 -96l457 469q-86 68 -195 68q-68 0 -128 -26.5t-104.5 -71.5t-70 -106.5t-25.5 -129.5zM354 209q45 -37 92.5 -51.5t106.5 -14.5q68 0 128 27t104 73t70 106.5t26 127.5q0 57 -19.5 109.5t-52.5 89.5z" />
<glyph unicode="&#xf9;" horiz-adv-x="1048" d="M119 408v550h184v-530q0 -57 9.5 -109.5t34 -92.5t67.5 -63.5t110 -23.5q68 0 111 23.5t67.5 63.5t33.5 92.5t9 109.5v530h185v-550q0 -98 -23.5 -179.5t-73 -139.5t-126 -90t-183.5 -32q-106 0 -183 32t-126 90t-72.5 139t-23.5 180zM256 1413h231l195 -250h-150z" />
<glyph unicode="&#xfa;" horiz-adv-x="1048" d="M119 408v550h184v-530q0 -57 9.5 -109.5t34 -92.5t67.5 -63.5t110 -23.5q68 0 111 23.5t67.5 63.5t33.5 92.5t9 109.5v530h185v-550q0 -98 -23.5 -179.5t-73 -139.5t-126 -90t-183.5 -32q-106 0 -183 32t-126 90t-72.5 139t-23.5 180zM363 1163l186 250h240l-277 -250 h-149z" />
<glyph unicode="&#xfb;" horiz-adv-x="1048" d="M119 408v550h184v-530q0 -57 9.5 -109.5t34 -92.5t67.5 -63.5t110 -23.5q68 0 111 23.5t67.5 63.5t33.5 92.5t9 109.5v530h185v-550q0 -98 -23.5 -179.5t-73 -139.5t-126 -90t-183.5 -32q-106 0 -183 32t-126 90t-72.5 139t-23.5 180zM197 1206l325 297l330 -297 l-121 -94l-209 197l-207 -197z" />
<glyph unicode="&#xfc;" horiz-adv-x="1048" d="M119 408v550h184v-530q0 -57 9.5 -109.5t34 -92.5t67.5 -63.5t110 -23.5q68 0 111 23.5t67.5 63.5t33.5 92.5t9 109.5v530h185v-550q0 -98 -23.5 -179.5t-73 -139.5t-126 -90t-183.5 -32q-106 0 -183 32t-126 90t-72.5 139t-23.5 180zM184 1298q0 51 36 87t89 36 q51 0 87 -35.5t36 -87.5q0 -53 -36 -88.5t-87 -35.5q-53 0 -89 35.5t-36 88.5zM616 1298q0 51 36 87t89 36q51 0 87 -35.5t36 -87.5q0 -53 -35.5 -88.5t-87.5 -35.5q-53 0 -89 35.5t-36 88.5z" />
<glyph unicode="&#xfd;" horiz-adv-x="991" d="M-27 958h215l324 -608l301 608h207l-776 -1507h-209l377 713zM283 1163l186 250h240l-277 -250h-149z" />
<glyph unicode="&#xfe;" horiz-adv-x="1138" d="M113 -549v2327h184v-979h4q57 86 141 137t193 51q104 0 187 -42t141.5 -110.5t90 -159.5t31.5 -190q0 -102 -30.5 -196t-89 -166t-143.5 -114t-195 -42q-102 0 -186.5 50.5t-139.5 132.5h-4v-699h-184zM287 479q0 -68 20.5 -130t58 -111.5t94 -78t130.5 -28.5 q76 0 133 27.5t97 76t60.5 111t20.5 133.5q0 70 -20.5 132.5t-60.5 109.5t-98 74.5t-132 27.5q-72 0 -128 -28.5t-95 -76.5t-59.5 -109.5t-20.5 -129.5z" />
<glyph unicode="&#xff;" horiz-adv-x="991" d="M-27 958h215l324 -608l301 608h207l-776 -1507h-209l377 713zM155 1298q0 51 36 87t89 36q51 0 87 -35.5t36 -87.5q0 -53 -36 -88.5t-87 -35.5q-53 0 -89 35.5t-36 88.5zM587 1298q0 51 36 87t89 36q51 0 87 -35.5t36 -87.5q0 -53 -35.5 -88.5t-87.5 -35.5 q-53 0 -89 35.5t-36 88.5z" />
<glyph unicode="&#x152;" horiz-adv-x="2340" d="M39 772q0 166 64.5 312.5t174 256t257 173t313.5 63.5q88 -4 176 -23.5t170 -57.5t151.5 -93t120.5 -129h4v270h809v-176h-634v-432h616v-176h-616v-584h634v-176h-809v258h-4q-104 -141 -268 -217t-350 -74q-168 0 -315.5 61.5t-257 169t-173 255t-63.5 319.5zM231 772 q0 -133 49.5 -246.5t134.5 -197.5t196.5 -132.5t236.5 -48.5t236.5 48.5t196.5 132.5t134 197.5t49 246.5q0 127 -45 240.5t-127 198.5t-195.5 135.5t-248.5 50.5t-249 -50.5t-195.5 -135.5t-127 -198.5t-45.5 -240.5z" />
<glyph unicode="&#x153;" horiz-adv-x="1929" d="M0 481q0 109 40 202t109.5 161.5t163 107.5t201.5 39q135 0 245.5 -59.5t180.5 -161.5q70 102 180.5 161.5t245.5 59.5q106 0 200.5 -39t164 -107.5t109.5 -161.5t40 -202v-26h-842q6 -63 33 -119.5t71 -98.5t101 -67t123 -25q86 0 155.5 40t114.5 106l176 -72 q4 0 -43 -59.5t-108.5 -101.5t-137 -65.5t-157.5 -23.5q-135 0 -245.5 59.5t-180.5 161.5q-70 -102 -180.5 -161.5t-245.5 -59.5q-109 0 -202 39t-162.5 107.5t-109.5 163t-40 202.5zM186 481q0 -68 26 -129t70 -107t104 -73t128 -27t128 27t104.5 73t70 107.5t25.5 128.5 q0 68 -25.5 129.5t-70 106.5t-104.5 71.5t-128 26.5t-128 -26.5t-104 -71.5t-70 -106.5t-26 -129.5zM1063 608h606q-37 92 -118 149.5t-185 57.5t-185 -57.5t-118 -149.5z" />
<glyph unicode="&#x178;" horiz-adv-x="1173" d="M-12 1544h221l379 -659l379 659h221l-504 -872v-672h-192v672zM247 1884q0 51 36 87t89 36q51 0 87 -35.5t36 -87.5q0 -53 -36 -88.5t-87 -35.5q-53 0 -89 35.5t-36 88.5zM679 1884q0 51 36 87t89 36q51 0 87 -35.5t36 -87.5q0 -53 -35.5 -88.5t-87.5 -35.5 q-53 0 -89 35.5t-36 88.5z" />
<glyph unicode="&#x2c6;" horiz-adv-x="962" d="M154 1206l325 297l330 -297l-121 -94l-209 197l-207 -197z" />
<glyph unicode="&#x2dc;" horiz-adv-x="1044" d="M131 1255l6 11q20 31 42 58.5t48.5 49t58 34.5t72.5 13q53 0 97.5 -15t85.5 -38t76.5 -39t70.5 -16q45 0 77 31.5t54 66.5l96 -80q-35 -72 -95 -120t-146 -48q-43 0 -86 16.5t-84 37.5q-41 18 -80 34.5t-80 16.5q-39 0 -69.5 -31t-47.5 -63z" />
<glyph unicode="&#x2000;" horiz-adv-x="1044" />
<glyph unicode="&#x2001;" horiz-adv-x="2089" />
<glyph unicode="&#x2002;" horiz-adv-x="1044" />
<glyph unicode="&#x2003;" horiz-adv-x="2089" />
<glyph unicode="&#x2004;" horiz-adv-x="696" />
<glyph unicode="&#x2005;" horiz-adv-x="522" />
<glyph unicode="&#x2006;" horiz-adv-x="348" />
<glyph unicode="&#x2007;" horiz-adv-x="348" />
<glyph unicode="&#x2008;" horiz-adv-x="261" />
<glyph unicode="&#x2009;" horiz-adv-x="417" />
<glyph unicode="&#x200a;" horiz-adv-x="116" />
<glyph unicode="&#x2010;" horiz-adv-x="679" d="M117 463v153h448v-153h-448z" />
<glyph unicode="&#x2011;" horiz-adv-x="679" d="M117 463v153h448v-153h-448z" />
<glyph unicode="&#x2012;" horiz-adv-x="679" d="M117 463v153h448v-153h-448z" />
<glyph unicode="&#x2013;" horiz-adv-x="1093" d="M0 463v153h1024v-153h-1024z" />
<glyph unicode="&#x2014;" horiz-adv-x="2138" d="M0 463v153h2048v-153h-2048z" />
<glyph unicode="&#x2018;" horiz-adv-x="567" d="M123 1030l246 504l141 -4l-195 -500h-192z" />
<glyph unicode="&#x2019;" horiz-adv-x="567" d="M57 1014l199 499h188l-254 -499h-133z" />
<glyph unicode="&#x201a;" horiz-adv-x="567" d="M111 -319l225 563l160 -64l-273 -547z" />
<glyph unicode="&#x201c;" horiz-adv-x="899" d="M123 1030l272 547l115 -47l-225 -563zM463 1030l272 547l115 -47l-225 -563z" />
<glyph unicode="&#x201d;" horiz-adv-x="899" d="M49 1014l197 499h190l-248 -499h-139zM389 1014l201 502l186 -3l-252 -501z" />
<glyph unicode="&#x201e;" horiz-adv-x="899" d="M102 -319l226 563l159 -64l-272 -547zM442 -319l226 563l159 -64l-272 -547z" />
<glyph unicode="&#x2022;" d="M207 772q0 80 29.5 150.5t82 123t123 83t150.5 30.5t150.5 -30.5t123 -83t83 -123t30.5 -150.5t-30.5 -150.5t-84 -123t-123 -82t-149.5 -29.5t-149.5 29.5t-122 82t-83 123t-30.5 150.5z" />
<glyph unicode="&#x2026;" horiz-adv-x="2048" d="M221 86q0 47 35 83t84 36t84 -36t35 -83q0 -49 -35 -84t-84 -35t-84 35t-35 84zM905 86q0 47 35 83t84 36t84 -36t35 -83q0 -49 -35 -84t-84 -35t-84 35t-35 84zM1589 86q0 47 35 83t84 36t84 -36t35 -83q0 -49 -35 -84t-84 -35t-84 35t-35 84z" />
<glyph unicode="&#x202f;" horiz-adv-x="417" />
<glyph unicode="&#x2039;" horiz-adv-x="688" d="M45 655l373 492l114 -84l-305 -408l305 -391l-114 -84z" />
<glyph unicode="&#x203a;" horiz-adv-x="688" d="M156 264l305 391l-305 408l114 84l373 -492l-373 -475z" />
<glyph unicode="&#x205f;" horiz-adv-x="522" />
<glyph unicode="&#x2122;" horiz-adv-x="1925" d="M70 1413v131h696v-131h-283v-731h-131v731h-282zM924 682v862h215l247 -608l256 608h213v-862h-131v731h-4l-295 -731h-79l-287 731h-4v-731h-131z" />
<glyph unicode="&#x25fc;" horiz-adv-x="962" d="M0 0v963h963v-963h-963z" />
<glyph unicode="&#xfb01;" horiz-adv-x="1210" d="M0 786v172h158l2 33q0 16 3 58.5t15 93.5t37 105.5t70 97.5q8 8 40.5 32.5t89 42t135.5 18.5t181 -36l-69 -154q-63 25 -110.5 22t-80.5 -18q-37 -16 -63 -47q-25 -31 -38.5 -66.5t-17.5 -68.5q-4 -37 -6 -113h336v-172h-336v-782v-4h-188v786h-158zM821 1397q0 53 37 91 t90 38t90 -38t37 -91t-37 -89t-90 -36t-90 35.5t-37 89.5zM856 0v958h184v-958h-184z" />
<glyph unicode="&#xfb02;" horiz-adv-x="1099" d="M0 786v172h158l2 33q0 16 3 58.5t15 93.5t37 105.5t70 97.5q8 8 40.5 32.5t89 42t135.5 18.5t181 -36l-69 -154q-63 25 -110.5 22t-80.5 -18q-37 -16 -63 -47q-25 -31 -38.5 -66.5t-17.5 -68.5q-4 -37 -6 -113h336v-172h-336v-782v-4h-188v786h-158zM778 0v1544h185 v-1544h-185z" />
</font>
</defs>
</svg>
