<?xml version="1.0" encoding="utf-8"?>
<!-- Generator: Adobe Illustrator 18.1.1, SVG Export Plug-In . SVG Version: 6.00 Build 0)  -->
<svg version="1.1" xmlns="http://www.w3.org/2000/svg" x="0px" y="0px" viewBox="-291 380 29.1 33">
<path d="M-271.6,396.6l8.5-10.1c0.7-0.8,1.1-1.7,1.1-2.7c0-1.1-0.4-2-1.1-2.7c-0.7-0.7-1.6-1-2.7-1c-1,0-1.9,0.3-2.7,1
	l-8.2,9.7l-8.2-9.7c-0.7-0.7-1.6-1-2.7-1c-1,0-1.9,0.3-2.7,1c-0.7,0.8-1,1.7-1,2.7c0,1.1,0.3,2,1,2.7l8.5,10.1l-8.5,9.9
	c-0.7,0.8-1,1.7-1,2.7c0,1.1,0.3,2,1,2.7c0.7,0.7,1.6,1,2.7,1c1,0,1.9-0.3,2.7-1l8.2-9.7l8.2,9.7c0.7,0.7,1.6,1,2.7,1
	c1,0,1.9-0.3,2.7-1c0.7-0.8,1.1-1.7,1.1-2.7c0-1.1-0.4-2-1.1-2.7L-271.6,396.6z"/>
</svg>
