<?xml version="1.0" encoding="utf-8"?>
<!-- Generator: Adobe Illustrator 18.1.1, SVG Export Plug-In . SVG Version: 6.00 Build 0)  -->
<!DOCTYPE svg PUBLIC "-//W3C//DTD SVG 1.1//EN" "http://www.w3.org/Graphics/SVG/1.1/DTD/svg11.dtd" [
	<!ENTITY st0 "fill:#DB5931;">
	<!ENTITY st1 "fill:#FFFDFD;">
	<!ENTITY st2 "fill:#FFA037;">
]>
<svg version="1.1" id="Layer_1" xmlns="http://www.w3.org/2000/svg" xmlns:xlink="http://www.w3.org/1999/xlink" x="0px" y="0px"
	 viewBox="0 0 730 126" style="enable-background:new 0 0 730 126;" xml:space="preserve">
<g>
	<g>
		<path style="&st0;" d="M67.2,95.3L64,109.7c0,0.1-0.1,0.2-0.1,0.5c0,0-0.1,0-0.1,0.1s0,0.2-0.1,0.2c0,0.1,0,0.2-0.1,0.2v0.1
			l-0.2,0.4c0,0,0,0.1-0.1,0.1v0.1c-0.1,0-0.1,0-0.1,0.1l-0.4,0.4h-0.1l-0.5,0.4h-0.1l-0.5,0.2c-0.2,0-0.4,0.1-0.6,0.1h-0.2
			c-0.1,0-0.4,0.1-0.6,0.1H43.2c-1.4,0-2.5-0.5-3.2-1.3L29.4,98.3h0.1l0.5,0.5c0.1,0.1,0.2,0.2,0.5,0.2c0,0.1,0,0.1,0.1,0.1
			s0.2,0.1,0.5,0.2c0.2,0,0.5,0.1,0.7,0.1h18.6c0.1,0,0.2-0.1,0.4-0.1H51l0.6-0.2l0.1-0.1l0.4-0.2l0.1-0.1l0.4-0.2
			c0-0.1,0-0.1,0.1-0.1v-0.1c0.1-0.1,0.2-0.2,0.2-0.4l0.1-0.1c0,0,0-0.1,0.1-0.2v-0.1c0.1-0.1,0.1-0.1,0.1-0.2V97
			c0.1-0.1,0.2-0.4,0.2-0.6l6.2-27.8L65,92.4C65.4,93.9,66.1,94.8,67.2,95.3z M29.4,98.3v-0.1V98.3z M34.7,16.8V17V16.8z M34.8,17
			v0.1L34.7,17H34.8z M34.8,17.1c3.4,4.3,7.3,8.8,10.8,13.1l0.2,0.4v0.1c0.1,0.1,0.1,0.1,0.1,0.2l0.1,0.1c0,0.1,0.1,0.2,0.1,0.4v0.2
			l-4.9,29.6l-5.9-42.6c0-0.1-0.1-0.2-0.1-0.5c0,0,0-0.1-0.1-0.2c0-0.1,0-0.2-0.1-0.4v-0.1c-0.1-0.1-0.1-0.2-0.2-0.2V17.1z
			 M68.9,98.3v-0.1l0.1,0.1H68.9z M118.3,32.8l-14.9,76.9c0,0.2-0.1,0.4-0.1,0.6c0,0.1-0.1,0.1-0.1,0.2s-0.1,0.2-0.1,0.4
			c-0.1,0.1-0.1,0.2-0.2,0.2c0,0.1,0,0.2-0.1,0.2v0.1c-0.1,0-0.1,0-0.1,0.1l-0.4,0.4h-0.1l-0.5,0.4h-0.1l-0.5,0.2h-0.1
			c-0.1,0-0.4,0.1-0.6,0.1h-0.1c-0.2,0-0.5,0.1-0.7,0.1H82.6c-0.4,0-0.7-0.1-1-0.1c-1-0.1-1.7-0.6-2.2-1.2L69,98.3l0.4,0.4
			c0,0,0,0.1,0.1,0.1c0.1,0.1,0.2,0.2,0.4,0.2l0.1,0.1c0.2,0,0.4,0.1,0.5,0.1l0.1,0.1c0.2,0,0.4,0.1,0.6,0.1h18.6
			c0.2,0,0.5-0.1,0.7-0.1l0.5-0.2c0,0,0.1,0,0.1-0.1h0.1l0.5-0.4h0.1l0.4-0.4c0-0.1,0.1-0.2,0.1-0.4l0.2-0.2c0-0.1,0.1-0.2,0.1-0.5
			c0.1,0,0.1,0,0.1-0.1c0.1-0.2,0.1-0.5,0.1-0.7l14.9-76.9v-0.2c0-0.1,0.1-0.1,0.1-0.2v-1.1c0-0.1-0.1-0.2-0.1-0.4v-0.1
			c0-0.1-0.1-0.1-0.1-0.2c-0.1-0.1-0.1-0.2-0.2-0.2v-0.1c0,0-0.1-0.1-0.1-0.2c3.5,4.4,7.1,8.9,10.7,13.2c0,0.1,0.1,0.2,0.1,0.4
			c0.1,0.1,0.1,0.1,0.1,0.2l0.1,0.1v0.4c0.1,0,0.1,0.1,0.1,0.2v1.6C118.3,32.7,118.3,32.7,118.3,32.8z M69.2,16.8
			c3.5,4.4,7.3,8.9,10.9,13.3c0.4,0.5,0.6,1.1,0.7,1.8l0.1,1l-4.2,28.6L70,18.6c0-0.1,0-0.4-0.1-0.5V18l-0.2-0.5v-0.1l-0.2-0.4
			C69.2,17,69.2,17,69.2,16.8z"/>
		<path style="&st0;" d="M116.2,98.3l0.1,0.1C116.3,98.4,116.2,98.4,116.2,98.3z M116.5,98.7l-0.2-0.2l0.2,0.4V98.7z M151.7,73.4
			h-12.6c-0.1,0.1-0.2,0.1-0.2,0.1h-0.5c0,0.1-0.1,0.1-0.1,0.1H138c0,0.1-0.1,0.1-0.1,0.1c-0.1,0-0.1,0-0.2,0.1h-0.1
			c0,0.1-0.1,0.1-0.1,0.1c-0.1,0-0.1,0.1-0.1,0.1c-0.1,0-0.2,0.1-0.2,0.2h-0.1c0,0.1-0.1,0.1-0.1,0.2h-0.1c0,0.1-0.1,0.2-0.2,0.4V75
			c-0.1,0.1-0.1,0.2-0.1,0.4l-0.1,0.1c0,0.1,0,0.4-0.1,0.5v19.9c0,1.1-0.2,1.8-0.7,2.4l-0.2,0.2c0,0.1-0.1,0.1-0.1,0.1l-0.2,0.2
			c-0.1,0-0.1,0.1-0.2,0.1c0,0-0.1,0-0.1,0.1c-0.2,0.1-0.6,0.2-1,0.2l-0.1,0.1h-15.1l-0.1-0.1h-0.4c-0.1-0.1-0.2-0.1-0.2-0.1
			c-0.1,0-0.1,0-0.1-0.1h-0.2c0-0.1-0.1-0.1-0.1-0.1c-0.1,0-0.1-0.1-0.2-0.1l-0.1-0.1h-0.1l10,12.8c0.6,0.7,1.6,1.1,2.9,1.1H144
			c0.1-0.1,0.1-0.1,0.2-0.1h0.1c0.1,0,0.2-0.1,0.2-0.1h0.1c0.1-0.1,0.1-0.1,0.2-0.1l0.1-0.1c0.1,0,0.1,0,0.1-0.1h0.1l0.2-0.2h0.1
			c0-0.1,0.1-0.1,0.1-0.2h0.1c0-0.1,0.1-0.4,0.2-0.5l0.2-0.5c0-0.1,0-0.4,0.1-0.5v-20c0,0,0-0.1,0.1-0.2v-0.7
			c0.1-0.1,0.1-0.2,0.1-0.5l0.2-0.5l0.2-0.4v-0.1c0.1-0.1,0.2-0.1,0.2-0.2l0.4-0.2c0.1-0.1,0.2-0.1,0.2-0.2h0.1
			c0.1,0,0.1-0.1,0.2-0.1h0.1c0.1-0.1,0.1-0.1,0.2-0.1h0.1c0.1,0,0.1-0.1,0.2-0.1h0.6c0.1,0,0.2-0.1,0.5-0.1h1.4V73.4z M135.6,17
			c-0.1,0-0.1-0.1-0.2-0.2l0.2,0.5V17z M135.7,17.3c0.1,0,0.1,0.1,0.1,0.2c0,0.1,0.1,0.1,0.1,0.2s0.1,0.2,0.1,0.5v0.2
			c0,0.2,0.1,0.4,0,0.6v29.6h10.7V31.5c0-0.1-0.1-0.2-0.1-0.5l-0.2-0.5v-0.1l-0.4-0.5l-10.3-12.7V17.3z M155.5,98.3
			c0,0.1,0.1,0.2,0.1,0.2C155.6,98.4,155.5,98.4,155.5,98.3z M155.8,98.6h-0.1l0.1,0.1V98.6z M155.9,98.7h-0.1l0.1,0.1V98.7z
			 M185.9,31.6v-0.2c0-0.4-0.1-0.6-0.2-1c0,0-0.1,0-0.1-0.1s-0.1-0.2-0.2-0.4l-10.4-13c0,0.1,0.1,0.1,0.1,0.1l0.1,0.1
			c0,0.1,0,0.2,0.1,0.2v0.2c0.1,0.1,0.1,0.2,0.1,0.4s0,0.2,0.1,0.4v78.2l-0.1,0.1V97c0,0.1,0,0.2-0.1,0.5c0,0.1-0.1,0.2-0.1,0.4
			c0,0-0.1,0-0.1,0.1c-0.2,0.5-0.6,0.8-1,1.1h-0.1c-0.1,0.1-0.4,0.2-0.6,0.2v0.1h-0.4c-0.1,0-0.1,0.1-0.2,0.1h-15.1
			c-0.1,0-0.1-0.1-0.2-0.1H157c0-0.1-0.1-0.1-0.1-0.1h-0.2c0-0.1,0-0.1-0.1-0.1c0,0-0.1,0-0.1-0.1h-0.1c-0.1-0.1-0.2-0.1-0.2-0.2
			h-0.1c3.4,4.2,6.6,8.5,10.1,12.8c0.6,0.7,1.6,1.1,2.8,1.1h14.6c0.1-0.1,0.2-0.1,0.2-0.1h0.2c0,0,0.1-0.1,0.2-0.1h0.1
			c0-0.1,0.1-0.1,0.1-0.1c0.1,0,0.1-0.1,0.1-0.1c0.1,0,0.1,0,0.2-0.1h0.1c0-0.1,0.1-0.1,0.1-0.2h0.1l0.2-0.2l0.2-0.5
			c0.1-0.2,0.2-0.4,0.2-0.5c0-0.1,0.1-0.4,0.1-0.5v-0.4c0.1,0,0.1-0.1,0.1-0.2V31.7L185.9,31.6z M174.8,17c0,0-0.1-0.1-0.1-0.2
			C174.7,16.8,174.8,17,174.8,17z"/>
		<path style="&st0;" d="M187.7,98.6c-0.1-0.1-0.1-0.1-0.1-0.2L187.7,98.6z M187.8,98.7l-0.1-0.1h0.1V98.7z M187.9,98.8
			c-0.1,0-0.1,0-0.1-0.1L187.9,98.8z M224,95.1h-3c-0.1,0-0.2,0-0.4,0.1h-0.4c0,0-0.1,0-0.1,0.1H220l-0.1,0.1c-0.1,0-0.1,0-0.2,0.1
			h-0.1c0,0-0.1,0.1-0.2,0.1v0.1c-0.1,0-0.2,0.1-0.4,0.2c0,0-0.1,0.1-0.1,0.2h-0.1l-0.2,0.4v0.1l-0.2,0.4v0.1c0,0.1,0,0.2-0.1,0.5
			v0.7c-0.1,0.1-0.1,0.1-0.1,0.2v10.6c0,0.2,0,0.5-0.1,0.6v0.2c0,0.2-0.1,0.5-0.1,0.6l-0.2,0.5v0.1l-0.2,0.2c0,0.1-0.1,0.2-0.2,0.2
			v0.1c-0.1,0.1-0.2,0.2-0.5,0.2v0.1l-0.6,0.2h-0.1c-0.1,0.1-0.4,0.1-0.6,0.1c0,0.1-0.1,0.1-0.1,0.1h-14.6c-0.8-0.1-1.4-0.4-1.9-0.8
			l-0.4-0.4l-10.2-12.7c0,0,0.1,0.1,0.2,0.1h0.1l0.2,0.2h0.1c0.1,0,0.2,0.1,0.4,0.1h0.1c0.1,0.1,0.2,0.1,0.5,0.1h0.1
			c0.1,0.1,0.4,0.1,0.6,0.1h13.6c0.2,0,0.5,0,0.7-0.1h0.1c0.2,0,0.5-0.1,0.6-0.1h0.1l0.4-0.2c0.1,0,0.2,0,0.2-0.1h0.1
			c0.2-0.2,0.5-0.4,0.6-0.6l0.1-0.1c0-0.1,0.1-0.1,0.1-0.2l0.2-0.5c0.1-0.2,0.1-0.5,0.1-0.7c0,0,0.1,0,0.1-0.1V84.4
			c0.1-0.1,0.1-0.2,0.1-0.4s0-0.1,0.1-0.1c0-0.1,0-0.2,0.1-0.4v-0.1c0.1-0.1,0.2-0.2,0.2-0.4l0.1-0.1c0,0,0.1-0.1,0.1-0.2h0.1
			l0.2-0.2h0.1c0-0.1,0.1-0.1,0.1-0.1c0.1,0,0.1-0.1,0.1-0.1c0.1,0,0.1,0,0.2-0.1h0.1c0.1,0,0.1,0,0.2-0.1h0.4
			c0.1-0.1,0.1-0.1,0.2-0.1h11.2c0.4,0,0.7,0,1.1,0.1v10C222.5,93.5,223,94.6,224,95.1z M222.6,40.6l-0.1,9h-0.1c0,0-0.1,0-0.2,0.1
			H222c-0.1,0-0.2,0.1-0.2,0.1c-0.1,0-0.1,0-0.2,0.1h-0.2c0,0.1-0.1,0.1-0.1,0.1c-0.1,0-0.1,0.1-0.2,0.1c0,0-0.1,0-0.1,0.1h-0.2
			c0,0.1,0,0.1-0.1,0.1c0,0.1-0.1,0.1-0.1,0.1l-0.1,0.1c-0.1,0.1-0.1,0.1-0.2,0.1c0,0.1,0,0.1-0.1,0.1c0,0.1,0,0.1-0.1,0.1
			c0,0.1,0,0.1-0.1,0.1c0,0.1,0,0.1-0.1,0.2l-0.1,0.1c0,0,0,0.1-0.1,0.1v0.1c-0.1,0.1-0.1,0.2-0.2,0.2v0.1l-0.2,0.4v0.1
			c0,0,0,0.1-0.1,0.2V53c0,0.1-0.1,0.4-0.1,0.5v0.1c-0.1,0.1-0.1,0.4-0.1,0.5v0.1c-0.1,0.2-0.1,0.4-0.1,0.5v0.1
			c0,0.2-0.1,0.4-0.1,0.6v1.9h-10.7V42.2c0.1-0.2,0.1-0.4,0.1-0.6v-0.1c0-0.1,0.1-0.4,0.2-0.5v-0.1c0-0.2,0-0.4,0.1-0.6
			c0-0.2,0.1-0.4,0.1-0.5v-0.1l0.4-0.7v-0.1l0.2-0.2v-0.1l0.2-0.2v-0.1c0.1,0,0.1,0,0.1-0.1c0.1,0,0.1-0.1,0.1-0.1
			c0.1,0,0.1-0.1,0.1-0.1c0.1,0,0.1-0.1,0.1-0.1c0.1,0,0.1-0.1,0.2-0.1c0,0,0-0.1,0.1-0.1l0.1-0.1c0.1,0,0.1-0.1,0.1-0.1
			c0.1,0,0.1,0,0.2-0.1h0.1c0.1-0.1,0.1-0.1,0.2-0.1c0-0.1,0.1-0.1,0.1-0.1c0.1,0,0.2,0,0.2-0.1h0.2c0-0.1,0.1-0.1,0.2-0.1
			c0,0,0.1,0,0.1-0.1h0.2c0.1,0,0.2-0.1,0.2-0.1h0.4c0.1,0,0.1-0.1,0.2-0.1h0.5c0.1-0.1,0.2-0.1,0.4-0.1h0.6c0,0,0.1,0,0.2-0.1h4.1
			c0.2,0.1,0.5,0.1,0.7,0.1h0.1c0.2,0,0.4,0.1,0.6,0.1h0.1l1.3,0.4c0.2,0,0.4,0.1,0.6,0.1v0.1c0.1,0,0.7,0.4,0.7,0.4V40.6z
			 M225.7,98.6c-0.1-0.1-0.1-0.1-0.1-0.2L225.7,98.6z M256.3,109.8c0,0.2,0,0.5-0.1,0.6v0.1L256,111l-0.2,0.5c-0.1,0-0.1,0-0.1,0.1
			c0,0-0.1,0-0.1,0.1l-0.2,0.2c0,0-0.1,0-0.1,0.1c-0.1,0-0.1,0-0.1,0.1h-0.2c0,0.1-0.1,0.1-0.1,0.1c-0.1,0-0.1,0-0.1,0.1h-0.2
			c-0.1,0-0.1,0.1-0.1,0.1h-0.5c0,0.1-0.1,0.1-0.2,0.1h-14.5c-1.3,0-2.3-0.4-2.9-1.2l-10.3-13h0.1c0,0.1,0.1,0.1,0.1,0.1l0.1,0.1
			c0.1,0,0.1,0.1,0.1,0.1c0.1,0,0.1,0,0.2,0.1h0.1c0,0.1,0.1,0.1,0.1,0.1c0.1,0,0.1,0,0.2,0.1h0.4c0,0.1,0.1,0.1,0.2,0.1h0.4
			l0.1,0.1h14.5l0.1-0.1c0.2,0,0.5,0,0.7-0.1c0.1,0,0.2,0,0.4-0.1h0.1L244,99c0.1,0,0.1,0,0.2-0.1c0.1,0,0.2-0.1,0.4-0.2
			c0-0.1,0-0.1,0.1-0.1c0,0,0.1-0.1,0.1-0.2l0.4-0.5l0.2-0.5v-0.1c0.1-0.4,0.2-0.7,0.2-1.2V40.1c-0.1-0.2-0.1-0.4-0.1-0.6V38
			c-0.1-0.2-0.1-0.5-0.1-0.7v-0.1c0-0.2,0-0.5-0.1-0.7c0-0.2-0.1-0.4-0.1-0.6v-0.1c0-0.2-0.1-0.6-0.1-0.8c0-0.1,0-0.4-0.1-0.5v-0.2
			c0-0.2-0.1-0.5-0.1-0.7V33l-0.1-0.1c0-0.4-0.1-0.7-0.1-1c-0.1-0.2-0.1-0.4-0.1-0.5v-0.1l-0.2-0.8c0-0.2-0.1-0.4-0.1-0.5v-0.1
			c-0.1-0.4-0.2-0.6-0.2-0.8l-0.2-0.5v-0.2l-0.4-0.7c0-0.1-0.1-0.4-0.1-0.5c0-0.1-0.1-0.1-0.1-0.1c0-0.2-0.1-0.5-0.2-0.7
			c-0.1-0.2-0.2-0.4-0.2-0.6c0,0-0.1,0-0.1-0.1L242,25c0-0.2-0.1-0.4-0.2-0.6l-0.1-0.1l-0.4-0.6v-0.1l-0.4-0.4c0-0.1,0-0.1-0.1-0.2
			c3.2,4,7,8.2,10.2,12.2c0.4,0.4,0.6,0.8,0.8,1.2l0.4,0.5l0.5,0.8l0.2,0.5c0.1,0.2,0.4,0.5,0.5,0.8c0,0.1,0.1,0.4,0.2,0.5l0.4,0.8
			c0,0.2,0.1,0.4,0.2,0.6c0,0.2,0.1,0.6,0.2,0.8l0.2,0.6c0,0.2,0.1,0.6,0.2,0.8c0,0.2,0.1,0.4,0.1,0.6l0.2,0.8
			c0,0.2,0.1,0.5,0.1,0.7c0.1,0.2,0.1,0.6,0.1,0.8c0.1,0.1,0.1,0.2,0.1,0.4V47c0.1,0.1,0.1,0.4,0.1,0.6c0.1,0.2,0.1,0.5,0.1,0.8
			c0,0.1,0.1,0.4,0.1,0.6v0.8c0.1,0.1,0.1,0.4,0.1,0.6v0.8c0.1,0.2,0.1,0.4,0.1,0.6v1.4c0.1,0.4,0.1,0.6,0.1,1v55.4
			C256.4,109.7,256.4,109.8,256.3,109.8z M240.6,22.6c-0.2-0.1-0.4-0.4-0.5-0.6L240.6,22.6z M240.6,22.6c0,0.1,0.1,0.2,0.2,0.4
			l-0.1-0.1C240.6,22.8,240.6,22.7,240.6,22.6z"/>
		<path style="&st0;" d="M251.8,35.1V35V35.1z M271.9,49.4h-7.2c-1.1-0.1-1.8-0.5-2.4-1.1l-10.6-13.2h0.1l0.1,0.1
			c0,0.1,0.1,0.1,0.1,0.1c0,0.1,0.1,0.1,0.1,0.1l0.1,0.1c0.1,0,0.1,0.1,0.2,0.1l0.1,0.1h0.1c0.1,0,0.1,0.1,0.2,0.1h0.1
			c0.1,0.1,0.1,0.1,0.2,0.1h0.2l0.1,0.1H272L271.9,49.4z M330.6,46.5v0.4c0,0.1-0.1,0.4-0.1,0.5l-0.2,0.4v0.1l-0.2,0.5
			c-0.1,0-0.1,0.1-0.2,0.2h-0.1c0,0.1-0.1,0.1-0.1,0.2h-0.1c-0.1,0.1-0.1,0.1-0.2,0.1c0,0,0,0.1-0.1,0.1c0,0-0.1,0-0.1,0.1h-0.2
			c0,0-0.1,0-0.1,0.1h-0.2c0,0-0.1,0-0.2,0.1h-18.2c-0.1,0-0.2,0-0.4,0.1h-0.6c-0.1,0-0.2,0-0.2,0.1h-0.1c-0.1,0-0.2,0-0.2,0.1h-0.1
			c-0.1,0-0.2,0.1-0.2,0.1h-0.1c-0.1,0.1-0.1,0.1-0.2,0.1c0,0.1,0,0.1-0.1,0.1c0,0.1-0.1,0.1-0.2,0.2l-0.2,0.2v0.1
			c-0.1,0-0.1,0.1-0.2,0.2V51l-0.2,0.5c0,0.1-0.1,0.4-0.1,0.5v0.4c-0.1,0-0.1,0.1-0.1,0.1v57.6l-0.1,0.1c0,0.1,0,0.4-0.1,0.5
			c0,0.1-0.1,0.2-0.1,0.4v0.1h-0.1c0,0.1-0.1,0.2-0.2,0.4v0.1l-0.5,0.5h-0.1c0,0.1-0.1,0.1-0.1,0.1l-0.1,0.1c-0.1,0-0.1,0-0.2,0.1
			h-0.1c-0.1,0-0.1,0-0.2,0.1h-0.4l-0.1,0.1h-14.4c-1.3,0-2.3-0.4-2.9-1.1c-3.5-4.4-7-8.9-10.6-13.2h0.1l0.1,0.1
			c0,0.1,0.1,0.1,0.1,0.1l0.1,0.1c0.1,0,0.1,0.1,0.1,0.1c0.1,0,0.1,0.1,0.2,0.1h0.1c0,0.1,0.1,0.1,0.1,0.1c0.1,0,0.1,0.1,0.2,0.1
			h0.1c0.1,0.1,0.1,0.1,0.2,0.1h0.4c0.1,0.1,0.1,0.1,0.2,0.1h14.6c0.2,0,0.4-0.1,0.5-0.1h0.4v-0.1c0.1,0,0.2,0,0.4-0.1
			c0.1,0,0.2,0,0.4-0.1l0.1-0.1c0.1,0,0.1-0.1,0.1-0.1c0.1,0,0.1-0.1,0.2-0.1l0.2-0.2l0.4-0.5v-0.1c0.1-0.1,0.1-0.2,0.1-0.4l0.2-0.5
			V39.3c0,0,0.1,0,0.1-0.1v-0.6c0.1,0,0.1-0.1,0.1-0.2v-0.1l0.2-0.4v-0.1l0.2-0.4c0.1-0.1,0.1-0.2,0.2-0.2c0.1-0.1,0.2-0.2,0.4-0.2
			v-0.1c0.1,0,0.1-0.1,0.2-0.1h0.1c0.1-0.1,0.1-0.1,0.2-0.1c0,0,0-0.1,0.1-0.1h0.2l0.1-0.1h0.4c0.1,0,0.2-0.1,0.4-0.1h17.8
			c0.1,0,0.2,0,0.5-0.1c0.2,0,0.5-0.1,0.7-0.1c0,0,0-0.1,0.1-0.1s0.1,0,0.2-0.1c0.1,0,0.2-0.1,0.2-0.1l0.4-0.2v-0.1
			c0.1,0,0.1-0.1,0.2-0.2l0.2-0.4l0.2-0.5c0-0.2,0.1-0.4,0.1-0.5s0-0.4,0.1-0.5v-14c0-0.2-0.1-0.5-0.1-0.7v-0.1
			c0-0.2-0.1-0.5-0.1-0.6l-0.2-0.6l-0.2-0.5c3.5,4.4,7.6,8.9,11.2,13.3l0.2,0.4v0.1c0.1,0.2,0.2,0.4,0.2,0.6c0,0.1,0.1,0.2,0.1,0.4
			v14.9C330.7,46.4,330.6,46.4,330.6,46.5z M275.8,98.4v-0.1V98.4z"/>
		<path style="&st0;" d="M394,83.4v26.3c0,0.1,0,0.2-0.1,0.2v0.1c0,0.2,0,0.4-0.1,0.5v0.1c0,0.1-0.1,0.2-0.1,0.4l-0.1,0.1
			c0,0.1-0.1,0.2-0.2,0.4s-0.1,0.2-0.2,0.2v0.1c-0.1,0-0.1,0.1-0.2,0.1c0,0-0.1,0-0.1,0.1c0,0-0.1,0-0.1,0.1h-0.1
			c-0.1,0.1-0.1,0.1-0.2,0.1c0,0-0.1,0-0.1,0.1h-0.2c0,0-0.1,0-0.1,0.1h-0.5c0,0-0.1,0-0.2,0.1h-14.2c-1.3,0-2.3-0.5-2.9-1.2
			l-10.3-13.2l0.4,0.4c0,0,0.1,0,0.1,0.1h0.1c0.1,0.1,0.1,0.1,0.2,0.1c0,0.1,0,0.1,0.1,0.1l0.1,0.1h0.1c0.1,0.1,0.2,0.1,0.2,0.1h0.1
			c0.1,0,0.2,0.1,0.2,0.1h0.6c0.1,0.1,0.4,0.1,0.5,0.1h13.4c0.1,0,0.4,0,0.5-0.1h0.6l0.6-0.2c0.1,0,0.2-0.1,0.4-0.1l0.1-0.1
			c0,0,0.1,0,0.1-0.1h0.1c0.1-0.1,0.1-0.1,0.2-0.1v-0.1c0.1-0.1,0.2-0.1,0.2-0.2c0.1-0.1,0.2-0.2,0.2-0.5c0.1-0.1,0.2-0.2,0.2-0.5
			c0.1-0.1,0.1-0.4,0.1-0.5l0.1-0.1V57.5L394,83.4z M387.6,17v0.1V17z M387.6,17.1h0.1c0,0.1,0,0.2,0.1,0.2L387.6,17.1z M388,17.6
			c-0.1-0.1-0.1-0.1-0.1-0.2c0,0.1,0,0.1,0.1,0.1V17.6z M388,17.6c0,0,0,0.1,0.1,0.1C388,17.7,388,17.6,388,17.6z M388.1,17.8
			l10.1,12.4l0.7,1.3l3.8,9.2v12.8l-14.4-35.3L388.1,17.8z M402,98.2c0,0-0.1-0.1-0.1-0.2C401.9,98.1,402,98.2,402,98.2z M437,109.4
			v0.7c-0.1,0.2-0.1,0.4-0.1,0.5v0.1l-0.2,0.4v0.1c-0.1,0.1-0.2,0.2-0.2,0.4h-0.1c0,0.1-0.1,0.2-0.1,0.2l-0.2,0.2
			c-0.1,0-0.1,0-0.1,0.1c-0.1,0-0.1,0-0.2,0.1h-0.1c0,0.1-0.1,0.1-0.2,0.1l-0.1,0.1h-0.2l-0.1,0.1h-0.4c-0.1,0-0.2,0-0.4,0.1h-18.2
			c-1.4,0-2.6-0.5-3.5-1.4l-0.5-0.7l-9.6-12.1h0.1c0,0.1,0.1,0.2,0.2,0.4h0.2c0.1,0.1,0.2,0.2,0.4,0.2c0,0,0,0.1,0.1,0.1
			c0.1,0,0.4,0.1,0.5,0.1h0.2c0.1,0.1,0.2,0.1,0.4,0.1h0.2c0.2,0,0.4,0.1,0.6,0.1H423c0.2,0,0.4,0,0.5-0.1h0.6
			c0.1,0,0.2-0.1,0.2-0.1h0.2c0,0,0.1,0,0.1-0.1h0.2c0-0.1,0.1-0.1,0.2-0.1v-0.1c0.1,0,0.1,0,0.2-0.1h0.1c0-0.1,0.1-0.1,0.2-0.2
			l0.7-1.2c0-0.2,0.1-0.5,0.1-0.8v-0.1c0.1-0.2,0.1-0.4,0.1-0.5V19.1c0-0.2-0.1-0.5-0.1-0.7v-0.2c0-0.2-0.1-0.4-0.1-0.5v-0.1
			c0,0,0-0.1-0.1-0.1v-0.2l-0.1-0.1V17c3.4,4.3,6.7,8.5,10.3,12.8l0.2,0.5v0.1c0.2,0.2,0.2,0.6,0.4,1v77.9L437,109.4z M426.2,17
			c0,0-0.1,0-0.1-0.1s-0.1-0.1-0.1-0.2C426,16.7,426.1,16.8,426.2,17z"/>
		<path style="&st0;" d="M495.7,80.3L506,93.2l0.2,0.5c0,0,0,0.1,0.1,0.1c0,0.1,0.1,0.4,0.1,0.5s0.1,0.4,0.1,0.5V95
			c0,0.2,0.1,0.5,0.1,0.7v13.6c0,0.2,0,0.5-0.1,0.7v0.1c0,0.2-0.1,0.4-0.1,0.6l-0.2,0.5v0.1l-0.2,0.2c0,0.1-0.1,0.2-0.2,0.2v0.1
			l-0.5,0.4l-0.6,0.2h-0.1c-0.1,0.1-0.4,0.1-0.6,0.1c0,0.1-0.1,0.1-0.1,0.1h-51.4c-1.3,0-2.3-0.4-2.9-1.2
			c-3.5-4.4-6.7-8.8-10.3-13.2h0.1c0,0.1,0.1,0.2,0.2,0.2v0.1l0.4,0.2l0.4,0.2h0.1c0.1,0.1,0.2,0.1,0.4,0.1h0.1
			c0.1,0.1,0.4,0.1,0.5,0.1h0.1c0.2,0.1,0.4,0.1,0.6,0.1h50.5c0.2,0,0.5,0,0.7-0.1h0.4c0.1-0.1,0.2-0.1,0.4-0.1h0.1
			c0.2-0.1,0.4-0.2,0.6-0.2l0.6-0.5c0-0.1,0.1-0.2,0.2-0.4c0-0.1,0.1-0.1,0.1-0.2l0.2-0.5c0-0.1,0-0.2,0.1-0.4c0-0.1,0-0.2,0.1-0.5
			V82.5c0-0.2,0-0.5-0.1-0.7v-0.5c-0.1-0.1-0.1-0.1-0.1-0.2c0-0.1,0-0.1-0.1-0.2v-0.2l-0.1-0.1C495.8,80.4,495.8,80.3,495.7,80.3z
			 M507,32.3v14.2c0,0,0,0.1-0.1,0.1v0.1c0,0.2,0,0.4-0.1,0.6c0,0.1-0.1,0.2-0.1,0.4v0.1h-0.1c0,0.1-0.1,0.2-0.2,0.4v0.1
			c-0.1,0-0.1,0.1-0.2,0.1v0.1c-0.1,0-0.1,0.1-0.2,0.1l-0.2,0.2h-0.1c-0.1,0.1-0.1,0.1-0.2,0.1l-0.1,0.1h-0.2c0,0.1-0.1,0.1-0.1,0.1
			h-0.5c0,0.1-0.1,0.1-0.2,0.1h-17.9c3.1,4.1,6.4,8.2,9.6,12.1l0.4,0.5v0.1l0.2,0.5V63c0.1,0,0.1,0.1,0.1,0.1v15.2l-0.2,0.6
			c0,0.1,0,0.2-0.1,0.4v0.1l-0.4,0.4V80l-0.1,0.1l0.1,0.1c-0.1,0-0.1,0-0.1-0.1c-0.5-0.7-1.4-1.1-2.5-1.2v-0.4
			c0-2.4-1.1-3.6-3.5-3.6h-29.5v-4.4c0.1,0,0.1,0,0.1-0.1c0-0.1,0-0.2,0.1-0.4v-0.1c0-0.1,0.1-0.2,0.1-0.4c0-0.1,0.1-0.1,0.1-0.1
			c0-0.1,0.1-0.2,0.2-0.4v-0.1c0,0,0.1-0.1,0.2-0.1v-0.1c0.1,0,0.1-0.1,0.2-0.2h0.1c0,0,0.1-0.1,0.2-0.1c0,0,0-0.1,0.1-0.1
			c0,0,0.1,0,0.1-0.1h0.1c0.1,0,0.2,0,0.2-0.1h0.5c0-0.1,0.1-0.1,0.1-0.1h19.9c0.2-0.1,0.4-0.1,0.6-0.1c0.1,0,0.1,0,0.2-0.1h0.1
			c0.1,0,0.2-0.1,0.4-0.1l0.6-0.2v-0.1c0.1,0,0.1-0.1,0.2-0.1v-0.1c0.1,0,0.2-0.1,0.4-0.2c0-0.1,0.1-0.4,0.2-0.5l0.2-0.5
			c0-0.1,0-0.2,0.1-0.5V49.8c-0.1-0.1-0.1-0.4-0.1-0.5c-0.4-1.3-1.3-2-2.9-2.2v-0.4c0-2.4-1.2-3.6-3.6-3.6h-19.2v-3.5
			c0-0.1,0.1-0.2,0.1-0.2v-0.8c0.1-0.1,0.1-0.2,0.1-0.4v-0.1l0.2-0.4v-0.1l0.2-0.4l0.2-0.2V37c0.1,0,0.2-0.1,0.4-0.2
			c0.1,0,0.2-0.1,0.2-0.1h0.1v-0.1h0.2c0-0.1,0.1-0.1,0.1-0.1c0.1,0,0.1,0,0.2-0.1h0.5v-0.1h30.4c0.2-0.1,0.6-0.1,0.8-0.1
			c0-0.1,0-0.1,0.1-0.1h0.2v-0.1c0.1,0,0.2-0.1,0.4-0.1h0.1l0.5-0.4v-0.1c0.2-0.1,0.4-0.4,0.5-0.6l0.1-0.1c0-0.1,0.1-0.2,0.1-0.5
			c0.1-0.2,0.2-0.5,0.2-0.8V18.4c0-0.1-0.1-0.1-0.1-0.2s0-0.4-0.1-0.5v-0.1c0-0.1-0.1-0.2-0.1-0.4v-0.1c3.4,4.3,7,8.6,10.3,12.7
			c0.1,0.1,0.2,0.4,0.2,0.5l0.1,0.1c0,0.1,0.1,0.4,0.1,0.5c0.1,0.1,0.1,0.4,0.1,0.5v0.2C507,31.8,507,32.1,507,32.3z M495.8,17
			l-0.2-0.4C495.6,16.7,495.7,16.8,495.8,17z M495.8,17.1V17c0,0.1,0,0.1,0.1,0.1H495.8z"/>
		<path style="&st0;" d="M536.9,77l8.4,14.3l-11.2,19.1l-0.4,0.5c0,0.1,0,0.1-0.1,0.1c0,0.1,0,0.1-0.1,0.2l-0.1,0.1
			c0,0.1-0.1,0.1-0.1,0.2l-0.4,0.2c0,0.1-0.1,0.1-0.1,0.1l-0.5,0.4h-0.1l-0.4,0.2h-0.2c-0.1,0.1-0.2,0.1-0.4,0.1c0,0-0.1,0-0.1,0.1
			h-0.7c-0.1,0.1-0.4,0.1-0.6,0.1h-16.3c-0.4,0-0.7-0.1-1-0.1c-0.8-0.1-1.4-0.5-1.8-1l-10.3-13.1h0.1l0.2,0.2
			c0.1,0.1,0.1,0.1,0.2,0.1c0,0,0,0.1,0.1,0.1c0,0,0.1,0,0.1,0.1h0.1c0.1,0,0.2,0,0.2,0.1h0.5c0,0.1,0,0.1,0.1,0.1h18.1
			c0.2,0,0.5-0.1,0.6-0.1s0.2,0,0.2-0.1c0.1,0,0.2,0,0.4-0.1c0.2,0,0.4-0.1,0.6-0.2l0.5-0.4c0.1,0,0.1-0.1,0.2-0.2
			c0.1,0,0.1-0.1,0.2-0.2l0.2-0.2c0-0.1,0.1-0.1,0.1-0.2l0.4-0.6l11.5-20c0.1,0,0.1-0.1,0.2-0.2c0-0.1,0.1-0.1,0.1-0.1
			s0-0.1,0.1-0.1h0.1v-0.1h0.4l0.1,0.1h0.1v0.1c0.1,0,0.1,0,0.2,0.1C536.7,76.8,536.9,76.8,536.9,77z M500.4,98.7v-0.1V98.7z
			 M532.5,30.9l-7.6-13l0.7,0.7l9,11.4l-0.5,0.8c-0.2,0.5-0.6,0.7-0.8,0.7C533,31.6,532.8,31.4,532.5,30.9z M581.6,110.8
			c-0.1,0-0.1,0.1-0.1,0.1v0.4c-0.1,0-0.1,0-0.1,0.1v0.1l-0.1,0.1c0,0.1-0.1,0.1-0.1,0.1c0,0.1-0.1,0.1-0.1,0.1
			c0,0.1-0.1,0.1-0.1,0.1c0,0.1-0.1,0.1-0.1,0.1c0,0.1-0.1,0.1-0.1,0.1c-0.1,0-0.1,0.1-0.1,0.1c-0.1,0-0.1,0-0.2,0.1h-0.1
			c-0.1,0-0.1,0.1-0.2,0.1h-0.1c-0.1,0-0.2,0.1-0.2,0.1h-0.7c-0.1,0.1-0.2,0.1-0.5,0.1h-15.1c-1.7,0-2.9-0.6-3.8-1.7
			c-3.4-4.2-6.2-8.3-9.5-12.5h0.1c0.1,0.1,0.2,0.2,0.5,0.2c0,0.1,0,0.1,0.1,0.1c0.1,0.1,0.2,0.1,0.4,0.1c0,0.1,0.1,0.1,0.1,0.1
			c0.1,0,0.2,0.1,0.5,0.1h0.1c0.1,0.1,0.4,0.1,0.5,0.1h16.6c0.2-0.1,0.5-0.1,0.6-0.1c0.1-0.1,0.1-0.1,0.2-0.1s0.1-0.1,0.2-0.1h0.1
			c0-0.1,0-0.1,0.1-0.1l0.7-0.7v-0.2c0,0,0.1,0,0.1-0.1v-0.2c0.1-0.1,0.1-0.1,0.1-0.2v-0.1c0-0.2,0-0.4-0.1-0.5v-0.2
			c0-0.1,0-0.2-0.1-0.4V96c-0.1-0.1-0.1-0.1-0.1-0.2c0,0-0.1-0.1-0.1-0.2s-0.1-0.2-0.1-0.4l-1.9-3.2l-0.4-0.7l-20.6-34.8h-0.1V56
			c0-0.1,0-0.1,0.1-0.1v-0.4h0.1v-0.2l20.3-35.4l0.4-0.5v-0.1c0-0.1,0.1-0.2,0.1-0.2v-0.2c0.1-0.1,0.1-0.2,0.1-0.4v-0.1
			c0.1-0.1,0.1-0.1,0.1-0.2v-0.6c-0.1-0.1-0.1-0.2-0.1-0.4l-0.1-0.1c0-0.1-0.1-0.2-0.1-0.4c3.5,4.4,7.2,8.9,10.7,13.2
			c0.1,0.1,0.2,0.2,0.2,0.4v0.1c0.1,0.1,0.1,0.2,0.1,0.2v0.2c0.1,0,0.1,0.1,0.1,0.2v0.1c0,0.1,0,0.2-0.1,0.4v0.1
			c0,0.2,0,0.4-0.1,0.5v0.1c0,0.1-0.1,0.2-0.1,0.4l-0.1,0.1c0,0.1,0,0.1-0.1,0.2c0,0,0,0.1-0.1,0.2l-20.4,35.3c0,0,0,0.1-0.1,0.1
			v0.2l-0.1,0.1v0.6c0,0,0.1,0.1,0.1,0.2s0.1,0.2,0.1,0.4l22.6,38.4c0.1,0.1,0.2,0.2,0.2,0.4l0.1,0.1c0,0.1,0.1,0.2,0.1,0.4v0.1
			c0,0.1,0.1,0.1,0.1,0.2v0.5h0.1V110.8z M549.6,98.3l0.2,0.4l-0.4-0.5C549.6,98.2,549.6,98.3,549.6,98.3z M568.2,16.5
			c0,0.1,0,0.1,0.1,0.1C568.2,16.6,568.2,16.6,568.2,16.5z"/>
		<path style="&st0;" d="M573.5,35.1V35V35.1z M593.6,49.4h-7.2c-1.1-0.1-1.8-0.5-2.4-1.1l-10.6-13.2h0.1l0.1,0.1
			c0,0.1,0.1,0.1,0.1,0.1c0,0.1,0.1,0.1,0.1,0.1l0.1,0.1c0.1,0,0.1,0.1,0.2,0.1l0.1,0.1h0.1c0.1,0,0.1,0.1,0.2,0.1h0.1
			C575,36,575,36,575.1,36h0.2l0.1,0.1h18.2L593.6,49.4z M652.3,46.5v0.4c0,0.1-0.1,0.4-0.1,0.5l-0.2,0.4v0.1l-0.2,0.5
			c-0.1,0-0.1,0.1-0.2,0.2h-0.1c0,0.1-0.1,0.1-0.1,0.2h-0.1c-0.1,0.1-0.1,0.1-0.2,0.1c0,0,0,0.1-0.1,0.1c0,0-0.1,0-0.1,0.1h-0.2
			c0,0-0.1,0-0.1,0.1H650c0,0-0.1,0-0.2,0.1h-18.2c-0.1,0-0.2,0-0.4,0.1h-0.6c-0.1,0-0.2,0-0.2,0.1h-0.1c-0.1,0-0.2,0-0.2,0.1h-0.1
			c-0.1,0-0.2,0.1-0.2,0.1h-0.1c-0.1,0.1-0.1,0.1-0.2,0.1c0,0.1,0,0.1-0.1,0.1c0,0.1-0.1,0.1-0.2,0.2l-0.2,0.2v0.1
			c-0.1,0-0.1,0.1-0.2,0.2V51l-0.2,0.5c0,0.1-0.1,0.4-0.1,0.5v0.4c-0.1,0-0.1,0.1-0.1,0.1v57.6l-0.1,0.1c0,0.1,0,0.4-0.1,0.5
			c0,0.1-0.1,0.2-0.1,0.4v0.1h-0.1c0,0.1-0.1,0.2-0.2,0.4v0.1l-0.5,0.5h-0.1c0,0.1-0.1,0.1-0.1,0.1l-0.1,0.1c-0.1,0-0.1,0-0.2,0.1
			H626c-0.1,0-0.1,0-0.2,0.1h-0.4l-0.1,0.1h-14.4c-1.3,0-2.3-0.4-2.9-1.1c-3.5-4.4-7-8.9-10.6-13.2h0.1l0.1,0.1
			c0,0.1,0.1,0.1,0.1,0.1l0.1,0.1c0.1,0,0.1,0.1,0.1,0.1c0.1,0,0.1,0.1,0.2,0.1h0.1c0,0.1,0.1,0.1,0.1,0.1c0.1,0,0.1,0.1,0.2,0.1
			h0.1c0.1,0.1,0.1,0.1,0.2,0.1h0.4c0.1,0.1,0.1,0.1,0.2,0.1h14.6c0.2,0,0.4-0.1,0.5-0.1h0.4v-0.1c0.1,0,0.2,0,0.4-0.1
			c0.1,0,0.2,0,0.4-0.1l0.1-0.1c0.1,0,0.1-0.1,0.1-0.1c0.1,0,0.1-0.1,0.2-0.1l0.2-0.2L617,98v-0.1c0.1-0.1,0.1-0.2,0.1-0.4l0.2-0.5
			V39.3c0,0,0.1,0,0.1-0.1v-0.6c0.1,0,0.1-0.1,0.1-0.2v-0.1l0.2-0.4v-0.1l0.2-0.4c0.1-0.1,0.1-0.2,0.2-0.2c0.1-0.1,0.2-0.2,0.4-0.2
			v-0.1c0.1,0,0.1-0.1,0.2-0.1h0.1c0.1-0.1,0.1-0.1,0.2-0.1c0,0,0-0.1,0.1-0.1h0.2l0.1-0.1h0.4c0.1,0,0.2-0.1,0.4-0.1h17.8
			c0.1,0,0.2,0,0.5-0.1c0.2,0,0.5-0.1,0.7-0.1c0,0,0-0.1,0.1-0.1s0.1,0,0.2-0.1c0.1,0,0.2-0.1,0.2-0.1l0.4-0.2v-0.1
			c0.1,0,0.1-0.1,0.2-0.2l0.2-0.4l0.2-0.5c0-0.2,0.1-0.4,0.1-0.5s0-0.4,0.1-0.5v-14c0-0.2-0.1-0.5-0.1-0.7v-0.1
			c0-0.2-0.1-0.5-0.1-0.6l-0.2-0.6l-0.2-0.5c3.5,4.4,7.6,8.9,11.2,13.3l0.2,0.4v0.1c0.1,0.2,0.2,0.4,0.2,0.6c0,0.1,0.1,0.2,0.1,0.4
			v14.9C652.4,46.4,652.3,46.4,652.3,46.5z M597.5,98.4v-0.1V98.4z"/>
		<path style="&st0;" d="M668.6,56.3l-4.6-1c-1.1-0.2-1.9-0.7-2.4-1.3c-3.6-4.3-7.1-8.8-10.6-13.2h0.1c0,0.1,0,0.1,0.1,0.1l0.2,0.4
			c0.1,0,0.1,0,0.2,0.1c0.1,0,0.2,0.1,0.4,0.1c0.1,0.1,0.2,0.1,0.2,0.2c0.1,0,0.2,0,0.4,0.1c0.2,0,0.5,0.1,0.7,0.1l13.7,3
			c0.4,0.1,0.7,0.1,1.1,0.1h0.7c0.1-0.1,0.2-0.1,0.4-0.1l0.5-0.4c0.1,0,0.2-0.1,0.4-0.2v-0.1c0.1,0,0.2-0.1,0.2-0.2
			c0.1,0,0.1-0.1,0.1-0.2c0.4-0.5,0.5-1.1,0.6-1.8c0,0,0-0.1,0.1-0.2c0-0.2,0-0.5,0.1-0.7c0-0.1,0-0.2,0.1-0.4
			c0-0.2,0.1-0.4,0.1-0.6c0-0.1,0.1-0.2,0.1-0.4c0.1-0.1,0.1-0.2,0.1-0.4l0.2-0.5c0-0.1,0.1-0.2,0.1-0.4l0.2-0.4
			c0,0,0.1-0.1,0.1-0.2l0.1-0.2v-0.1l0.2-0.4c0,0,0.1,0,0.1-0.1c0,0,0.1,0,0.1-0.1l0.4-0.4c0.1-0.1,0.1-0.2,0.2-0.2l0.4-0.5h0.1
			l0.1-0.1l0.7-0.5c0.2-0.1,0.6-0.2,0.8-0.5h0.2c0.2-0.1,0.4-0.2,0.6-0.2c0.1-0.1,0.2-0.1,0.4-0.1c0.2-0.1,0.4-0.1,0.6-0.1
			c0.1-0.1,0.2-0.1,0.4-0.1c0.2,0,0.5-0.1,0.7-0.1h0.4c0.4,0,0.8-0.1,1.3-0.1h0.6c0.1,0,0.2,0.1,0.4,0.1h0.1l0.8,0.2
			c0.5,1.3,0.6,2.8,0.4,4.1C680.7,47.8,673.3,49,668.6,56.3z M651.1,40.8v-0.1V40.8z M719,50.1v1.4c0,0.2,0,0.5-0.1,0.7v1.2
			c0,0.5,0,1.1-0.1,1.6c0,0.5-0.1,1.1-0.1,1.6c-0.1,0.1-0.1,0.2-0.1,0.4c0,0.2-0.1,0.5-0.1,0.6c0,0.2,0,0.4-0.1,0.5v0.4l-0.4,1.2
			v0.1c-0.1,0.4-0.2,0.7-0.2,1.1c-0.1,0.1-0.1,0.2-0.1,0.4c-0.1,0.1-0.1,0.1-0.1,0.2c-0.1,0.2-0.2,0.5-0.2,0.7
			c0,0.1-0.1,0.1-0.1,0.1l-0.4,1.1c-0.1,0.1-0.1,0.2-0.1,0.4l-0.5,0.7c0,0.1,0,0.2-0.1,0.2v0.1l-0.4,0.7c-0.1,0-0.1,0.1-0.1,0.2
			c-0.2,0.4-0.5,0.6-0.6,1c-0.1,0-0.1,0.1-0.1,0.2l-0.6,0.7c0,0.1-0.1,0.1-0.2,0.2c-0.1,0.2-0.2,0.4-0.2,0.5c-0.1,0-0.1,0.1-0.1,0.1
			l-0.4,0.4l-0.4,0.5l-0.4,0.4l-0.4,0.5l-2.2,2.2l-0.5,0.4l-1.1,1.1l-0.8,0.7c0,0.1-0.1,0.1-0.1,0.2L707,75l-0.4,0.4l-0.5,0.4
			c-0.1,0.1-0.1,0.2-0.2,0.2c-0.1,0.2-0.4,0.4-0.5,0.5l-1.7,1.7c0,0,0,0.1-0.1,0.1l-0.5,0.6l-0.2,0.2l-0.4,0.5l-0.1,0.1l-0.4,0.6
			l-0.2,0.2l-0.4,0.6c0,0,0,0.1-0.1,0.1c-0.1,0.4-0.2,0.6-0.5,0.8l-0.4,1l-0.4,0.7l-0.4,0.5c0,0.1,0,0.1-0.1,0.1
			c0,0.1,0,0.1-0.1,0.2c0,0-0.1,0.1-0.1,0.2h-0.1l-0.4,0.4c0,0.1-0.1,0.1-0.1,0.1l-0.4,0.2h-0.1c-0.1,0.1-0.4,0.2-0.5,0.2h-0.1
			c-0.1,0.1-0.4,0.1-0.5,0.1h-0.2c-0.2,0.1-0.4,0.1-0.6,0.1H693l5.8,7.2l0.4,0.5v0.1c0.1,0.2,0.2,0.6,0.2,0.8
			c0.1,0.1,0.1,0.1,0.1,0.2v15.2l-0.2,0.5c0,0.2,0,0.4-0.1,0.5v0.1c-0.1,0.1-0.2,0.2-0.2,0.4h-0.1c0,0.1-0.1,0.1-0.1,0.2
			c-0.1,0-0.1,0-0.1,0.1c-0.1,0-0.1,0-0.2,0.1l-0.1,0.1H698c0,0.1-0.1,0.1-0.1,0.1c-0.1,0-0.1,0.1-0.2,0.1h-0.1
			c-0.1,0.1-0.1,0.1-0.2,0.1h-0.1c-0.1,0.1-0.1,0.1-0.2,0.1h-0.5c0,0-0.1,0-0.1,0.1h-14c-1.3,0-2.3-0.5-2.9-1.2
			c-3.5-4.4-6.8-8.9-10.4-13.2h0.1c0,0.1,0.1,0.1,0.1,0.2c0.1,0,0.1,0,0.1,0.1c0.1,0,0.1,0,0.1,0.1h0.2c0,0.1,0,0.1,0.1,0.1l0.1,0.1
			c0.1,0,0.1,0,0.2,0.1h0.1l0.1,0.1h0.2c0,0,0.1,0,0.2,0.1h14.9c0.2,0,0.5,0,0.7-0.1h0.1c0.1,0,0.1-0.1,0.2-0.1h0.1l0.4-0.2
			c0.1,0,0.1-0.1,0.2-0.1h0.1c0-0.1,0-0.1,0.1-0.2h0.1c0-0.1,0.1-0.2,0.1-0.2h0.1c0-0.1,0.1-0.4,0.2-0.5l0.2-0.5
			c0-0.1,0-0.4,0.1-0.5v-0.1c0-0.2,0.1-0.6,0.1-1V82.5c0-2.3-1.1-3.5-3.4-3.6c0-2.3-1.3-3.5-3.7-3.5h-9.5c-1-1.1-1.9-2.4-2.9-3.6
			h0.1c0,0,0,0.1,0.1,0.1c0,0,0,0.1,0.1,0.1l0.1,0.1c0,0,0.1,0,0.1,0.1h0.1l0.1,0.1c0.1,0,0.1,0,0.2,0.1h0.1c0.1,0,0.1,0.1,0.2,0.1
			h0.1c0.1,0,0.1,0,0.2,0.1h14.5c0.5,0,1,0,1.4-0.1l0.5-0.2c0.4-0.1,0.6-0.4,0.8-0.6c0.1,0,0.1-0.1,0.1-0.1c0.5-0.5,0.8-1.1,1.2-1.9
			c0.1-0.2,0.2-0.6,0.5-0.8l0.4-0.8c0.1,0,0.1-0.1,0.1-0.2l0.4-0.5c0.1-0.1,0.1-0.2,0.2-0.2l0.4-0.6l0.1-0.1l0.4-0.5
			c0.1-0.1,0.2-0.2,0.2-0.4l0.5-0.4c0-0.1,0-0.1,0.1-0.1c0-0.1,0-0.1,0.1-0.2l0.6-0.6c0.1-0.1,0.1-0.2,0.2-0.2l0.5-0.5
			c0.1-0.1,0.1-0.2,0.2-0.2l0.5-0.5l0.4-0.2c0-0.1,0.1-0.1,0.1-0.2c0.1,0,0.1-0.1,0.2-0.1l0.7-0.7c0,0,0-0.1,0.1-0.1l0.4-0.4
			c0.1-0.2,0.4-0.4,0.5-0.5v-0.1l0.5-0.4h0.1c0-0.1,0.1-0.2,0.2-0.2v-0.1c0.1,0,0.1-0.1,0.2-0.1l1.3-1.3h0.1l1.2-1.4
			c0.1,0,0.1,0,0.1-0.1l0.7-0.8l0.4-0.2l1.6-2.2l0.2-0.5c0.4-0.6,0.7-1.2,1-1.8c0.2-0.2,0.4-0.5,0.5-0.8c0.2-0.7,0.6-1.4,0.8-2.3
			c0,0,0.1-0.1,0.1-0.2c0,0,0-0.1,0.1-0.2l0.2-1.1c0,0,0-0.1,0.1-0.1c0-0.4,0.1-0.7,0.1-1c0.2-0.8,0.4-1.7,0.5-2.6
			c0.1-0.4,0.1-0.6,0.1-1c0-0.2,0-0.4,0.1-0.6v-1.4c0.1-0.5,0-1,0-1.6v-1.4c0-0.1-0.1-0.4-0.1-0.5v-0.8c0-0.1,0-0.2-0.1-0.4v-1
			c-0.1-0.1-0.1-0.2-0.1-0.5v-0.2l-0.1-0.1v-0.6h-0.1v-0.4c0-0.1,0-0.1-0.1-0.2v-0.5c-0.1,0-0.1-0.1-0.1-0.1c0-0.1,0-0.2-0.1-0.4
			v-0.4c-0.1-0.1-0.1-0.4-0.1-0.5c0,0-0.1,0-0.1-0.1V30c0-0.1-0.1-0.4-0.1-0.5v-0.1c-0.1,0-0.1,0-0.1-0.1s-0.1-0.2-0.1-0.4v-0.1
			l-0.1-0.1c0-0.2-0.1-0.4-0.1-0.5l-0.1-0.1V28l-0.2-0.5v-0.1c-0.1-0.1-0.1-0.1-0.1-0.2c0-0.1-0.1-0.2-0.1-0.4
			c-0.1,0-0.1-0.1-0.1-0.1v-0.1l-0.1-0.1c0-0.1-0.1-0.4-0.2-0.5v-0.1c0,0-0.1,0-0.1-0.1s-0.1-0.2-0.2-0.5c-0.1-0.1-0.1-0.2-0.1-0.2
			c-0.1-0.1-0.2-0.2-0.2-0.4l-0.1-0.1c0-0.1-0.1-0.1-0.1-0.2l-0.2-0.4c0,0,0-0.1-0.1-0.2l-0.1-0.1c-0.1-0.1-0.1-0.2-0.2-0.2
			c0-0.1-0.1-0.2-0.1-0.4l10.4,12.6v0.1l0.5,0.6c0,0,0.1,0.1,0.1,0.2l0.4,0.4c0,0.1,0.1,0.2,0.1,0.4c0.1,0.1,0.2,0.2,0.2,0.4
			l0.2,0.2c0,0.1,0.1,0.2,0.2,0.5c0,0,0.1,0.1,0.1,0.2c0.1,0.1,0.2,0.2,0.2,0.5c0.1,0,0.1,0.1,0.1,0.1l0.4,0.7c0,0,0,0.1,0.1,0.2
			c0,0.1,0.1,0.2,0.1,0.4c0.1,0.1,0.1,0.2,0.1,0.4l0.2,0.4c0,0.1,0,0.2,0.1,0.2c0,0.1,0.1,0.4,0.1,0.5c0,0,0,0.1,0.1,0.2
			c0,0.1,0.1,0.2,0.1,0.5c0,0,0,0.1,0.1,0.1c0,0.2,0.1,0.5,0.1,0.7h0.1c0,0.2,0,0.4,0.1,0.6v0.2c0.1,0.1,0.1,0.2,0.1,0.4
			s0,0.2,0.1,0.2v0.4c0,0.1,0.1,0.2,0.1,0.2V46c0.1,0,0.1,0.1,0.1,0.1v0.5l0.1,0.1v0.6c0.1,0.1,0.1,0.1,0.1,0.2v0.6
			c0,0.2,0.1,0.4,0.1,0.6V50L719,50.1z M669.5,71.8v-0.1V71.8z M702.9,22.4l0.5,0.6c-0.1,0-0.1-0.1-0.1-0.1l-0.4-0.4V22.4z"/>
	</g>
	<g>
		<path style="&st1;" d="M17.4,15.6c-2.5,0-3.7,1.4-3.2,4l14.6,76.3c-1.6-0.2-2.6-1.3-3-3L11.1,15.6c-0.5-2.5,0.7-4,3.2-4h14.4
			c2.2,0,3.5,1.1,4,3.1l0.2,1c-0.4-0.1-0.8-0.1-1.2-0.1H17.4z M42.5,68.7l-1.1-7.8L49,14.7c0.4-2,1.8-3.1,4-3.1h10.3
			c2.2,0,3.6,1.1,4,3.1l0.1,1c-0.4-0.1-0.7-0.1-1.1-0.1H56c-2.2,0-3.6,1.1-4,3.1l-8,50c-0.1,0.6-0.4,1-0.7,1
			C43,69.7,42.6,69.3,42.5,68.7z M61.8,66.9l6.5,29c-1.4-0.4-2.4-1.3-2.8-3L60,68.6l0.4-1.7c0.1-0.6,0.4-1,0.7-1
			C61.4,66,61.7,66.3,61.8,66.9z M78.3,68.7l-1.2-7.4l6.5-46.6c0.2-2,1.8-3.1,4-3.1h14.3c2.9,0,3.7,1.4,3.2,4H90.5
			c-2.2,0-3.7,1.1-4,3.1l-6.8,50c-0.1,0.6-0.5,1-0.7,1C78.6,69.7,78.4,69.3,78.3,68.7z"/>
		<path style="&st1;" d="M119.3,15.6c-2.4,0-3.6,1.2-3.6,3.6V96c-1.9-0.2-3-1.6-3-3.6V15.2c0-2.4,1.3-3.6,3.6-3.6h13.4
			c2.4,0,3.2,1.1,3.2,3.6v0.4H119.3z M140,52.8c-2.3,0-3.6-1.3-3.6-3.6v-0.5h12c2.4,0,3.6-1.3,3.6-3.6v-30c0-2.3,1.6-3.5,3.8-3.5
			h13.4c2.4,0,3.4,1.2,3.4,3.6v0.4h-13.9c-2.2,0-3.6,1.2-3.6,3.6v30c0,2.3-1.2,3.6-3.6,3.6H140z M155.1,77v19
			c-1.9-0.2-3.1-1.4-3.1-3.6v-19C154,73.5,155.1,74.8,155.1,77z"/>
		<path style="&st1;" d="M187.1,44.6v50.9c-1.7-0.4-2.4-1.8-2.4-4V40.6c0.1-15.1,2.6-31.2,29.6-31.2c15.4,0,22.3,5.2,25.8,12.4
			c-4.1-5-11.3-8.4-23.6-8.4C190,13.4,187.2,28.5,187.1,44.6z M225.3,44.7v12.8c0,2.4-1.2,3.7-3.6,3.7h-10.3c-2.3,0-3.6-1.3-3.6-3.6
			v-0.5c0.4,0.1,0.6,0.1,1.1,0.1h10.4c2.4,0,3.6-1.3,3.6-3.7V40.8c0-1.3-0.1-2.5-0.2-3.6C225,38.5,225.3,41,225.3,44.7z M225.3,85.5
			v10c-1.7-0.4-2.6-1.4-2.6-3.5V82C224.4,82.4,225.3,83.5,225.3,85.5z"/>
		<path style="&st1;" d="M254.9,15.6c-2.3,0-3.6,1.2-3.6,3.6v13.4c-1.9,0-3-1.4-3-3.6V15.2c0-2.4,1.3-3.6,3.6-3.6h61.3
			c2.5,0,3.6,1.2,3.6,3.6v0.4H254.9z M275.3,39.8V96c-1.9,0-3-1.4-3-3.6V36.2C274.4,36.4,275.3,37.6,275.3,39.8z"/>
		<path style="&st1;" d="M366.8,15.6c-2.3,0-3.6,1.2-3.6,3.6V96c-1.9-0.2-3-1.6-3-3.6V15.2c0-2.4,1.3-3.6,3.6-3.6H380
			c2.4,0,3.5,1.2,4.3,3.6l0.1,0.4H366.8z M385.2,56.8l15.8,38.8c-1.2-0.4-2.2-1.2-2.8-2.6l-14.5-35.3v-0.5c0-0.6,0.2-1.1,0.6-1.1
			C384.8,56.1,385.1,56.5,385.2,56.8z M404.9,58.3l-1.9-4.7V15.2c0-2.4,1.3-3.6,3.6-3.6H420c2.4,0,3.6,1.2,3.6,3.6v0.4H410
			c-2.3,0-3.6,1.2-3.6,3.6v38.8c0,0.7-0.4,1.1-0.7,1.1C405.4,59,405.2,58.8,404.9,58.3z"/>
		<path style="&st1;" d="M442.6,15.6c-2.3,0-3.6,1.2-3.6,3.6V96c-1.9-0.2-3-1.6-3-3.6V15.2c0-2.4,1.3-3.6,3.6-3.6h50.5
			c2.4,0,3.2,1.2,3.2,3.6v0.4H442.6z M464,47.2c-2.3,0-3.6-1.3-3.6-3.6v-0.4h19.1c2.4,0,3.4,1.2,3.4,3.6v0.4H464z M464,78.9
			c-2.3,0-3.6-1.3-3.6-3.6V75h29.3c2.4,0,3.6,1.2,3.6,3.6v0.4H464z"/>
		<path style="&st1;" d="M500.9,95.2c-0.1,0.2-0.2,0.5-0.2,0.5c-2.5-0.1-3.4-2-2-4.4l23-39c0.2-0.5,0.4-0.7,0.2-1.2l2,3.5
			c0.4,0.6,0.4,1.1,0,1.7L500.9,95.2z M525.3,18c-1-1.7-2.3-2.4-4.3-2.4h-14.9c-2.6,0-4,1.6-2.6,4.1l-2-3.7
			c-1.4-2.5-0.4-4.3,2.5-4.3h14.9c2.2,0,3.4,0.7,4.3,2.4L525.3,18z M532.6,30.6c0.2,0.5,0.7,0.8,1.1,0.8c0.2,0,0.6-0.2,0.8-0.7
			l10-16.7c1-1.7,2.3-2.4,4.3-2.4h15c2.9,0,3.5,1.6,2.3,4h-15.2c-2,0-3.4,0.7-4.3,2.4l-9.8,16.7c-0.2,0.5-0.5,0.6-0.8,0.6
			c-0.2,0-0.6-0.1-0.8-0.6L532.6,30.6z"/>
		<path style="&st1;" d="M576.6,15.6c-2.3,0-3.6,1.2-3.6,3.6v13.4c-1.9,0-3-1.4-3-3.6V15.2c0-2.4,1.3-3.6,3.6-3.6h61.3
			c2.5,0,3.6,1.2,3.6,3.6v0.4H576.6z M597,39.8V96c-1.9,0-3-1.4-3-3.6V36.2C596.1,36.4,597,37.6,597,39.8z"/>
		<path style="&st1;" d="M650.7,38.1c0,0.1,0,0.4,0,0.5c-2.5-0.6-3.6-1.9-3.5-4.1c0.7-8.6,5.2-24.7,29.9-24.7
			c11.9,0,19,4.3,22.8,9.2c-4.1-3.2-10.2-5.6-19.2-5.6C655.8,13.4,651.5,29.5,650.7,38.1z M668.5,96c-2.3,0-3.6-1.3-3.6-3.6V78.9
			c0-2.4,1.4-3.6,3.7-3.6H682c2.4,0,3.6,1.2,3.6,3.6h-13.4c-2.3,0-3.6,1.2-3.6,3.6V96z M669,69.2c-2.5,0-4.1-1.4-3.6-4
			c3-16.3,15-14.6,17.6-26.9c0.2-1.3,0.1-2.8-0.2-4c3.2,1.2,4.3,4.8,3.7,7.6C684,54.2,671.9,52.6,669,69.2z"/>
	</g>
	<g>
		<path style="&st2;" d="M14.1,19.4c-0.5-2.5,0.7-4,3.2-4h14.3c2.2,0,3.7,1.1,4,3.1l6.8,50c0.2,1.2,1.2,1.2,1.4,0l8-50
			c0.4-2,1.8-3.1,4-3.1h10.3c2.2,0,3.6,1.1,4,3.1l8,50c0.2,1.2,1.2,1.2,1.4,0l6.8-50c0.2-2,1.8-3.1,4-3.1h14.3c2.5,0,3.7,1.4,3.2,4
			L93.2,96.3c-0.4,2-1.8,3.1-4,3.1H72.3c-2.2,0-3.5-1.1-4-3.1l-6.6-29.5c-0.2-1.2-1.2-1.2-1.4,0l-6.6,29.5c-0.5,2-1.8,3.1-4,3.1
			H32.9c-2.2,0-3.6-1.1-4-3.1L14.1,19.4z"/>
		<path style="&st2;" d="M132.7,15.4c2.3,0,3.6,1.3,3.6,3.6v30c0,2.3,1.3,3.6,3.6,3.6h11.5c2.4,0,3.6-1.3,3.6-3.6V19
			c0-2.3,1.3-3.6,3.6-3.6h13.4c2.4,0,3.6,1.2,3.6,3.6v76.8c0,2.3-1.2,3.6-3.6,3.6h-13.4c-2.3,0-3.6-1.3-3.6-3.6v-19
			c0-2.4-1.2-3.6-3.6-3.6h-11.5c-2.3,0-3.6,1.2-3.6,3.6v19c0,2.3-1.2,3.6-3.6,3.6h-13.4c-2.3,0-3.6-1.3-3.6-3.6V19
			c0-2.4,1.2-3.6,3.6-3.6H132.7z"/>
		<path style="&st2;" d="M245.9,95.3c0,2.6-1.2,4.1-3.6,4.1h-13.4c-2.3,0-3.6-1.2-3.6-3.6V85.4c0-2.4-1.2-3.6-3.6-3.6h-10.3
			c-2.3,0-3.6,1.2-3.6,3.6v10.4c0,2.4-1.2,3.6-3.6,3.6h-13.4c-2.3,0-3.6-1.4-3.6-4.1V44.5c0-15.1,2.4-31.2,29.4-31.2
			c27,0,29.4,16.1,29.4,31.2V95.3z M225.2,44.5c0-5.8-0.8-8.6-8.8-8.6c-7.9,0-8.8,2.9-8.8,8.6v13.1c0,2.3,1.3,3.6,3.6,3.6h10.3
			c2.4-0.1,3.6-1.3,3.6-3.7V44.5z"/>
		<path style="&st2;" d="M275.3,39.7c0-2.4-1.2-3.6-3.6-3.6h-16.8c-2.3,0-3.6-1.3-3.6-3.6V19c0-2.4,1.3-3.6,3.6-3.6h61.4
			c2.4,0,3.6,1.2,3.6,3.6v13.4c0,2.3-1.2,3.6-3.6,3.6h-16.8c-2.3,0-3.6,1.2-3.6,3.6v56.2c0,2.3-1.2,3.6-3.6,3.6h-13.4
			c-2.3,0-3.6-1.3-3.6-3.6V39.7z"/>
		<path style="&st2;" d="M384.3,15.4c2,0,3.4,0.8,4.2,2.8l16.3,40c0.5,1.1,1.4,0.8,1.4-0.4V19c0-2.4,1.3-3.6,3.6-3.6h13.4
			c2.4,0,3.6,1.2,3.6,3.6v76.8c0,2.3-1.2,3.6-3.6,3.6h-17.6c-2,0-3.4-0.8-4.2-2.8l-16.3-40c-0.5-1.1-1.4-0.8-1.4,0.4v38.8
			c0,2.3-1.2,3.6-3.6,3.6h-13.4c-2.3,0-3.6-1.3-3.6-3.6V19c0-2.4,1.3-3.6,3.6-3.6H384.3z"/>
		<path style="&st2;" d="M492.9,15.4c2.4,0,3.6,1.2,3.6,3.6v13.4c0,2.3-1.2,3.6-3.6,3.6h-29c-2.3,0-3.6,1.2-3.6,3.6v3.8
			c0,2.3,1.3,3.6,3.6,3.6h18.6c2.4,0,3.6,1.2,3.6,3.6v13.4c0,2.3-1.2,3.6-3.6,3.6h-18.6c-2.3,0-3.6,1.2-3.6,3.6v3.8
			c0,2.3,1.3,3.6,3.6,3.6h29c2.4,0,3.6,1.2,3.6,3.6v13.4c0,2.4-1.2,3.6-3.6,3.6h-50.4c-2.3,0-3.6-1.3-3.6-3.6V19
			c0-2.4,1.3-3.6,3.6-3.6H492.9z"/>
		<path style="&st2;" d="M570.7,95.1c1.4,2.5,0.4,4.3-2.5,4.3h-14.9c-2,0-3.4-0.7-4.3-2.4l-11.9-20.2c-0.5-0.8-1.1-0.8-1.6,0
			l-11.5,20c-1,1.8-2.3,2.5-4.3,2.5h-16.3c-2.9,0-4-1.8-2.5-4.3l23-39c0.4-0.6,0.4-1.1,0-1.7l-20.4-34.7c-1.4-2.5-0.4-4.3,2.5-4.3
			h14.9c2,0,3.4,0.7,4.3,2.4l9.7,16.7c0.5,0.8,1.2,0.8,1.7,0l9.8-16.7c1-1.7,2.3-2.4,4.3-2.4h15c2.8,0,3.8,1.8,2.4,4.3L548,55
			c-0.4,0.6-0.4,1.1,0,1.7L570.7,95.1z"/>
		<path style="&st2;" d="M597,39.7c0-2.4-1.2-3.6-3.6-3.6h-16.8c-2.3,0-3.6-1.3-3.6-3.6V19c0-2.4,1.3-3.6,3.6-3.6H638
			c2.4,0,3.6,1.2,3.6,3.6v13.4c0,2.3-1.2,3.6-3.6,3.6h-16.8c-2.3,0-3.6,1.2-3.6,3.6v56.2c0,2.3-1.2,3.6-3.6,3.6h-13.4
			c-2.3,0-3.6-1.3-3.6-3.6V39.7z"/>
		<path style="&st2;" d="M672.4,72.7c-2.4,0-3.8-1.4-3.4-4c2.9-16.3,14.9-14.6,17.4-26.9c0.7-3.6-1.2-7.9-5.9-7.9
			c-5.6,0-8.4,3.1-9.2,8c-0.4,2.4-1.6,3.5-4,3l-13.7-3c-2.2-0.5-3.2-1.8-3.1-4c0.7-8.6,5.3-24.7,30-24.7c26.9,0,27.8,21.2,27.7,24.8
			c0,19.9-13.9,21.6-18.2,31.6c-0.8,2-1.9,3-4.1,3H672.4z M685.5,78.8c2.4,0,3.6,1.2,3.6,3.6v13.4c0,2.3-1.2,3.6-3.6,3.6h-13.4
			c-2.3,0-3.6-1.3-3.6-3.6V82.4c0-2.4,1.3-3.6,3.6-3.6H685.5z"/>
	</g>
</g>
</svg>
