<?xml version="1.0" encoding="utf-8"?>
<!-- Generator: Adobe Illustrator 18.1.1, SVG Export Plug-In . SVG Version: 6.00 Build 0)  -->
<!DOCTYPE svg PUBLIC "-//W3C//DTD SVG 1.1//EN" "http://www.w3.org/Graphics/SVG/1.1/DTD/svg11.dtd" [
	<!ENTITY st0 "fill:#DB5931;">
	<!ENTITY st1 "fill:#FFFFFF;">
	<!ENTITY st2 "fill:#FFA037;">
]>
<svg version="1.1" id="Layer_1" xmlns="http://www.w3.org/2000/svg" xmlns:xlink="http://www.w3.org/1999/xlink" x="0px" y="0px"
	 viewBox="0 0 362.3 84" style="enable-background:new 0 0 362.3 84;" xml:space="preserve">
<g>
	<path style="&st0;" d="M46.5,65.8L44,77.1c0,0.1-0.1,0.2-0.1,0.4c0,0-0.1,0-0.1,0.1c0,0.1,0,0.2-0.1,0.2c0,0.1,0,0.2-0.1,0.2V78
		l-0.2,0.3c0,0,0,0.1-0.1,0.1v0.1c-0.1,0-0.1,0-0.1,0.1L43,78.8h-0.1l-0.4,0.3h-0.1L42,79.3c-0.2,0-0.3,0.1-0.5,0.1h-0.2
		c-0.1,0-0.3,0.1-0.5,0.1H27.8c-1.1,0-2-0.4-2.5-1l-8.2-10.3h0.1l0.4,0.4c0.1,0.1,0.2,0.2,0.4,0.2c0,0.1,0,0.1,0.1,0.1
		c0.1,0,0.2,0.1,0.4,0.2c0.2,0,0.4,0.1,0.6,0.1h14.5c0.1,0,0.2-0.1,0.3-0.1h0.2l0.5-0.2l0.1-0.1l0.3-0.2l0.1-0.1l0.3-0.2
		c0-0.1,0-0.1,0.1-0.1v-0.1c0.1-0.1,0.2-0.2,0.2-0.3l0.1-0.1c0,0,0-0.1,0.1-0.2v-0.1c0.1-0.1,0.1-0.1,0.1-0.2v-0.1
		c0.1-0.1,0.2-0.3,0.2-0.5L40.7,45l4.1,18.6C45.1,64.7,45.7,65.5,46.5,65.8z M17.1,68.2L17.1,68.2L17.1,68.2z M21.2,4.7L21.2,4.7
		L21.2,4.7z M21.3,4.8L21.3,4.8L21.3,4.8L21.3,4.8z M21.3,4.9c2.6,3.4,5.7,6.8,8.4,10.2l0.2,0.3v0.1c0.1,0.1,0.1,0.1,0.1,0.2
		l0.1,0.1c0,0.1,0.1,0.2,0.1,0.3v0.2l-3.9,23.1L21.8,6.1c0-0.1-0.1-0.2-0.1-0.4c0,0,0-0.1-0.1-0.2c0-0.1,0-0.2-0.1-0.3V5.2
		C21.4,5.1,21.4,5,21.3,4.9L21.3,4.9z M47.8,68.2L47.8,68.2L47.8,68.2L47.8,68.2z M86.3,17.2L74.8,77.1c0,0.2-0.1,0.3-0.1,0.5
		c0,0.1-0.1,0.1-0.1,0.2s-0.1,0.2-0.1,0.3c-0.1,0.1-0.1,0.2-0.2,0.2c0,0.1,0,0.2-0.1,0.2v0.1c-0.1,0-0.1,0-0.1,0.1l-0.3,0.3h-0.1
		l-0.4,0.3h-0.1l-0.4,0.2h-0.1c-0.1,0-0.3,0.1-0.5,0.1h-0.1c-0.2,0-0.4,0.1-0.6,0.1H58.5c-0.3,0-0.6-0.1-0.7-0.1
		c-0.7-0.1-1.3-0.5-1.7-0.9l-8.1-10.3l0.3,0.3c0,0,0,0.1,0.1,0.1c0.1,0.1,0.2,0.2,0.3,0.2l0.1,0.1c0.2,0,0.3,0.1,0.4,0.1l0.1,0.1
		c0.2,0,0.3,0.1,0.5,0.1h14.5c0.2,0,0.4-0.1,0.6-0.1l0.4-0.2c0,0,0.1,0,0.1-0.1h0.1l0.4-0.3h0.1l0.3-0.3c0-0.1,0.1-0.2,0.1-0.3
		l0.2-0.2c0-0.1,0.1-0.2,0.1-0.4c0.1,0,0.1,0,0.1-0.1c0.1-0.2,0.1-0.4,0.1-0.6L78.1,6.8V6.6c0-0.1,0.1-0.1,0.1-0.2V5.6
		c0-0.1-0.1-0.2-0.1-0.3V5.2C78.1,5.1,78,5.1,78,5c-0.1-0.1-0.1-0.2-0.2-0.2V4.7c0,0-0.1-0.1-0.1-0.2c2.7,3.5,5.5,6.9,8.3,10.3
		c0,0.1,0.1,0.2,0.1,0.3c0.1,0.1,0.1,0.1,0.1,0.2l0.1,0.1v0.3c0.1,0,0.1,0.1,0.1,0.2L86.3,17.2C86.3,17.1,86.3,17.1,86.3,17.2z
		 M48.1,4.7c2.7,3.5,5.7,6.9,8.5,10.4c0.3,0.4,0.5,0.8,0.6,1.4l0.1,0.7L54,39.5L48.7,6.1c0-0.1,0-0.3-0.1-0.4V5.7l-0.2-0.4V5.2
		l-0.2-0.3C48.1,4.8,48.1,4.8,48.1,4.7z"/>
	<path style="&st0;" d="M84.7,68.2L84.7,68.2C84.8,68.3,84.7,68.3,84.7,68.2z M85,68.5l-0.2-0.2L85,68.5L85,68.5z M112.3,48.7h-9.8
		c-0.1,0.1-0.2,0.1-0.2,0.1H102c0,0.1-0.1,0.1-0.1,0.1h-0.2c0,0.1-0.1,0.1-0.1,0.1c-0.1,0-0.1,0-0.2,0.1h-0.1c0,0.1-0.1,0.1-0.1,0.1
		c-0.1,0-0.1,0.1-0.1,0.1c-0.1,0-0.2,0.1-0.2,0.2h-0.1c0,0.1-0.1,0.1-0.1,0.2h-0.1c0,0.1-0.1,0.2-0.2,0.3v0.1
		c-0.1,0.1-0.1,0.2-0.1,0.3l-0.1,0.1c0,0.1,0,0.3-0.1,0.4v15.5c0,0.8-0.2,1.4-0.6,1.9l-0.2,0.2c0,0.1-0.1,0.1-0.1,0.1l-0.2,0.2
		c-0.1,0-0.1,0.1-0.2,0.1c0,0-0.1,0-0.1,0.1c-0.2,0.1-0.5,0.2-0.7,0.2L98,69.1H86.3L86.2,69h-0.3c-0.1-0.1-0.2-0.1-0.2-0.1
		c-0.1,0-0.1,0-0.1-0.1h-0.2c0-0.1-0.1-0.1-0.1-0.1c-0.1,0-0.1-0.1-0.2-0.1L85,68.6H85l7.8,10c0.5,0.6,1.2,0.8,2.2,0.8h11.4
		c0.1-0.1,0.1-0.1,0.2-0.1h0.1c0.1,0,0.2-0.1,0.2-0.1h0.1c0.1-0.1,0.1-0.1,0.2-0.1l0.1-0.1c0.1,0,0.1,0,0.1-0.1h0.1l0.2-0.2h0.1
		c0-0.1,0.1-0.1,0.1-0.2h0.1c0-0.1,0.1-0.3,0.2-0.4l0.2-0.4c0-0.1,0-0.3,0.1-0.4V61.8c0,0,0-0.1,0.1-0.2v-0.6
		c0.1-0.1,0.1-0.2,0.1-0.4l0.2-0.4l0.2-0.3V60c0.1-0.1,0.2-0.1,0.2-0.2l0.3-0.2c0.1-0.1,0.2-0.1,0.2-0.2h0.1c0.1,0,0.1-0.1,0.2-0.1
		h0.1c0.1-0.1,0.1-0.1,0.2-0.1h0.1c0.1,0,0.1-0.1,0.2-0.1h0.5c0.1,0,0.2-0.1,0.4-0.1h1.1V48.7z M99.8,4.8c-0.1,0-0.1-0.1-0.2-0.2
		L99.8,5V4.8z M99.9,5.1c0.1,0,0.1,0.1,0.1,0.2c0,0.1,0.1,0.1,0.1,0.2c0,0.1,0.1,0.2,0.1,0.4V6c0,0.2,0.1,0.3,0,0.5v23.1h8.3V16.1
		c0-0.1-0.1-0.2-0.1-0.4l-0.2-0.4v-0.1l-0.3-0.4L99.9,5.1L99.9,5.1z M115.3,68.2c0,0.1,0.1,0.2,0.1,0.2
		C115.4,68.3,115.3,68.3,115.3,68.2z M115.5,68.4L115.5,68.4L115.5,68.4L115.5,68.4z M115.6,68.5L115.6,68.5L115.6,68.5L115.6,68.5z
		 M139,16.2V16c0-0.3-0.1-0.5-0.2-0.7c0,0-0.1,0-0.1-0.1c0-0.1-0.1-0.2-0.2-0.3l-8.1-10.1c0,0.1,0.1,0.1,0.1,0.1l0.1,0.1
		c0,0.1,0,0.2,0.1,0.2v0.2c0.1,0.1,0.1,0.2,0.1,0.3s0,0.2,0.1,0.3v60.9l-0.1,0.1v0.2c0,0.1,0,0.2-0.1,0.4c0,0.1-0.1,0.2-0.1,0.3
		c0,0-0.1,0-0.1,0.1c-0.2,0.4-0.5,0.7-0.7,0.8h-0.1c-0.1,0.1-0.3,0.2-0.5,0.2V69h-0.3c-0.1,0-0.1,0.1-0.2,0.1h-11.8
		c-0.1,0-0.1-0.1-0.2-0.1h-0.3c0-0.1-0.1-0.1-0.1-0.1h-0.2c0-0.1,0-0.1-0.1-0.1c0,0-0.1,0-0.1-0.1h-0.1c-0.1-0.1-0.2-0.1-0.2-0.2
		h-0.1c2.6,3.3,5.1,6.6,7.8,10c0.5,0.6,1.2,0.8,2.1,0.8H137c0.1-0.1,0.2-0.1,0.2-0.1h0.2c0,0,0.1-0.1,0.2-0.1h0.1
		c0-0.1,0.1-0.1,0.1-0.1c0.1,0,0.1-0.1,0.1-0.1c0.1,0,0.1,0,0.2-0.1h0.1c0-0.1,0.1-0.1,0.1-0.2h0.1l0.2-0.2l0.2-0.4
		c0.1-0.2,0.2-0.3,0.2-0.4c0-0.1,0.1-0.3,0.1-0.4v-0.3c0.1,0,0.1-0.1,0.1-0.2L139,16.2L139,16.2z M130.4,4.8c0,0-0.1-0.1-0.1-0.2
		C130.3,4.7,130.4,4.8,130.4,4.8z"/>
	<path style="&st0;" d="M143.7,63.3l0.6,0.8L143.7,63.3z M194.4,59.2V32.7c-0.1-0.2-0.1-0.4-0.1-0.6v-0.3c0-0.3-0.1-0.6-0.1-0.8
		c0-0.3-0.1-0.6-0.1-0.9c0-0.1,0-0.2-0.1-0.3v-0.4c0-0.1-0.1-0.2-0.1-0.3v-0.2l-0.2-0.8v-0.2l-0.3-0.9l-0.3-0.9v-0.2
		c-0.1-0.3-0.3-0.6-0.4-0.9v-0.2l-0.5-0.9v-0.1c-0.1-0.3-0.3-0.6-0.5-0.8v-0.2l-0.6-0.8c0-0.1,0-0.2-0.1-0.2l-0.6-0.9
		c0,0,0-0.1-0.1-0.1c-0.2-0.3-0.4-0.7-0.7-0.9c-2.4-3.1-5-6.1-7.5-9.2c0.2,0.3,0.4,0.5,0.5,0.7v0.1h0.1v0.1h0.1v0.1l0.4,0.7l0.1,0.1
		v0.1l0.5,0.8v0.1c0,0,0,0.1,0.1,0.1v0.1l0.3,0.8h0.1v0.2l0.1,0.1l0.4,0.7v0.3l0.3,0.8v0.1c0,0,0.1,0.1,0.1,0.2
		c0,0.3,0.1,0.6,0.2,0.8v0.1l0.2,0.8l0.3,2v0.1c0.1,0.3,0.1,0.6,0.1,0.7v0.2c0.1,0.6,0.1,1.2,0.1,1.7v25.5c0,0.5-0.1,1-0.1,1.6v0.1
		c0,0.1,0,0.3-0.1,0.5v0.7c-0.1,0.3-0.1,0.5-0.1,0.7v0.1c-0.1,0.2-0.1,0.4-0.1,0.6V53l-0.2,0.7c0,0.4-0.1,0.7-0.1,0.9l-0.5,1.7v0.1
		c-0.1,0.3-0.2,0.7-0.4,0.9v0.1c-0.2,0.7-0.5,1.4-0.8,2.1l-0.4,0.8c-0.1,0.2-0.2,0.4-0.4,0.6c0,0.1,0,0.2-0.1,0.2
		c-0.1,0.3-0.2,0.5-0.4,0.7c-0.1,0.2-0.3,0.4-0.4,0.7c-0.1,0-0.1,0.1-0.1,0.1l-0.5,0.6c0,0.1-0.1,0.1-0.1,0.2l-1.3,1.4
		c0,0,0,0.1-0.1,0.1l-0.6,0.6c-0.1,0.1-0.2,0.2-0.3,0.2c0,0.1-0.1,0.2-0.1,0.2c-0.1,0.1-0.2,0.2-0.3,0.2c-0.6,0.5-1.1,0.8-1.7,1.2
		v0.1c-0.1,0-0.2,0.1-0.3,0.1l-1,0.7c-0.1,0-0.2,0.1-0.4,0.1v0.1c0,0-0.1,0-0.2,0.1h-0.1l-0.6,0.3c-0.1,0-0.2,0.1-0.4,0.2
		c-0.1,0-0.2,0.1-0.4,0.1c0,0.1-0.1,0.1-0.2,0.1l-0.9,0.4c-0.2,0.1-0.4,0.1-0.5,0.2c-0.1,0-0.2,0-0.3,0.1h-0.3l-0.9,0.3
		c0,0-0.1,0.1-0.2,0.1c-0.2,0-0.3,0-0.4,0.1c-0.2,0-0.3,0-0.4,0.1c-0.3,0-0.5,0.1-0.7,0.1h-0.2c-0.1,0.1-0.2,0.1-0.3,0.1
		c-0.2,0-0.4,0.1-0.6,0.1H168v0.1h-0.4c-0.2,0-0.4,0.1-0.5,0.1H167c-0.3,0-0.5,0.1-0.7,0.1h-0.1c-0.3,0-0.6,0-0.7,0.1h-0.6
		c-0.7,0-1.6,0.1-2.3,0.1c-0.4,0-0.7,0-1-0.1h-1.9c-0.1-0.1-0.2-0.1-0.4-0.1h-0.5c-0.2,0-0.3,0-0.4-0.1h-0.6c-0.1,0-0.2-0.1-0.3-0.1
		c-0.3,0-0.5,0-0.7-0.1h-0.2c-0.3,0-0.6-0.1-0.8-0.2h-0.1c-0.3,0-0.5-0.1-0.7-0.1c0,0-0.1-0.1-0.2-0.1c-0.2,0-0.4-0.1-0.6-0.1
		c-0.1,0-0.2-0.1-0.3-0.1s-0.3-0.1-0.5-0.1c-0.1-0.1-0.2-0.1-0.3-0.1c-0.1-0.1-0.3-0.1-0.5-0.2h-0.2c-0.2-0.1-0.4-0.2-0.5-0.2
		s-0.2-0.1-0.2-0.1c-0.3-0.1-0.5-0.2-0.7-0.2v-0.1l-0.7-0.2l-0.1-0.1l-0.6-0.3h-0.2l-0.4-0.3c-0.1,0-0.2,0-0.2-0.1
		c-0.2,0-0.3-0.1-0.5-0.2l-0.1-0.1l-0.5-0.3h-0.1l-0.5-0.4h-0.1l-1.4-1.1l-0.4-0.4c-0.1,0-0.1,0-0.1-0.1c-0.1-0.1-0.3-0.2-0.4-0.4
		h-0.1l-0.9-0.8c2.6,3.2,5,6.4,7.6,9.5c3.4,4.1,9.1,7.4,18.9,7.4h1.3c0.2,0,0.4,0,0.7-0.1h1.2c0.2-0.1,0.4-0.1,0.6-0.1h0.4
		c0.2-0.1,0.4-0.1,0.5-0.1h0.4c0.2-0.1,0.4-0.1,0.6-0.1c0.1,0,0.2-0.1,0.3-0.1c0.2,0,0.4,0,0.6-0.1h0.3c0.2-0.1,0.4-0.1,0.5-0.1
		c0.1-0.1,0.2-0.1,0.3-0.1c0.2,0,0.5-0.1,0.7-0.1c0-0.1,0.1-0.1,0.2-0.1l0.7-0.2h0.2c0.2-0.1,0.4-0.2,0.6-0.2c0.1,0,0.2-0.1,0.3-0.1
		l0.4-0.2c0.1,0,0.2,0,0.3-0.1c0.2,0,0.3-0.1,0.5-0.1c0.1-0.1,0.2-0.1,0.2-0.1l0.5-0.2c0,0,0.1-0.1,0.2-0.1l0.4-0.2
		c0.1,0,0.2-0.1,0.3-0.1l0.4-0.2c0.1,0,0.1-0.1,0.2-0.1c0.2-0.1,0.3-0.2,0.4-0.2c0.1-0.1,0.2-0.1,0.2-0.1l0.4-0.3
		c0.1,0,0.2-0.1,0.2-0.1l1-0.7c0.1,0,0.1-0.1,0.2-0.1l0.4-0.3l0.1-0.1l0.4-0.3c0,0,0.1-0.1,0.2-0.1c0-0.1,0.1-0.2,0.2-0.3
		c0.1,0,0.2-0.1,0.2-0.1l0.3-0.3c0.1,0,0.1-0.1,0.2-0.1l0.3-0.3c0-0.1,0.1-0.1,0.1-0.2l0.3-0.2c0-0.1,0.1-0.1,0.1-0.2l0.3-0.3
		c0.1,0,0.1-0.1,0.1-0.1c0.1-0.2,0.3-0.3,0.4-0.4v-0.1l0.4-0.4l0.5-0.7c0,0,0-0.1,0.1-0.1c0.3-0.5,0.6-0.8,0.7-1.3l0.1-0.1l0.4-0.7
		L192,70c0.1-0.1,0.1-0.1,0.1-0.2l0.3-0.7l0.1-0.1l0.2-0.6l0.1-0.1l0.2-0.7v-0.1h0.1c0.1-0.3,0.2-0.6,0.2-0.8c0-0.1,0.1-0.1,0.1-0.1
		l0.2-0.8v-0.1c0.1-0.3,0.2-0.6,0.2-0.8h0.1c0-0.3,0.1-0.6,0.1-0.8V64c0.1-0.2,0.1-0.4,0.1-0.6c0.1,0,0.1-0.1,0.1-0.1
		c0-0.3,0-0.5,0.1-0.7v-0.6c0-0.1,0-0.1,0.1-0.2v-0.7c0-0.2,0.1-0.3,0.1-0.5v-1.3C194.3,59.4,194.3,59.3,194.4,59.2z M155.3,26.7
		v19.7c0,0.3,0,0.6,0.1,0.8v0.2c0,0.3,0,0.5,0.1,0.7v0.1c0,0.6,0.1,1.1,0.3,1.6V50c0,0.2,0.1,0.5,0.2,0.7v0.1c1,0.6,2.4,0.9,4.3,0.9
		c1.3,0,2.3-0.2,3.3-0.5V40c0-0.3,0-0.6,0.1-0.7V37c0-0.3,0.1-0.7,0.1-0.9v-0.2c0-0.3,0.1-0.6,0.1-0.8v-0.2c0-0.3,0.1-0.6,0.1-0.8
		c0.1,0,0.1-0.1,0.1-0.1c0-0.3,0.1-0.6,0.1-0.7l0.3-0.7v-0.2c0.1-0.1,0.1-0.3,0.2-0.5l0.2-0.5l0.1-0.1c0-0.1,0.1-0.2,0.2-0.3
		c0,0,0-0.1,0.1-0.1c0-0.1,0.1-0.2,0.1-0.3l0.2-0.2v-0.1c0.1,0,0.2-0.1,0.2-0.2c0,0,0.1,0,0.1-0.1c0.1,0,0.1-0.1,0.2-0.1
		c0-0.1,0.1-0.1,0.1-0.1l0.3-0.3l0.4-0.2c0,0,0-0.1,0.1-0.1c0,0,0.1-0.1,0.2-0.1s0.1-0.1,0.2-0.1c0,0,0.1-0.1,0.2-0.1
		c0.1,0,0.1-0.1,0.2-0.1s0.1,0,0.2-0.1h0.1v-2.2c0.1-3.1,0-5.5-0.7-7.5c-0.4-0.2-0.8-0.6-1.3-0.7c-0.2-0.1-0.4-0.1-0.5-0.2h-0.1
		l-1-0.2h-2.7c-0.1,0-0.2,0.1-0.3,0.1H161c-0.2,0-0.3,0-0.4,0.1h-0.2c-0.1,0-0.3,0.1-0.4,0.1H160c-0.1,0-0.1,0.1-0.2,0.1h-0.2
		c0,0.1-0.1,0.1-0.1,0.1h-0.2c0,0.1-0.1,0.1-0.1,0.1c-0.1,0-0.1,0-0.2,0.1c-0.1,0-0.2,0-0.2,0.1h-0.2c-0.1,0.1-0.2,0.1-0.2,0.2
		c-0.1,0-0.1,0-0.1,0.1c-0.2,0-0.3,0.1-0.4,0.2s-0.2,0.1-0.2,0.2h-0.1c0,0.1-0.1,0.1-0.1,0.1l-0.2,0.2c0,0,0,0.1-0.1,0.1
		c0,0.1-0.1,0.1-0.1,0.2c-0.1,0-0.1,0.1-0.1,0.1l-0.1,0.1c-0.1,0.1-0.2,0.2-0.2,0.3c-0.1,0.1-0.2,0.1-0.2,0.2l-0.2,0.3l-0.1,0.1
		l-0.4,0.9v0.1c-0.2,0.5-0.3,0.9-0.4,1.5v0.1l-0.2,0.8v0.1c0,0.3-0.1,0.7-0.1,0.9v0.2C155.4,26,155.3,26.3,155.3,26.7z M182.1,10.2
		l-0.3-0.4V9.7l-0.3-0.3L182.1,10.2z M182.1,10.2c0.1,0,0.1,0.1,0.2,0.2v-0.1L182.1,10.2z M182.4,10.5L182.4,10.5L182.4,10.5z"/>
	<path style="&st0;" d="M198.1,63.3l0.6,0.8L198.1,63.3z M248.8,59.2V32.7c-0.1-0.2-0.1-0.4-0.1-0.6v-0.3c0-0.3-0.1-0.6-0.1-0.8
		c0-0.3-0.1-0.6-0.1-0.9c0-0.1,0-0.2-0.1-0.3v-0.4c0-0.1-0.1-0.2-0.1-0.3v-0.2l-0.2-0.8v-0.2l-0.3-0.9l-0.3-0.9v-0.2
		c-0.1-0.3-0.3-0.6-0.4-0.9v-0.2l-0.5-0.9v-0.1c-0.1-0.3-0.3-0.6-0.5-0.8v-0.2l-0.6-0.8c0-0.1,0-0.2-0.1-0.2l-0.6-0.9
		c0,0,0-0.1-0.1-0.1c-0.2-0.3-0.4-0.7-0.7-0.9c-2.4-3.1-5-6.1-7.5-9.2c0.2,0.3,0.4,0.5,0.5,0.7v0.1h0.1v0.1h0.1v0.1l0.4,0.7l0.1,0.1
		v0.1l0.5,0.8v0.1c0,0,0,0.1,0.1,0.1v0.1l0.3,0.8h0.1v0.2l0.1,0.1l0.4,0.7v0.3l0.3,0.8v0.1c0,0,0.1,0.1,0.1,0.2
		c0,0.3,0.1,0.6,0.2,0.8v0.1l0.2,0.8l0.3,2v0.1c0.1,0.3,0.1,0.6,0.1,0.7v0.2c0.1,0.6,0.1,1.2,0.1,1.7v25.5c0,0.5-0.1,1-0.1,1.6v0.1
		c0,0.1,0,0.3-0.1,0.5v0.7c-0.1,0.3-0.1,0.5-0.1,0.7v0.1c-0.1,0.2-0.1,0.4-0.1,0.6V53l-0.2,0.7c0,0.4-0.1,0.7-0.1,0.9l-0.5,1.7v0.1
		c-0.1,0.3-0.2,0.7-0.4,0.9v0.1c-0.2,0.7-0.5,1.4-0.8,2.1l-0.4,0.8c-0.1,0.2-0.2,0.4-0.4,0.6c0,0.1,0,0.2-0.1,0.2
		c-0.1,0.3-0.2,0.5-0.4,0.7c-0.1,0.2-0.3,0.4-0.4,0.7c-0.1,0-0.1,0.1-0.1,0.1l-0.5,0.6c0,0.1-0.1,0.1-0.1,0.2l-1.3,1.4
		c0,0,0,0.1-0.1,0.1l-0.6,0.6c-0.1,0.1-0.2,0.2-0.3,0.2c0,0.1-0.1,0.2-0.1,0.2c-0.1,0.1-0.2,0.2-0.3,0.2c-0.6,0.5-1.1,0.8-1.7,1.2
		v0.1c-0.1,0-0.2,0.1-0.3,0.1l-1,0.7c-0.1,0-0.2,0.1-0.4,0.1v0.1c0,0-0.1,0-0.2,0.1h-0.1l-0.6,0.3c-0.1,0-0.2,0.1-0.4,0.2
		c-0.1,0-0.2,0.1-0.4,0.1c0,0.1-0.1,0.1-0.2,0.1l-0.9,0.4c-0.2,0.1-0.4,0.1-0.5,0.2c-0.1,0-0.2,0-0.3,0.1h-0.3l-0.9,0.3
		c0,0-0.1,0.1-0.2,0.1c-0.2,0-0.3,0-0.4,0.1c-0.2,0-0.3,0-0.4,0.1c-0.3,0-0.5,0.1-0.7,0.1h-0.2c-0.1,0.1-0.2,0.1-0.3,0.1
		c-0.2,0-0.4,0.1-0.6,0.1h-0.3v0.1h-0.4c-0.2,0-0.4,0.1-0.5,0.1h-0.2c-0.3,0-0.5,0.1-0.7,0.1h-0.1c-0.3,0-0.6,0-0.7,0.1h-0.6
		c-0.7,0-1.6,0.1-2.3,0.1c-0.4,0-0.7,0-1-0.1H214c-0.1-0.1-0.2-0.1-0.4-0.1h-0.5c-0.2,0-0.3,0-0.4-0.1h-0.6c-0.1,0-0.2-0.1-0.3-0.1
		c-0.3,0-0.5,0-0.7-0.1h-0.2c-0.3,0-0.6-0.1-0.8-0.2h-0.1c-0.3,0-0.5-0.1-0.7-0.1c0,0-0.1-0.1-0.2-0.1c-0.2,0-0.4-0.1-0.6-0.1
		c-0.1,0-0.2-0.1-0.3-0.1s-0.3-0.1-0.5-0.1c-0.1-0.1-0.2-0.1-0.3-0.1c-0.1-0.1-0.3-0.1-0.5-0.2H207c-0.2-0.1-0.4-0.2-0.5-0.2
		s-0.2-0.1-0.2-0.1c-0.3-0.1-0.5-0.2-0.7-0.2v-0.1l-0.7-0.2l-0.1-0.1l-0.6-0.3h-0.2l-0.4-0.3c-0.1,0-0.2,0-0.2-0.1
		c-0.2,0-0.3-0.1-0.5-0.2l-0.1-0.1l-0.5-0.3h-0.1l-0.5-0.4H202l-1.4-1.1l-0.4-0.4c-0.1,0-0.1,0-0.1-0.1c-0.1-0.1-0.3-0.2-0.4-0.4
		h-0.1l-0.9-0.8c2.6,3.2,5,6.4,7.6,9.5c3.4,4.1,9.1,7.4,18.9,7.4h1.3c0.2,0,0.4,0,0.7-0.1h1.2c0.2-0.1,0.4-0.1,0.6-0.1h0.4
		c0.2-0.1,0.4-0.1,0.5-0.1h0.4c0.2-0.1,0.4-0.1,0.6-0.1c0.1,0,0.2-0.1,0.3-0.1c0.2,0,0.4,0,0.6-0.1h0.3c0.2-0.1,0.4-0.1,0.5-0.1
		c0.1-0.1,0.2-0.1,0.3-0.1c0.2,0,0.5-0.1,0.7-0.1c0-0.1,0.1-0.1,0.2-0.1L234,80h0.2c0.2-0.1,0.4-0.2,0.6-0.2c0.1,0,0.2-0.1,0.3-0.1
		l0.4-0.2c0.1,0,0.2,0,0.3-0.1c0.2,0,0.3-0.1,0.5-0.1c0.1-0.1,0.2-0.1,0.2-0.1l0.5-0.2c0,0,0.1-0.1,0.2-0.1l0.4-0.2
		c0.1,0,0.2-0.1,0.3-0.1l0.4-0.2c0.1,0,0.1-0.1,0.2-0.1c0.2-0.1,0.3-0.2,0.4-0.2c0.1-0.1,0.2-0.1,0.2-0.1l0.4-0.3
		c0.1,0,0.2-0.1,0.2-0.1l1-0.7c0.1,0,0.1-0.1,0.2-0.1l0.4-0.3l0.1-0.1l0.4-0.3c0,0,0.1-0.1,0.2-0.1c0-0.1,0.1-0.2,0.2-0.3
		c0.1,0,0.2-0.1,0.2-0.1l0.3-0.3c0.1,0,0.1-0.1,0.2-0.1l0.3-0.3c0-0.1,0.1-0.1,0.1-0.2l0.3-0.2c0-0.1,0.1-0.1,0.1-0.2l0.3-0.3
		c0.1,0,0.1-0.1,0.1-0.1c0.1-0.2,0.3-0.3,0.4-0.4v-0.1l0.4-0.4l0.5-0.7c0,0,0-0.1,0.1-0.1c0.3-0.5,0.6-0.8,0.7-1.3l0.1-0.1l0.4-0.7
		l0.3-0.7c0.1-0.1,0.1-0.1,0.1-0.2l0.3-0.7l0.1-0.1l0.2-0.6l0.1-0.1l0.2-0.7v-0.1h0.1c0.1-0.3,0.2-0.6,0.2-0.8
		c0-0.1,0.1-0.1,0.1-0.1l0.2-0.8v-0.1c0.1-0.3,0.2-0.6,0.2-0.8h0.1c0-0.3,0.1-0.6,0.1-0.8V64c0.1-0.2,0.1-0.4,0.1-0.6
		c0.1,0,0.1-0.1,0.1-0.1c0-0.3,0-0.5,0.1-0.7v-0.6c0-0.1,0-0.1,0.1-0.2v-0.7c0-0.2,0.1-0.3,0.1-0.5v-1.3
		C248.7,59.4,248.7,59.3,248.8,59.2z M209.7,26.7v19.7c0,0.3,0,0.6,0.1,0.8v0.2c0,0.3,0,0.5,0.1,0.7v0.1c0,0.6,0.1,1.1,0.3,1.6V50
		c0,0.2,0.1,0.5,0.2,0.7v0.1c1,0.6,2.4,0.9,4.3,0.9c1.3,0,2.3-0.2,3.3-0.5V40c0-0.3,0-0.6,0.1-0.7V37c0-0.3,0.1-0.7,0.1-0.9v-0.2
		c0-0.3,0.1-0.6,0.1-0.8v-0.2c0-0.3,0.1-0.6,0.1-0.8c0.1,0,0.1-0.1,0.1-0.1c0-0.3,0.1-0.6,0.1-0.7l0.3-0.7v-0.2
		c0.1-0.1,0.1-0.3,0.2-0.5l0.2-0.5l0.1-0.1c0-0.1,0.1-0.2,0.2-0.3c0,0,0-0.1,0.1-0.1c0-0.1,0.1-0.2,0.1-0.3l0.2-0.2v-0.1
		c0.1,0,0.2-0.1,0.2-0.2c0,0,0.1,0,0.1-0.1c0.1,0,0.1-0.1,0.2-0.1c0-0.1,0.1-0.1,0.1-0.1l0.3-0.3l0.4-0.2c0,0,0-0.1,0.1-0.1
		c0,0,0.1-0.1,0.2-0.1s0.1-0.1,0.2-0.1c0,0,0.1-0.1,0.2-0.1c0.1,0,0.1-0.1,0.2-0.1s0.1,0,0.2-0.1h0.1v-2.2c0.1-3.1,0-5.5-0.7-7.5
		c-0.4-0.2-0.8-0.6-1.3-0.7c-0.2-0.1-0.4-0.1-0.5-0.2h-0.1l-1-0.2h-2.7c-0.1,0-0.2,0.1-0.3,0.1h-0.2c-0.2,0-0.3,0-0.4,0.1h-0.2
		c-0.1,0-0.3,0.1-0.4,0.1h-0.1c-0.1,0-0.1,0.1-0.2,0.1H214c0,0.1-0.1,0.1-0.1,0.1h-0.2c0,0.1-0.1,0.1-0.1,0.1c-0.1,0-0.1,0-0.2,0.1
		c-0.1,0-0.2,0-0.2,0.1h-0.2c-0.1,0.1-0.2,0.1-0.2,0.2c-0.1,0-0.1,0-0.1,0.1c-0.2,0-0.3,0.1-0.4,0.2s-0.2,0.1-0.2,0.2h-0.1
		c0,0.1-0.1,0.1-0.1,0.1l-0.2,0.2c0,0,0,0.1-0.1,0.1c0,0.1-0.1,0.1-0.1,0.2c-0.1,0-0.1,0.1-0.1,0.1l-0.1,0.1
		c-0.1,0.1-0.2,0.2-0.2,0.3c-0.1,0.1-0.2,0.1-0.2,0.2l-0.2,0.3l-0.1,0.1l-0.4,0.9v0.1c-0.2,0.5-0.3,0.9-0.4,1.5v0.1l-0.2,0.8v0.1
		c0,0.3-0.1,0.7-0.1,0.9v0.2C209.8,26,209.7,26.3,209.7,26.7z M236.5,10.2l-0.3-0.4V9.7L236,9.4L236.5,10.2z M236.5,10.2
		c0.1,0,0.1,0.1,0.2,0.2v-0.1L236.5,10.2z M236.8,10.5L236.8,10.5L236.8,10.5z"/>
	<path style="&st0;" d="M304.1,37.5c0,0.3-0.1,0.6-0.1,0.9V39c0,0.3,0,0.6-0.1,0.9v0.5l-0.2,1.3v0.1l-0.2,1.2v0.1
		c-0.1,0.4-0.2,0.7-0.2,1c0,0-0.1,0.1-0.1,0.2c0,0.3-0.1,0.6-0.2,0.8c0,0.1-0.1,0.2-0.1,0.3l-0.2,0.7c0,0.1-0.1,0.2-0.1,0.3
		c0,0.1-0.1,0.2-0.1,0.2c0,0.1-0.1,0.2-0.1,0.3l-0.4,0.9c0,0.1-0.1,0.2-0.1,0.3l-0.6,1.2c-0.2,0.3-0.3,0.6-0.5,0.7
		c0,0.1-0.1,0.2-0.1,0.2l-0.4,0.7c-0.1,0-0.1,0.1-0.2,0.2l-0.5,0.7l-0.7,0.8l-0.3,0.3c-0.2,0.1-0.3,0.3-0.5,0.5l-0.4,0.3
		c-0.1,0.2-0.3,0.3-0.5,0.5l-0.4,0.3l-0.5,0.4l-0.4,0.3l-0.6,0.3l-0.4,0.3l-0.6,0.3l-0.5,0.3l-0.7,0.3l-0.4,0.2
		c-0.3,0.1-0.6,0.2-0.8,0.4c-0.1,0-0.2,0-0.3,0.1c-0.4,0.1-0.7,0.2-1.1,0.4c-0.1,0-0.3,0-0.4,0.1l-0.8,0.2c-0.2,0.1-0.4,0.1-0.6,0.1
		c-0.2,0.1-0.5,0.2-0.7,0.2c-0.2,0.1-0.4,0.1-0.6,0.1l-0.8,0.2c-0.2,0-0.4,0-0.6,0.1c-0.3,0-0.6,0.1-0.8,0.1c-0.2,0-0.4,0-0.6,0.1
		h-0.9c-0.2,0.1-0.4,0.1-0.7,0.1h-1c-0.2,0-0.3,0.1-0.5,0.1h-6.8l-0.1,0.1h-0.2c-0.1,0-0.1,0-0.2,0.1h-0.2l-0.1,0.1h-0.1l-0.1,0.1
		c-0.1,0-0.2,0.1-0.2,0.1s-0.1,0-0.1,0.1c-0.1,0-0.1,0.1-0.2,0.1v0.1c-0.1,0-0.1,0.1-0.2,0.2c-0.1,0.1-0.2,0.2-0.2,0.3l-0.1,0.1
		c0,0.1-0.1,0.2-0.1,0.3v0.1c-0.1,0.1-0.1,0.2-0.1,0.4c-0.1,0.1-0.1,0.2-0.1,0.2v15.6c0,0.2,0,0.4-0.1,0.5v0.2
		c0,0.2-0.1,0.3-0.1,0.5c0,0.1-0.1,0.3-0.2,0.4v0.1c0,0-0.1,0-0.1,0.1l-0.1,0.1c0,0.1-0.1,0.2-0.2,0.2c-0.1,0.2-0.2,0.3-0.4,0.3V79
		l-0.5,0.2h-0.1c-0.1,0.1-0.3,0.1-0.5,0.1H271c-0.2,0.1-0.4,0.1-0.6,0.1h-10.6c-1,0-1.8-0.4-2.2-0.9c-2.8-3.5-5.4-6.8-8.1-10.3
		l0.4,0.4c0,0,0.1,0,0.1,0.1h0.1c0.1,0.1,0.1,0.1,0.2,0.1l0.1,0.1h0.1c0.1,0.1,0.1,0.1,0.2,0.1h0.1c0.1,0,0.2,0.1,0.2,0.1h0.5
		c0.1,0.1,0.2,0.1,0.4,0.1h10.5c0.2,0,0.4-0.1,0.6-0.1h0.1c0.2,0,0.4-0.1,0.5-0.1h0.1c0.2-0.1,0.4-0.2,0.5-0.2v-0.1h0.1l0.1-0.1
		c0.3-0.2,0.5-0.4,0.6-0.7c0.1-0.1,0.2-0.3,0.2-0.4c0.1-0.2,0.1-0.4,0.1-0.6c0.1,0,0.1-0.1,0.1-0.1V50.8c0.1-0.1,0.1-0.1,0.1-0.2
		v-0.1c0-0.1,0-0.2,0.1-0.4c0-0.1,0.1-0.2,0.1-0.4h0.1c0-0.1,0.1-0.2,0.2-0.3v-0.1c0.1,0,0.1-0.1,0.2-0.2L266,49h0.1
		c0.1-0.1,0.1-0.1,0.2-0.1c0-0.1,0-0.1,0.1-0.1c0,0,0.1,0,0.1-0.1h0.2l0.1-0.1h0.2c0,0,0.1,0,0.2-0.1h5.2c0.6,0,1.1,0,1.7-0.1h0.6
		c1.4,0,2.7-0.2,3.9-0.4h0.7l2.1-0.5h0.3l1-0.3c0.1-0.1,0.2-0.1,0.2-0.1c0.5-0.2,0.9-0.3,1.3-0.5h0.2l0.9-0.4
		c0.2-0.1,0.3-0.2,0.4-0.2l0.7-0.4c0.1,0,0.2-0.1,0.4-0.2l0.6-0.3l0.1-0.1l0.8-0.6l0.4-0.2l0.6-0.5l0.3-0.2c0.2-0.2,0.4-0.4,0.6-0.5
		l0.8-0.8c0-0.1,0.1-0.1,0.1-0.1l1.4-1.9l0.4-0.6c0.1-0.1,0.1-0.1,0.1-0.2l0.5-0.7l0.6-1.2c0-0.1,0-0.1,0.1-0.2l0.4-1.1l0.2-0.4
		c0-0.1,0.1-0.2,0.1-0.4c0.1-0.1,0.1-0.3,0.2-0.5l0.3-1.6c0-0.2,0.1-0.4,0.1-0.7c0.2-0.9,0.3-2,0.4-3v-0.3c0.1-0.4,0.1-0.7,0.1-1.2
		v-0.3c0.1-0.7,0.1-1.5,0.1-2.2V24c0-0.4-0.1-0.7-0.1-1.1v-0.5c-0.1-0.4-0.1-0.7-0.1-1.1c0-0.1-0.1-0.1-0.1-0.2V21
		c0-0.6-0.1-1-0.2-1.6v-0.1c-0.1-0.1-0.1-0.3-0.1-0.4c0-0.2-0.1-0.5-0.1-0.7c-0.1-0.1-0.1-0.2-0.1-0.2V18c0-0.1-0.1-0.2-0.1-0.3
		c0-0.3-0.1-0.5-0.2-0.7V17c0-0.2-0.1-0.3-0.1-0.4v-0.1l-0.2-0.6v-0.2l-0.2-0.3v-0.1l-0.2-0.6c0,0-0.1-0.1-0.1-0.2
		c0-0.1-0.1-0.2-0.1-0.3l-0.1-0.1c0-0.1-0.1-0.3-0.2-0.4c0-0.2-0.1-0.4-0.2-0.5v-0.1l-0.2-0.3l-0.3-0.6v-0.1c-0.1,0-0.1-0.1-0.1-0.1
		l-0.1-0.1c-0.1-0.2-0.2-0.3-0.2-0.4l-0.3-0.4c0-0.1-0.1-0.1-0.1-0.2l-0.3-0.3v-0.1c2.6,3.4,5.4,6.6,8,9.8c0.3,0.3,0.5,0.6,0.7,0.8
		c0,0.1,0.1,0.2,0.2,0.3l0.4,0.7l0.2,0.3l0.4,0.7c0,0,0.1,0.1,0.1,0.2l0.5,1c0,0.1,0.1,0.1,0.1,0.2l0.3,0.8c0.1,0.1,0.1,0.2,0.1,0.4
		l0.3,0.7c0,0.1,0.1,0.2,0.1,0.4l0.3,1.1l0.3,1.2V30l0.2,1.1v0.3l0.2,1.5v0.3c0,0.4,0,0.8,0.1,1.2V37.5z M265,29.4V22
		c0-0.1,0-0.1,0.1-0.2v-0.1c0-0.1,0-0.2,0.1-0.3v-0.1c0-0.1,0.1-0.2,0.1-0.4h0.1c0-0.1,0.1-0.2,0.2-0.3v-0.1c0.1,0,0.1-0.1,0.2-0.2
		c0.1,0,0.1-0.1,0.2-0.2h0.1c0-0.1,0.1-0.1,0.2-0.1c0,0,0-0.1,0.1-0.1c0,0,0.1,0,0.1-0.1h0.2l0.1-0.1h0.4v-0.1h7.8
		c0.2,0,0.4,0,0.6,0.1c0.2,0,0.3,0.1,0.4,0.1h0.2c0.1,0.1,0.2,0.1,0.3,0.1h0.2c0.1,0.1,0.2,0.1,0.3,0.1h0.1l0.4,0.2
		c0.2,0.7,0.3,1.6,0.3,2.7c-0.1,5.8-2.3,6.4-6.8,6.4H265z M291.7,10.6l0.2,0.3c-0.2-0.1-0.3-0.3-0.4-0.5L291.7,10.6z"/>
	<path style="&st0;" d="M328.7,56.1c-0.1,0.2-0.1,0.4-0.1,0.6l-0.2,0.6c0,0.1-0.1,0.3-0.1,0.4c-0.1,0-0.1,0-0.1,0.1
		c0,0.1-0.1,0.2-0.2,0.3v0.1c-0.1,0-0.1,0.1-0.2,0.1c0,0,0,0.1-0.1,0.1c0,0,0,0.1-0.1,0.1l-0.1,0.1c0,0-0.1,0-0.1,0.1h-0.1
		c-0.1,0-0.1,0.1-0.2,0.1h-0.1c-0.1,0.1-0.1,0.1-0.2,0.1h-0.1c-0.1,0.1-0.1,0.1-0.2,0.1h-0.4c0,0,0,0.1-0.1,0.1h-2.4
		c1.5,1.8,2.9,3.6,4.3,5.3c0.1,0.1,0.2,0.2,0.2,0.4c0.1,0,0.1,0,0.1,0.1l0.2,0.4v0.5c0.1,0,0.1,0.1,0.1,0.1v11.7
		c0,0.1-0.1,0.1-0.1,0.1c0,0.1,0,0.3-0.1,0.4c0,0.2-0.1,0.3-0.1,0.4c0,0-0.1,0-0.1,0.1c0,0.1-0.1,0.2-0.2,0.3l-0.2,0.2v0.1
		c-0.1,0-0.1,0-0.2,0.1l-0.1,0.1h-0.1l-0.1,0.1c-0.1,0-0.1,0.1-0.2,0.1h-0.1c-0.1,0.1-0.1,0.1-0.2,0.1h-0.1
		c-0.1,0.1-0.2,0.1-0.2,0.1h-0.4c0,0-0.1,0-0.1,0.1h-10.9c-1,0-1.8-0.4-2.2-0.9c-2.7-3.5-5.3-6.9-8-10.3c0.1,0,0.1,0.1,0.1,0.1
		c0.1,0,0.1,0,0.1,0.1c0,0,0.1,0,0.1,0.1c0.1,0,0.1,0,0.1,0.1h0.1c0.1,0.1,0.1,0.1,0.2,0.1l0.1,0.1c0,0,0.1,0,0.1,0.1h0.2l0.1,0.1
		h0.2c0,0,0.1,0,0.2,0.1h12c0.1-0.1,0.1-0.1,0.2-0.1h0.1c0.1,0,0.1-0.1,0.2-0.1h0.1l0.3-0.2l0.4-0.3h0.1c0.1-0.2,0.2-0.4,0.4-0.6
		c0-0.1,0.1-0.3,0.1-0.4h0.1c0-0.1,0-0.3,0.1-0.4V55.8c0-1.8-0.9-2.7-2.7-2.8c-0.1-1.8-0.9-2.7-2.8-2.7H307
		c-0.6-0.7-1.1-1.6-1.8-2.3c0,0,0.1,0,0.1,0.1h0.1l0.1,0.1c0.1,0.1,0.1,0.1,0.2,0.1l0.1,0.1h0.1c0.1,0,0.1,0.1,0.2,0.1h0.1
		c0.1,0,0.1,0,0.2,0.1h12c0.1-0.1,0.2-0.1,0.2-0.1h0.1c0.1,0,0.2-0.1,0.3-0.1c0.1-0.1,0.1-0.1,0.2-0.1c0.1-0.1,0.2-0.1,0.2-0.2h0.1
		c0.3-0.2,0.5-0.5,0.6-0.7h0.1l0.3-0.9c0-0.2,0.1-0.4,0.1-0.7l1.9-39.3V5.9c0-0.2,0-0.3-0.1-0.5V5.3c-0.1-0.1-0.1-0.2-0.1-0.3
		l7.9,9.8c0.1,0.1,0.2,0.2,0.2,0.4l0.1,0.1c0,0.1,0.1,0.2,0.1,0.4v0.1c0,0,0.1,0.1,0.1,0.2v0.8L328.7,56.1z M305.1,47.8
		C305,47.8,305,47.8,305.1,47.8C305,47.7,305.1,47.7,305.1,47.8z M305.1,47.9C305.1,47.9,305.1,47.9,305.1,47.9
		C305.1,47.8,305.1,47.8,305.1,47.9z M305.2,48C305.1,48,305.1,48,305.2,48C305.1,47.9,305.2,47.9,305.2,48z M322,4.9
		c0-0.1-0.1-0.3-0.2-0.4L322,4.9z"/>
	<path style="&st0;" d="M356,56.1c-0.1,0.2-0.1,0.4-0.1,0.6l-0.2,0.6c0,0.1-0.1,0.3-0.1,0.4c-0.1,0-0.1,0-0.1,0.1
		c0,0.1-0.1,0.2-0.2,0.3v0.1c-0.1,0-0.1,0.1-0.2,0.1c0,0,0,0.1-0.1,0.1c0,0,0,0.1-0.1,0.1l-0.1,0.1c0,0-0.1,0-0.1,0.1h-0.1
		c-0.1,0-0.1,0.1-0.2,0.1h-0.1c-0.1,0.1-0.1,0.1-0.2,0.1h-0.1c-0.1,0.1-0.1,0.1-0.2,0.1h-0.4c0,0,0,0.1-0.1,0.1H351
		c1.5,1.8,2.9,3.6,4.3,5.3c0.1,0.1,0.2,0.2,0.2,0.4c0.1,0,0.1,0,0.1,0.1l0.2,0.4v0.5c0.1,0,0.1,0.1,0.1,0.1v11.7
		c0,0.1-0.1,0.1-0.1,0.1c0,0.1,0,0.3-0.1,0.4c0,0.2-0.1,0.3-0.1,0.4c0,0-0.1,0-0.1,0.1c0,0.1-0.1,0.2-0.2,0.3l-0.2,0.2v0.1
		c-0.1,0-0.1,0-0.2,0.1l-0.1,0.1h-0.1l-0.1,0.1c-0.1,0-0.1,0.1-0.2,0.1h-0.1c-0.1,0.1-0.1,0.1-0.2,0.1h-0.1
		c-0.1,0.1-0.2,0.1-0.2,0.1h-0.4c0,0-0.1,0-0.1,0.1h-10.9c-1,0-1.8-0.4-2.2-0.9c-2.7-3.5-5.3-6.9-8-10.3c0.1,0,0.1,0.1,0.1,0.1
		c0.1,0,0.1,0,0.1,0.1c0,0,0.1,0,0.1,0.1c0.1,0,0.1,0,0.1,0.1h0.1c0.1,0.1,0.1,0.1,0.2,0.1l0.1,0.1c0,0,0.1,0,0.1,0.1h0.2l0.1,0.1
		h0.2c0,0,0.1,0,0.2,0.1h12c0.1-0.1,0.1-0.1,0.2-0.1h0.1c0.1,0,0.1-0.1,0.2-0.1h0.1l0.3-0.2l0.4-0.3h0.1c0.1-0.2,0.2-0.4,0.4-0.6
		c0-0.1,0.1-0.3,0.1-0.4h0.1c0-0.1,0-0.3,0.1-0.4V55.8c0-1.8-0.9-2.7-2.7-2.8c-0.1-1.8-0.9-2.7-2.8-2.7h-7.8
		c-0.6-0.7-1.1-1.6-1.8-2.3c0,0,0.1,0,0.1,0.1h0.1l0.1,0.1c0.1,0.1,0.1,0.1,0.2,0.1l0.1,0.1h0.1c0.1,0,0.1,0.1,0.2,0.1h0.1
		c0.1,0,0.1,0,0.2,0.1h12c0.1-0.1,0.2-0.1,0.2-0.1h0.1c0.1,0,0.2-0.1,0.3-0.1c0.1-0.1,0.1-0.1,0.2-0.1c0.1-0.1,0.2-0.1,0.2-0.2h0.1
		c0.3-0.2,0.5-0.5,0.6-0.7h0.1l0.3-0.9c0-0.2,0.1-0.4,0.1-0.7l1.9-39.3V5.9c0-0.2,0-0.3-0.1-0.5V5.3c-0.1-0.1-0.1-0.2-0.1-0.3
		l7.9,9.8c0.1,0.1,0.2,0.2,0.2,0.4l0.1,0.1c0,0.1,0.1,0.2,0.1,0.4v0.1c0,0,0.1,0.1,0.1,0.2v0.8L356,56.1z M332.3,47.8
		C332.2,47.8,332.2,47.8,332.3,47.8C332.2,47.7,332.3,47.7,332.3,47.8z M332.4,47.9C332.3,47.9,332.3,47.9,332.4,47.9
		C332.3,47.8,332.4,47.8,332.4,47.9z M332.5,48C332.4,48,332.4,48,332.5,48C332.4,47.9,332.5,47.9,332.5,48z M349.3,4.9
		c0-0.1-0.1-0.3-0.2-0.4L349.3,4.9z"/>
</g>
<g>
	<path style="&st1;" d="M9.5,8.3c-2,0-2.9,1.1-2.5,3.1l11.4,59.4c-1.2-0.2-2.1-1-2.3-2.3L4.5,8.3C4.2,6.3,5.1,5.2,7,5.2h11.2
		c1.7,0,2.7,0.8,3.1,2.4l0.2,0.7c-0.3-0.1-0.7-0.1-0.9-0.1H9.5z M29,49.7l-0.8-6.1l5.9-36c0.3-1.6,1.4-2.4,3.1-2.4h8
		c1.7,0,2.8,0.8,3.1,2.4l0.1,0.7c-0.3-0.1-0.6-0.1-0.8-0.1h-8c-1.7,0-2.8,0.8-3.1,2.4l-6.3,39c-0.1,0.5-0.3,0.7-0.6,0.7
		C29.4,50.4,29.1,50.2,29,49.7z M44.1,48.3l5,22.6c-1.1-0.3-1.9-1-2.1-2.3l-4.3-19l0.3-1.3c0.1-0.5,0.3-0.7,0.6-0.7
		C43.7,47.5,44,47.8,44.1,48.3z M56.9,49.7l-0.9-5.8l5-36.3c0.2-1.6,1.4-2.4,3.1-2.4h11.1c2.2,0,2.9,1.1,2.5,3.1H66.4
		c-1.7,0-2.9,0.8-3.1,2.4l-5.3,39c-0.1,0.5-0.4,0.7-0.6,0.7C57.1,50.4,56.9,50.2,56.9,49.7z"/>
	<path style="&st1;" d="M88.8,8.3C87,8.3,86,9.2,86,11.1v59.8c-1.5-0.2-2.3-1.2-2.3-2.8V8c0-1.9,1-2.8,2.8-2.8H97
		c1.9,0,2.5,0.8,2.5,2.8v0.3H88.8z M104.9,37.3c-1.8,0-2.8-1-2.8-2.8v-0.4h9.3c1.9,0,2.8-1,2.8-2.8V7.9c0-1.8,1.2-2.7,3-2.7h10.5
		c1.9,0,2.6,0.9,2.6,2.8v0.3h-10.8c-1.7,0-2.8,0.9-2.8,2.8v23.4c0,1.8-0.9,2.8-2.8,2.8H104.9z M116.7,56.1v14.8
		c-1.5-0.2-2.4-1.1-2.4-2.8V53.3C115.8,53.4,116.7,54.5,116.7,56.1z"/>
	<path style="&st1;" d="M141.2,52.7c0,2.9,0.3,8.6,3.3,13.4c-5.1-5.3-5.6-12.8-5.6-16.4V26.2c0-6.2,1.4-22.7,23.6-22.7
		c11.2,0,16.9,4.3,19.9,9.2c-3.4-3.6-8.9-6.2-17.8-6.2c-22.1,0-23.5,16.5-23.5,22.7V52.7z M169.8,31.1c0-3.1-0.2-5.5-0.8-7.5
		c2.8,1.7,3.1,5.4,3.1,10.7v13.4c0,7.3-0.5,11.7-7.4,11.7c-3.9,0-5.8-1.4-6.6-3.9c1,0.6,2.4,0.8,4.2,0.8c6.9,0,7.6-4.5,7.6-11.7
		V31.1z"/>
	<path style="&st1;" d="M195.6,52.7c0,2.9,0.3,8.6,3.3,13.4c-5.1-5.3-5.6-12.8-5.6-16.4V26.2c0-6.2,1.4-22.7,23.6-22.7
		c11.2,0,16.9,4.3,19.9,9.2c-3.4-3.6-8.9-6.2-17.8-6.2c-22.1,0-23.5,16.5-23.5,22.7V52.7z M224.2,31.1c0-3.1-0.2-5.5-0.8-7.5
		c2.8,1.7,3.1,5.4,3.1,10.7v13.4c0,7.3-0.5,11.7-7.4,11.7c-3.9,0-5.8-1.4-6.6-3.9c1,0.6,2.4,0.8,4.2,0.8c6.9,0,7.6-4.5,7.6-11.7
		V31.1z"/>
	<path style="&st1;" d="M253.7,8.3c-1.8,0-2.8,1-2.8,2.9v59.7c-1.4,0-2.3-1.1-2.3-2.8v-60c0-1.9,0.9-2.9,2.8-2.9H272
		c10.4,0,16.8,2.7,20.2,8.6c-3.7-3.7-9.5-5.5-17.9-5.5H253.7z M272.5,33.9c4.5,0,6.7-0.6,6.7-6.4c0-1-0.1-2-0.3-2.7
		c1.7,0.7,2.6,2.2,2.6,5.9c0,5.7-2.1,6.4-6.7,6.4h-5c-1.8,0-2.8-1-2.8-2.8v-0.4H272.5z"/>
	<path style="&st1;" d="M306.2,50.4c-1.8,0-2.7-1-2.8-2.8l-1.8-39.2c-0.1-1.9,1-2.8,2.8-2.8h14.2c1.7,0,3.1,0.9,2.8,2.8h-14.3
		c-1.8,0-2.9,0.9-2.8,2.8L306.2,50.4z M306.2,70.9c-1.8,0-2.8-1-2.8-2.8V57.6c0-1.9,1.1-2.8,2.9-2.8h10.4c1.9,0,2.8,0.9,2.8,2.8H309
		c-1.8,0-2.8,0.9-2.8,2.8V70.9z"/>
	<path style="&st1;" d="M333.5,50.4c-1.8,0-2.7-1-2.8-2.8l-1.8-39.2c-0.1-1.9,1-2.8,2.8-2.8h14.2c1.7,0,3.1,0.9,2.8,2.8h-14.3
		c-1.8,0-2.9,0.9-2.8,2.8L333.5,50.4z M333.5,70.9c-1.8,0-2.8-1-2.8-2.8V57.6c0-1.9,1.1-2.8,2.9-2.8H344c1.9,0,2.8,0.9,2.8,2.8
		h-10.5c-1.8,0-2.8,0.9-2.8,2.8V70.9z"/>
</g>
<g>
	<path style="&st2;" d="M6.4,8.4C6,6.5,6.9,5.4,8.9,5.4H20c1.7,0,2.9,0.8,3.1,2.4l5.3,39c0.2,0.9,0.9,0.9,1.1,0l6.3-39
		c0.3-1.6,1.4-2.4,3.1-2.4h8c1.7,0,2.8,0.8,3.1,2.4l6.3,39c0.2,0.9,0.9,0.9,1.1,0l5.3-39c0.2-1.6,1.4-2.4,3.1-2.4h11.1
		c2,0,2.9,1.1,2.5,3.1L67.9,68.3c-0.3,1.6-1.4,2.4-3.1,2.4H51.7c-1.7,0-2.7-0.8-3.1-2.4l-5.1-23c-0.2-0.9-0.9-0.9-1.1,0l-5.1,23
		c-0.4,1.6-1.4,2.4-3.1,2.4H20.9c-1.7,0-2.8-0.8-3.1-2.4L6.4,8.4z"/>
	<path style="&st2;" d="M98.7,5.4c1.8,0,2.8,1,2.8,2.8v23.4c0,1.8,1,2.8,2.8,2.8h9c1.9,0,2.8-1,2.8-2.8V8.2c0-1.8,1-2.8,2.8-2.8
		h10.5c1.9,0,2.8,0.9,2.8,2.8V68c0,1.8-0.9,2.8-2.8,2.8h-10.5c-1.8,0-2.8-1-2.8-2.8V53.2c0-1.9-0.9-2.8-2.8-2.8h-9
		c-1.8,0-2.8,0.9-2.8,2.8V68c0,1.8-0.9,2.8-2.8,2.8H88.2c-1.8,0-2.8-1-2.8-2.8V8.2c0-1.9,0.9-2.8,2.8-2.8H98.7z"/>
	<path style="&st2;" d="M187.5,49.7c0,6.2-1.3,22.7-23.5,22.7c-22.1,0-23.5-16.5-23.5-22.7V26.4c0-6.2,1.3-22.7,23.5-22.7
		c22.1,0,23.5,16.5,23.5,22.7V49.7z M171.4,31.3c0-7.2-0.5-11.6-7.4-11.6c-6.9,0-7.4,4.4-7.4,11.6v13.5c0,7.2,0.5,11.6,7.4,11.6
		c6.9,0,7.4-4.4,7.4-11.6V31.3z"/>
	<path style="&st2;" d="M241.9,49.7c0,6.2-1.3,22.7-23.5,22.7c-22.1,0-23.5-16.5-23.5-22.7V26.4c0-6.2,1.3-22.7,23.5-22.7
		c22.1,0,23.5,16.5,23.5,22.7V49.7z M225.8,31.3c0-7.2-0.5-11.6-7.4-11.6c-6.9,0-7.4,4.4-7.4,11.6v13.5c0,7.2,0.5,11.6,7.4,11.6
		c6.9,0,7.4-4.4,7.4-11.6V31.3z"/>
	<path style="&st2;" d="M273.6,5.4c16.6,0,23.4,7.1,23.4,22.4c0,15.3-6.7,22.4-23.4,22.4h-4.5c-1.8,0-2.8,0.9-2.8,2.8v15
		c0,1.9-0.9,2.8-2.8,2.8h-10.5c-1.8,0-2.8-1-2.8-2.8V8.3c0-1.9,0.9-2.8,2.8-2.9H273.6z M274.2,34.1c4.5,0,6.7-0.6,6.7-6.4
		c0-5.8-2.2-6.4-6.7-6.4h-5c-1.8,0-2.8,0.9-2.8,2.8v7.1c0,1.8,1,2.8,2.8,2.8H274.2z"/>
	<path style="&st2;" d="M320.7,5.4c1.9,0,2.9,0.9,2.8,2.8l-1.9,39.2c-0.1,1.8-0.9,2.8-2.8,2.8h-10.5c-1.8,0-2.7-1-2.8-2.8l-1.9-39.2
		c-0.1-1.9,1-2.8,2.8-2.8H320.7z M318.9,54.7c1.9,0,2.8,0.9,2.8,2.8V68c0,1.8-0.9,2.8-2.8,2.8h-10.5c-1.8,0-2.8-1-2.8-2.8V57.5
		c0-1.9,1-2.8,2.8-2.8H318.9z"/>
	<path style="&st2;" d="M348,5.4c1.9,0,2.9,0.9,2.8,2.8L349,47.4c-0.1,1.8-0.9,2.8-2.8,2.8h-10.5c-1.8,0-2.7-1-2.8-2.8L331,8.2
		c-0.1-1.9,1-2.8,2.8-2.8H348z M346.2,54.7c1.9,0,2.8,0.9,2.8,2.8V68c0,1.8-0.9,2.8-2.8,2.8h-10.5c-1.8,0-2.8-1-2.8-2.8V57.5
		c0-1.9,1-2.8,2.8-2.8H346.2z"/>
</g>
</svg>
