<?xml version="1.0" encoding="utf-8"?>
<!-- Generator: Adobe Illustrator 18.1.1, SVG Export Plug-In . SVG Version: 6.00 Build 0)  -->
<!DOCTYPE svg PUBLIC "-//W3C//DTD SVG 1.1//EN" "http://www.w3.org/Graphics/SVG/1.1/DTD/svg11.dtd" [
	<!ENTITY st0 "fill:#DB5931;">
	<!ENTITY st1 "fill:#FFFFFF;">
	<!ENTITY st2 "fill:#FFA037;">
]>
<svg version="1.1" id="Layer_1" xmlns="http://www.w3.org/2000/svg" xmlns:xlink="http://www.w3.org/1999/xlink" x="0px" y="0px"
	 viewBox="0 0 514 105.1" style="enable-background:new 0 0 514 105.1;" xml:space="preserve">
<g>
	<g>
		<path style="&st0;" d="M44.9,73.7V100c0,0.1,0,0.2-0.1,0.2v0.1c0,0.2,0,0.4-0.1,0.5v0.1c0,0.1-0.1,0.2-0.1,0.4l-0.1,0.1
			c0,0.1-0.1,0.2-0.2,0.4c-0.1,0.1-0.1,0.2-0.2,0.2v0.1c-0.1,0-0.1,0.1-0.2,0.1c0,0-0.1,0-0.1,0.1c0,0-0.1,0-0.1,0.1h-0.1
			c-0.1,0.1-0.1,0.1-0.2,0.1c0,0-0.1,0-0.1,0.1h-0.2c0,0-0.1,0-0.1,0.1h-0.5c0,0-0.1,0-0.2,0.1H27.8c-1.3,0-2.3-0.5-2.9-1.2
			L14.6,88.6l0.4,0.4c0,0,0.1,0,0.1,0.1h0.1c0.1,0.1,0.1,0.1,0.2,0.1c0,0.1,0,0.1,0.1,0.1l0.1,0.1h0.1c0.1,0.1,0.2,0.1,0.2,0.1h0.1
			c0.1,0,0.2,0.1,0.2,0.1H17c0.1,0.1,0.4,0.1,0.5,0.1h13.4c0.1,0,0.4,0,0.5-0.1H32l0.6-0.2c0.1,0,0.2-0.1,0.4-0.1l0.1-0.1
			c0,0,0.1,0,0.1-0.1h0.1c0.1-0.1,0.1-0.1,0.2-0.1v-0.1c0.1-0.1,0.2-0.1,0.2-0.2c0.1-0.1,0.2-0.2,0.2-0.5c0.1-0.1,0.2-0.2,0.2-0.5
			c0.1-0.1,0.1-0.4,0.1-0.5l0.1-0.1V47.8L44.9,73.7z M38.6,7.2v0.1V7.2z M38.6,7.3h0.1c0,0.1,0,0.2,0.1,0.2L38.6,7.3z M38.9,7.8
			c-0.1-0.1-0.1-0.1-0.1-0.2c0,0.1,0,0.1,0.1,0.1V7.8z M38.9,7.8c0,0,0,0.1,0.1,0.1C38.9,7.9,38.9,7.8,38.9,7.8z M39.1,8l10.1,12.4
			l0.7,1.3l3.8,9.2v12.8L39.3,8.5L39.1,8z M53,88.4c0,0-0.1-0.1-0.1-0.2C52.9,88.3,53,88.4,53,88.4z M88,99.6v0.7
			c-0.1,0.2-0.1,0.4-0.1,0.5v0.1l-0.2,0.4v0.1c-0.1,0.1-0.2,0.2-0.2,0.4h-0.1c0,0.1-0.1,0.2-0.1,0.2l-0.2,0.2c-0.1,0-0.1,0-0.1,0.1
			c-0.1,0-0.1,0-0.2,0.1h-0.1c0,0.1-0.1,0.1-0.2,0.1l-0.1,0.1h-0.2l-0.1,0.1h-0.4c-0.1,0-0.2,0-0.4,0.1H66.8c-1.4,0-2.6-0.5-3.5-1.4
			l-0.5-0.7l-9.6-12.1h0.1c0,0.1,0.1,0.2,0.2,0.4h0.2c0.1,0.1,0.2,0.2,0.4,0.2c0,0,0,0.1,0.1,0.1c0.1,0,0.4,0.1,0.5,0.1H55
			c0.1,0.1,0.2,0.1,0.4,0.1h0.2c0.2,0,0.4,0.1,0.6,0.1H74c0.2,0,0.4,0,0.5-0.1h0.6c0.1,0,0.2-0.1,0.2-0.1h0.2c0,0,0.1,0,0.1-0.1h0.2
			c0-0.1,0.1-0.1,0.2-0.1v-0.1c0.1,0,0.1,0,0.2-0.1h0.1c0-0.1,0.1-0.1,0.2-0.2l0.7-1.2c0-0.2,0.1-0.5,0.1-0.8v-0.1
			c0.1-0.2,0.1-0.4,0.1-0.5V9.4c0-0.2-0.1-0.5-0.1-0.7V8.4c0-0.2-0.1-0.4-0.1-0.5V7.8c0,0,0-0.1-0.1-0.1V7.4l-0.1-0.1V7.2
			c3.4,4.3,6.7,8.5,10.3,12.8l0.2,0.5v0.1c0.2,0.2,0.2,0.6,0.4,1v77.9L88,99.6z M77.2,7.2c0,0-0.1,0-0.1-0.1S77,7,77,6.8
			C77,7,77.1,7.1,77.2,7.2z"/>
		<path style="&st0;" d="M120.5,100.9c0,0.1-0.2,0.4-0.2,0.5l-0.4,0.5c0,0.1-0.1,0.1-0.1,0.2h-0.1l-0.2,0.2h-0.1
			c0,0.1-0.1,0.1-0.1,0.1c0,0.1-0.1,0.1-0.1,0.1c-0.1,0-0.1,0-0.2,0.1h-0.1c-0.1,0-0.1,0.1-0.2,0.1h-0.1c-0.1,0-0.1,0-0.2,0.1h-14.3
			c-1.3,0-2.3-0.4-2.9-1.1c-3.5-4.4-7-8.9-10.6-13.3l0.5,0.5l0.4,0.2l0.1,0.1c0.1,0,0.2,0.1,0.5,0.1c0.1,0.1,0.4,0.1,0.5,0.1
			c0,0.1,0,0.1,0.1,0.1h14.9l0.1-0.1h0.4c0.1-0.1,0.2-0.1,0.2-0.1h0.1c0.5-0.2,0.8-0.5,1.1-0.8c0,0,0-0.1,0.1-0.1
			c0-0.1,0.1-0.2,0.2-0.4v-0.1l0.2-0.4c0-0.2,0.2-0.6,0.2-0.8V8.6L110,8.2c0-0.2-0.1-0.1-0.1-0.4c0-0.2-0.5-0.8-0.5-1l10.6,13.3
			l0.4,0.4v0.1l0.4,1v78.8C120.5,100.6,120.7,100.8,120.5,100.9z"/>
		<path style="&st0;" d="M126.8,82.6c0.1,0,0.1,0.1,0.2,0.2C126.9,82.7,126.9,82.6,126.8,82.6z M180.5,63.7c0,0.1,0.1,0.1,0.1,0.1
			V64c0,0.1,0.1,0.2,0.1,0.4v0.1c0.1,0.1,0.1,0.1,0.1,0.2v2l-0.2,2.2V69c0,0.4-0.1,0.7-0.1,1.1v0.1l-0.5,2.2l-0.4,1.2l-0.4,1.1v0.1
			l-0.7,1.8v0.1l-0.8,1.8h-0.1l-0.4,0.8l-0.6,0.8c0,0.1,0,0.1-0.1,0.2c-0.1,0.2-0.2,0.5-0.5,0.7v0.1l-0.6,0.7l-0.1,0.1
			c0,0.1-0.1,0.2-0.1,0.2h-0.1c0,0.1-0.1,0.2-0.1,0.2l-0.2,0.4l-1,1l-0.4,0.5h-0.1l-1,1l-0.5,0.4h-0.1c0,0.1-0.1,0.2-0.2,0.2
			l-0.4,0.4c-0.1,0-0.1,0-0.2,0.1c0,0-0.1,0.1-0.2,0.1v0.1c-0.1,0-0.2,0.1-0.4,0.1c0,0.1-0.1,0.1-0.2,0.2l-0.6,0.4l-0.4,0.2l-1,0.6
			c-0.1,0-0.2,0.1-0.4,0.1l-0.4,0.2c-0.1,0-0.2,0.1-0.4,0.1l-0.5,0.2c-0.1,0-0.2,0.1-0.2,0.1c-0.1,0-0.2,0.1-0.4,0.1h-0.1l-0.4,0.2
			c-0.1,0-0.2,0-0.4,0.1c-0.1,0-0.2,0.1-0.4,0.1c-0.1,0.1-0.2,0.1-0.5,0.1v0.1l-1,0.2c0,0-0.1,0.1-0.2,0.1c-0.2,0-0.4,0.1-0.6,0.1
			c-0.1,0.1-0.1,0.1-0.2,0.1s-0.2,0.1-0.4,0.1h-0.1c-0.1,0-0.2,0.1-0.5,0.1l-1.4,0.4h-0.5c-0.1,0.1-0.4,0.1-0.5,0.1
			c-0.2,0-0.4,0.1-0.5,0.1l-1.7,0.2h-0.5c-0.2,0.1-0.6,0.1-0.8,0.1h-0.1c-0.6,0.1-1.2,0.1-1.8,0.1h-1c-0.1,0-0.1,0.1-0.2,0.1h-3.2
			c-0.2-0.1-0.5-0.1-0.7-0.1h-1.2c-0.6-0.1-1.2-0.1-1.7-0.1c-0.1-0.1-0.2-0.1-0.4-0.1c-0.5,0-1-0.1-1.3-0.1c-0.1,0-0.2-0.1-0.4-0.1
			c-0.5,0-1-0.1-1.6-0.2h-0.2l-1.3-0.4h-0.2l-1.3-0.4c-0.1-0.1-0.2-0.1-0.4-0.1c-0.4-0.1-0.8-0.2-1.2-0.5H137l-1.1-0.5
			c-0.1,0-0.2,0-0.2-0.1c-0.5-0.1-0.8-0.5-1.2-0.6c0,0-0.1-0.1-0.2-0.1l-0.8-0.5c-0.1,0-0.2-0.1-0.2-0.1c-0.4-0.2-0.7-0.4-1-0.6
			c-0.1,0-0.2-0.1-0.4-0.1l-0.7-0.6c-0.1,0-0.1-0.1-0.2-0.1l-0.8-0.6c0-0.1-0.1-0.1-0.2-0.2l-0.7-0.6l-0.2-0.2
			c-0.2-0.1-0.2-0.4-0.5-0.5c0-0.1-0.1-0.2-0.2-0.4c-0.2-0.1-0.4-0.4-0.6-0.6c-0.1-0.1-0.1-0.2-0.2-0.2c-0.1-0.1-0.2-0.1-0.2-0.2
			l10.1,12.8c4.2,5.3,11.5,9.5,24.2,9.5h2.3c0.1,0,0.4-0.1,0.5-0.1h1.2c0.1,0,0.4,0,0.6-0.1h0.5c0.1,0,0.4,0,0.5-0.1h0.6
			c0.1,0,0.4,0,0.5-0.1h0.5c0.2,0,0.4-0.1,0.5-0.1c0.2,0,0.4,0,0.6-0.1h0.5c0.1-0.1,0.2-0.1,0.5-0.1c0.1,0,0.2-0.1,0.4-0.1
			c0.2,0,0.4-0.1,0.5-0.1c0.2,0,0.4,0,0.5-0.1c0.1,0,0.4,0,0.5-0.1c0.1,0,0.2,0,0.5-0.1c0.1,0,0.2,0,0.4-0.1c0.2,0,0.4,0,0.5-0.1
			c0.1,0,0.2-0.1,0.4-0.1c0.2,0,0.4-0.1,0.5-0.1c0.1,0,0.2-0.1,0.4-0.1c0.1-0.1,0.4-0.1,0.5-0.1l0.4-0.2c0.1,0,0.2-0.1,0.4-0.1
			c0.1,0,0.2-0.1,0.4-0.1l0.5-0.2c0.1,0,0.2-0.1,0.4-0.1c0.1-0.1,0.2-0.1,0.4-0.1c0.1-0.1,0.2-0.2,0.4-0.2c0.1-0.1,0.2-0.1,0.4-0.1
			c0.1-0.1,0.2-0.2,0.4-0.2c0-0.1,0.1-0.1,0.2-0.2c0.1,0,0.2-0.1,0.4-0.1l0.4-0.2c0.1,0,0.2-0.1,0.4-0.1c0-0.1,0.1-0.1,0.2-0.2
			l0.4-0.2c0.1,0,0.2-0.1,0.2-0.1c0.1-0.1,0.2-0.2,0.4-0.2c0.1-0.1,0.2-0.1,0.2-0.2l0.4-0.2c0.1,0,0.1-0.1,0.2-0.2
			c0.1,0,0.2-0.1,0.2-0.1c0.1-0.1,0.2-0.2,0.4-0.2c0-0.1,0.1-0.2,0.2-0.2l0.2-0.2c0.1-0.1,0.2-0.1,0.2-0.2c0.1-0.1,0.2-0.1,0.2-0.2
			c0.1-0.1,0.2-0.1,0.2-0.2c0.1-0.1,0.2-0.1,0.2-0.2c0.1-0.1,0.2-0.1,0.2-0.2c0.1-0.1,0.2-0.1,0.2-0.2c0.1-0.1,0.2-0.1,0.2-0.2
			l0.5-0.5c0-0.1,0.1-0.2,0.2-0.2c0-0.1,0.1-0.2,0.1-0.2l0.2-0.4c0.1,0,0.1,0,0.1-0.1l0.6-0.7c0.1-0.4,0.4-0.6,0.5-0.8
			c0.1,0,0.1-0.1,0.1-0.1l0.5-0.8l0.1-0.1l0.8-1.7c0,0,0-0.1,0.1-0.1l0.4-0.8v-0.1l0.4-0.8v-0.1l0.4-0.8l0.4-1.2l0.4-1.1v-0.1
			c0-0.4,0.1-0.6,0.2-1v-0.1c0-0.4,0.1-0.7,0.2-1v-0.1c0-0.4,0.1-0.8,0.1-1.2l0.2-1.2v-1.1h0.1v-2c0-0.1-0.1-0.2-0.1-0.4
			c0-0.1-0.1-0.2-0.1-0.4c-0.1-0.1-0.1-0.2-0.1-0.2l-0.1-0.1c0-0.1-0.1-0.2-0.1-0.2c-3.6-4.3-7-8.6-10.3-13V63.7z M191.7,42.2
			c-0.1-0.1-0.1-0.2-0.1-0.4v-0.7c0-0.1,0-0.2-0.1-0.4v-0.7c0-0.1-0.1-0.2-0.1-0.5c0-0.2,0-0.5-0.1-0.7v-0.5c0,0-0.1-0.1-0.1-0.2
			c0-0.2,0-0.5-0.1-0.7v-0.2l-0.2-1c0-0.1,0-0.1-0.1-0.2c0-0.2-0.1-0.5-0.1-0.7c-0.1-0.1-0.1-0.2-0.1-0.4l-0.4-1v-0.1
			c-0.1-0.2-0.2-0.6-0.2-0.8c-0.1-0.1-0.1-0.2-0.1-0.4l-0.4-0.8l-0.1-0.1l-0.4-1c-0.1-0.1-0.1-0.2-0.2-0.2l-0.4-0.8
			c0,0-0.1-0.1-0.1-0.2c-0.2-0.2-0.4-0.6-0.6-1c0,0,0-0.1-0.1-0.1c-0.1-0.4-0.4-0.6-0.5-0.8l-0.2-0.2c-0.1-0.4-0.4-0.6-0.6-1
			c-3.4-4.1-6.8-8-10.1-12.1c0.1,0,0.1,0.1,0.1,0.1l0.4,0.5c0,0,0.1,0.1,0.1,0.2c0.1,0.1,0.1,0.1,0.1,0.2c0.2,0.2,0.4,0.5,0.5,0.7
			c0,0.1,0.1,0.1,0.1,0.2c0,0.1,0.1,0.1,0.1,0.2c0.1,0.2,0.2,0.5,0.5,0.7v0.2l0.1,0.1l0.4,1c0.1,0,0.1,0,0.1,0.1l0.4,0.8
			c0,0.1,0,0.2,0.1,0.2c0,0.1,0.1,0.2,0.1,0.2c0.1,0.2,0.2,0.5,0.2,0.7c0,0,0.1,0,0.1,0.1v0.1c0,0.1,0.1,0.2,0.1,0.4
			c0,0.1,0.1,0.4,0.1,0.5s0.1,0.1,0.1,0.2v0.1c0,0.1,0.1,0.2,0.1,0.4s0,0.2,0.1,0.4v0.4c0.1,0.2,0.1,0.4,0.1,0.5s0.1,0.2,0.1,0.4
			v0.1c0,0.1,0,0.1,0.1,0.2V25c0.1,0.1,0.1,0.1,0.1,0.2v0.2c0.1,0.2,0.1,0.5,0.1,0.7v0.2c0,0.1,0.1,0.1,0.1,0.2v0.7
			c0,0.1,0,0.1,0.1,0.1v1.2c0.1,0.5,0.1,0.8,0.1,1.3v0.5c0,0.2-0.1,0.6-0.2,0.8c0,0.1,0,0.2-0.1,0.4c-0.1,0.2-0.2,0.5-0.5,0.7
			c-0.1,0-0.1,0.1-0.2,0.1c0,0.1-0.1,0.1-0.2,0.2l-0.1,0.1l-0.5,0.2l-0.7,0.2l-13.3,3h-0.8c-2.2,0-3.7-1.6-4-3.7
			c-0.4-2.6-1-4.7-2.4-6.1v-0.1l-0.6-0.5l-0.6-0.5h-0.1l-0.6-0.4c-0.2-0.1-0.5-0.2-0.7-0.2c-0.1,0-0.1,0-0.1-0.1
			c-0.2,0-0.4-0.1-0.7-0.1c0,0,0-0.1-0.1-0.1c-0.2,0-0.5-0.1-0.8-0.1h-0.1c-0.4,0-0.6-0.1-1-0.1h-2.9c-0.1,0.1-0.4,0.1-0.5,0.1h-0.2
			c-0.1,0-0.2,0.1-0.5,0.1h-0.1c-0.1,0-0.1,0-0.2,0.1h-0.5l-0.4,0.2h-0.2c-0.1,0-0.2,0.1-0.4,0.1l-0.1,0.1c-0.1,0-0.2,0.1-0.4,0.1
			c0,0-0.1,0-0.1,0.1c-0.1,0-0.2,0.1-0.4,0.1l-0.1,0.1c-0.1,0-0.2,0.1-0.4,0.2c0,0-0.1,0-0.1,0.1c-0.1,0-0.1,0.1-0.2,0.1l-0.1,0.1
			c0,0.1-0.1,0.1-0.1,0.1l-0.1,0.1c0,0.1-0.1,0.1-0.1,0.1c0,0.1-0.1,0.1-0.1,0.1c0,0.1-0.1,0.1-0.1,0.1c0,0.1,0,0.1-0.1,0.1
			c0,0.1,0,0.1-0.1,0.2c0,0.1-0.1,0.1-0.2,0.2v0.1c0,0,0,0.1-0.1,0.1c0,0.1-0.2,0.2-0.2,0.4c-0.1,0-0.1,0.1-0.1,0.1
			c-0.2,0.4-0.4,0.8-0.5,1.2c0,0.1-0.1,0.1-0.1,0.1c0,0.4-0.1,0.6-0.2,1c0,0.2-0.1,0.6-0.2,1v0.1c0,0.4-0.1,0.7-0.1,1.1v0.2
			c-0.1,0.4-0.1,0.7-0.1,1.1v0.2c-0.1,0.4-0.1,0.7-0.1,1.2v0.2c0,0.4,0.1,0.8,0,1.3v22.4c0.1,0.4,0.1,0.8,0.1,1.2v1.4
			c0.1,0.4,0.1,0.6,0.1,1V63l0.4,2.2l0.4,0.8v0.1c1.3,0.7,3,1.2,5.3,1.2c1.8,0,3.2-0.2,4.3-0.6V50c0-0.5,0.1-1,0.1-1.3v-1.4
			c0-0.1,0.1-0.1,0.1-0.2c0-0.4,0-0.7,0.1-1.1v-0.2c0-0.4,0.1-0.7,0.1-1.1v-0.1l0.2-1l0.2-0.8c0-0.1,0-0.1,0.1-0.2
			c0-0.1,0.1-0.4,0.2-0.6c0-0.1,0.1-0.4,0.2-0.5c0-0.1,0-0.1,0.1-0.2c0-0.1,0.1-0.2,0.1-0.4c0.1,0,0.1-0.1,0.1-0.1l0.2-0.4
			c0-0.1,0.1-0.1,0.1-0.1c0-0.1,0.1-0.1,0.1-0.1c0.1-0.1,0.1-0.2,0.2-0.2c0-0.1,0-0.1,0.1-0.2c0,0,0.1-0.1,0.2-0.1
			c0-0.1,0-0.1,0.1-0.1c0-0.1,0.1-0.2,0.2-0.2l0.1-0.1l0.4-0.2c0,0,0.1,0,0.1-0.1c0.1,0,0.2-0.1,0.4-0.1l0.1-0.1
			c0.1,0,0.2-0.1,0.4-0.1c0,0,0.1,0,0.1-0.1c0.1,0,0.2,0,0.4-0.1h0.2c0.1-0.1,0.2-0.1,0.4-0.1c0.1,0,0.1-0.1,0.1-0.1
			c0.2,0,0.4,0,0.6-0.1h0.2c0.1,0,0.2,0,0.4-0.1h1c0.1-0.1,0.2-0.1,0.5-0.1h1c0.6,0,1.1,0,1.7,0.1l8.5,10.7c0.7,0.8,1.7,1.4,2.9,1.4
			c0.4,0,0.6-0.1,1-0.1l13.3-3c0.2,0,0.4-0.1,0.6-0.1c0-0.1,0.1-0.1,0.1-0.1l0.4-0.2c0.1,0,0.1,0,0.2-0.1c0.1,0,0.2-0.1,0.2-0.2
			c0.1,0,0.1,0,0.2-0.1c0-0.1,0.1-0.1,0.2-0.2c0-0.1,0.1-0.2,0.1-0.4c0.1,0,0.1,0,0.1-0.1l0.2-0.4v-0.2c0-0.1,0-0.1,0.1-0.2V42.2z
			 M175.6,13.7v-0.1l-0.4-0.5L175.6,13.7z M176,14.2V14l-0.1-0.1l-0.2-0.2L176,14.2z M180.4,63.6h0.1c-0.1-0.1-0.2-0.2-0.2-0.4v0.1
			C180.4,63.5,180.4,63.5,180.4,63.6z"/>
		<path style="&st0;" d="M246.3,70.6l10.3,12.8l0.2,0.5c0,0,0,0.1,0.1,0.1c0,0.1,0.1,0.4,0.1,0.5s0.1,0.4,0.1,0.5v0.2
			c0,0.2,0.1,0.5,0.1,0.7v13.6c0,0.2,0,0.5-0.1,0.7v0.1c0,0.2-0.1,0.4-0.1,0.6l-0.2,0.5v0.1l-0.2,0.2c0,0.1-0.1,0.2-0.2,0.2v0.1
			l-0.5,0.4l-0.6,0.2h-0.1c-0.1,0.1-0.4,0.1-0.6,0.1c0,0.1-0.1,0.1-0.1,0.1h-51.4c-1.3,0-2.3-0.4-2.9-1.2
			c-3.5-4.4-6.7-8.8-10.3-13.2h0.1c0,0.1,0.1,0.2,0.2,0.2v0.1l0.4,0.2l0.4,0.2h0.1c0.1,0.1,0.2,0.1,0.4,0.1h0.1
			c0.1,0.1,0.4,0.1,0.5,0.1h0.1c0.2,0.1,0.4,0.1,0.6,0.1h50.5c0.2,0,0.5,0,0.7-0.1h0.4c0.1-0.1,0.2-0.1,0.4-0.1h0.1
			c0.2-0.1,0.4-0.2,0.6-0.2l0.6-0.5c0-0.1,0.1-0.2,0.2-0.4c0-0.1,0.1-0.1,0.1-0.2l0.2-0.5c0-0.1,0-0.2,0.1-0.4c0-0.1,0-0.2,0.1-0.5
			V72.7c0-0.2,0-0.5-0.1-0.7v-0.5c-0.1-0.1-0.1-0.1-0.1-0.2c0-0.1,0-0.1-0.1-0.2v-0.2l-0.1-0.1C246.4,70.7,246.4,70.6,246.3,70.6z
			 M257.6,22.6v14.2c0,0,0,0.1-0.1,0.1V37c0,0.2,0,0.4-0.1,0.6c0,0.1-0.1,0.2-0.1,0.4V38h-0.1c0,0.1-0.1,0.2-0.2,0.4v0.1
			c-0.1,0-0.1,0.1-0.2,0.1v0.1c-0.1,0-0.1,0.1-0.2,0.1l-0.2,0.2H256c-0.1,0.1-0.1,0.1-0.2,0.1l-0.1,0.1h-0.2c0,0.1-0.1,0.1-0.1,0.1
			h-0.5c0,0.1-0.1,0.1-0.2,0.1h-17.9c3.1,4.1,6.4,8.2,9.6,12.1l0.4,0.5v0.1l0.2,0.5v0.5c0.1,0,0.1,0.1,0.1,0.1v15.2l-0.2,0.6
			c0,0.1,0,0.2-0.1,0.4v0.1l-0.4,0.4v0.1l-0.1,0.1l0.1,0.1c-0.1,0-0.1,0-0.1-0.1c-0.5-0.7-1.4-1.1-2.5-1.2v-0.4
			c0-2.4-1.1-3.6-3.5-3.6h-29.5v-4.4c0.1,0,0.1,0,0.1-0.1c0-0.1,0-0.2,0.1-0.4v-0.1c0-0.1,0.1-0.2,0.1-0.4c0-0.1,0.1-0.1,0.1-0.1
			c0-0.1,0.1-0.2,0.2-0.4v-0.1c0,0,0.1-0.1,0.2-0.1v-0.1c0.1,0,0.1-0.1,0.2-0.2h0.1c0,0,0.1-0.1,0.2-0.1c0,0,0-0.1,0.1-0.1
			c0,0,0.1,0,0.1-0.1h0.1c0.1,0,0.2,0,0.2-0.1h0.5c0-0.1,0.1-0.1,0.1-0.1h19.9c0.2-0.1,0.4-0.1,0.6-0.1c0.1,0,0.1,0,0.2-0.1h0.1
			c0.1,0,0.2-0.1,0.4-0.1l0.6-0.2v-0.1c0.1,0,0.1-0.1,0.2-0.1v-0.1c0.1,0,0.2-0.1,0.4-0.2c0-0.1,0.1-0.4,0.2-0.5l0.2-0.5
			c0-0.1,0-0.2,0.1-0.5V40.1c-0.1-0.1-0.1-0.4-0.1-0.5c-0.4-1.3-1.3-2-2.9-2.2v-0.4c0-2.4-1.2-3.6-3.6-3.6h-19.2V30
			c0-0.1,0.1-0.2,0.1-0.2v-0.8c0.1-0.1,0.1-0.2,0.1-0.4v-0.1l0.2-0.4V28l0.2-0.4l0.2-0.2v-0.1c0.1,0,0.2-0.1,0.4-0.2
			c0.1,0,0.2-0.1,0.2-0.1h0.1v-0.1h0.2c0-0.1,0.1-0.1,0.1-0.1c0.1,0,0.1,0,0.2-0.1h0.5v-0.1h30.4c0.2-0.1,0.6-0.1,0.8-0.1
			c0-0.1,0-0.1,0.1-0.1h0.2V26c0.1,0,0.2-0.1,0.4-0.1h0.1l0.5-0.4v-0.1c0.2-0.1,0.4-0.4,0.5-0.6l0.1-0.1c0-0.1,0.1-0.2,0.1-0.5
			c0.1-0.2,0.2-0.5,0.2-0.8V8.6c0-0.1-0.1-0.1-0.1-0.2c0-0.1,0-0.4-0.1-0.5V7.8c0-0.1-0.1-0.2-0.1-0.4V7.3c3.4,4.3,7,8.6,10.3,12.7
			c0.1,0.1,0.2,0.4,0.2,0.5l0.1,0.1c0,0.1,0.1,0.4,0.1,0.5c0.1,0.1,0.1,0.4,0.1,0.5v0.2C257.6,22.1,257.6,22.3,257.6,22.6z
			 M246.4,7.2l-0.2-0.4C246.2,7,246.3,7.1,246.4,7.2z M246.4,7.3V7.2c0,0.1,0,0.1,0.1,0.1H246.4z"/>
		<path style="&st0;" d="M288.1,25.2v0.1V25.2z M308.3,26.4h-18.2l-0.1-0.1h-0.2c-0.1,0-0.1,0-0.2-0.1h-0.1c-0.1,0-0.1-0.1-0.2-0.1
			H289l-0.1-0.1c-0.1,0-0.1-0.1-0.2-0.1l-0.1-0.1c0,0-0.1,0-0.1-0.1c0,0-0.1,0-0.1-0.1l-0.1-0.1h-0.1l10.6,13.2
			c0.6,0.6,1.3,1,2.4,1.1h7.2L308.3,26.4z M367,36.5V21.6c0-0.1-0.1-0.2-0.1-0.4c0-0.2-0.1-0.4-0.2-0.6v-0.1l-0.2-0.4
			c-3.6-4.4-7.7-8.9-11.2-13.3l0.2,0.5l0.2,0.6c0,0.1,0.1,0.4,0.1,0.6v0.1c0,0.2,0.1,0.5,0.1,0.7v14c-0.1,0.1-0.1,0.4-0.1,0.5
			c0,0.1-0.1,0.2-0.1,0.5l-0.2,0.5l-0.2,0.4c-0.1,0.1-0.1,0.2-0.2,0.2v0.1l-0.4,0.2c0,0-0.1,0.1-0.2,0.1c-0.1,0.1-0.1,0.1-0.2,0.1
			s-0.1,0.1-0.1,0.1c-0.2,0-0.5,0.1-0.7,0.1c-0.2,0.1-0.4,0.1-0.5,0.1h-17.8c-0.1,0-0.2,0.1-0.4,0.1h-0.4l-0.1,0.1H334
			c-0.1,0-0.1,0.1-0.1,0.1c-0.1,0-0.1,0-0.2,0.1h-0.1c-0.1,0-0.1,0.1-0.2,0.1v0.1c-0.1,0-0.2,0.1-0.4,0.2c-0.1,0-0.1,0.1-0.2,0.2
			l-0.2,0.4v0.1l-0.2,0.4v0.1c0,0.1,0,0.2-0.1,0.2v0.6c0,0.1-0.1,0.1-0.1,0.1v57.7l-0.2,0.5c0,0.1,0,0.2-0.1,0.4v0.1l-0.4,0.5
			l-0.2,0.2c-0.1,0-0.1,0.1-0.2,0.1c0,0,0,0.1-0.1,0.1l-0.1,0.1c-0.1,0.1-0.2,0.1-0.4,0.1c-0.1,0.1-0.2,0.1-0.4,0.1v0.1h-0.4
			c-0.1,0-0.2,0.1-0.5,0.1h-14.6c-0.1,0-0.1,0-0.2-0.1h-0.4c-0.1,0-0.1,0-0.2-0.1h-0.1c-0.1,0-0.1-0.1-0.2-0.1c0,0-0.1,0-0.1-0.1
			h-0.1c-0.1,0-0.1-0.1-0.2-0.1c0,0,0-0.1-0.1-0.1l-0.1-0.1c0,0-0.1,0-0.1-0.1l-0.1-0.1h-0.1c3.6,4.3,7.1,8.8,10.6,13.2
			c0.6,0.7,1.6,1.1,2.9,1.1h14.4l0.1-0.1h0.4c0.1-0.1,0.1-0.1,0.2-0.1h0.1c0.1-0.1,0.1-0.1,0.2-0.1l0.1-0.1c0,0,0.1,0,0.1-0.1h0.1
			l0.5-0.5v-0.1c0.1-0.1,0.2-0.2,0.2-0.4h0.1v-0.1c0-0.1,0.1-0.2,0.1-0.4c0.1-0.1,0.1-0.4,0.1-0.5l0.1-0.1V42.7c0,0,0-0.1,0.1-0.1
			v-0.4c0-0.1,0.1-0.4,0.1-0.5l0.2-0.5v-0.1c0.1-0.1,0.1-0.2,0.2-0.2v-0.1l0.2-0.2c0.1-0.1,0.2-0.1,0.2-0.2c0.1,0,0.1,0,0.1-0.1
			c0.1,0,0.1,0,0.2-0.1h0.1c0,0,0.1-0.1,0.2-0.1h0.1c0-0.1,0.1-0.1,0.2-0.1h0.1c0-0.1,0.1-0.1,0.2-0.1h0.6c0.1-0.1,0.2-0.1,0.4-0.1
			h18.2c0.1-0.1,0.2-0.1,0.2-0.1h0.2c0-0.1,0.1-0.1,0.1-0.1h0.2c0-0.1,0.1-0.1,0.1-0.1c0.1,0,0.1-0.1,0.1-0.1c0.1,0,0.1,0,0.2-0.1
			h0.1c0-0.1,0.1-0.1,0.1-0.2h0.1c0.1-0.1,0.1-0.2,0.2-0.2l0.2-0.5v-0.1l0.2-0.4c0-0.1,0.1-0.4,0.1-0.5v-0.4
			C366.9,36.6,367,36.6,367,36.5z M312.1,88.6v0.1V88.6z"/>
		<path style="&st0;" d="M393.5,64l6.5,12.5h-2.3c-0.1,0-0.1,0-0.2,0.1h-0.4c-0.1,0.1-0.1,0.1-0.2,0.1c0,0-0.1,0-0.2,0.1h-0.1
			c0,0.1-0.1,0.1-0.2,0.1c0,0,0,0.1-0.1,0.1c0,0-0.1,0.1-0.2,0.1v0.1c-0.1,0-0.2,0.1-0.4,0.2c-0.1,0.1-0.1,0.2-0.2,0.2v0.1l-0.4,0.5
			c0,0.1-0.1,0.2-0.1,0.5c0,0-0.1,0-0.1,0.1c0,0.1,0,0.2-0.1,0.5v19.9c0,0.2-0.1,0.4-0.1,0.6s-0.1,0.4-0.1,0.5v0.1l-0.2,0.5
			l-0.4,0.5v0.1l-0.2,0.2c-0.1,0.1-0.2,0.1-0.2,0.2c-0.1,0-0.1,0-0.1,0.1c-0.1,0-0.1,0.1-0.2,0.1c0,0-0.1,0-0.1,0.1
			c-0.1,0-0.1,0-0.2,0.1h-0.1c-0.1,0-0.1,0.1-0.2,0.1h-0.1c-0.1,0.1-0.2,0.1-0.2,0.1h-0.1c-0.1,0-0.2,0-0.4,0.1h-14.5
			c-1.1-0.1-1.9-0.6-2.5-1.3l-10.4-13.2c0.1,0,0.2,0.1,0.2,0.2h0.1c0,0.1,0.1,0.2,0.2,0.2l0.1,0.1c0,0,0.1,0,0.1,0.1h0.1
			c0.1,0.1,0.1,0.1,0.2,0.1c0,0.1,0.1,0.1,0.1,0.1c0.1,0,0.1,0,0.2,0.1h0.1c0.1,0,0.2,0,0.2,0.1h0.6c0.1,0.1,0.2,0.1,0.4,0.1h13.6
			c0.1,0,0.4,0,0.5-0.1h0.5l0.6-0.2c0,0,0.1,0,0.1-0.1c0.1,0,0.2-0.1,0.4-0.1l0.6-0.5c0-0.1,0-0.1,0.1-0.1c0,0,0.1-0.1,0.1-0.2
			c0.2-0.2,0.5-0.6,0.6-1c0.1-0.5,0.2-0.8,0.2-1.3V66.2c0.1-0.1,0.1-0.2,0.1-0.5c0.1,0,0.1,0,0.1-0.1c0-0.1,0.1-0.2,0.1-0.4l0.4-0.6
			l0.2-0.2h0.1c0-0.1,0.1-0.2,0.2-0.4c0.1-0.1,0.2-0.1,0.4-0.1v-0.1h0.1l0.1-0.1h0.1l0.1-0.1h0.1c0.1,0,0.1-0.1,0.2-0.1h0.2l0.1-0.1
			h6l0.1,0.1h0.1c0,0.1,0.1,0.1,0.1,0.2h0.1C393.4,63.7,393.5,63.8,393.5,64z M384.1,29.3c0.1-0.1,0.1-0.2,0.1-0.5
			c0,0,0.1,0,0.1-0.1c0-0.1,0.1-0.2,0.1-0.4l0.4-0.5v-0.1l0.6-0.6c0.1-0.1,0.2-0.1,0.2-0.1c0.1,0,0.1-0.1,0.1-0.1
			c0.1,0,0.2-0.1,0.2-0.1h0.1v-0.1h0.2c0.1,0,0.1,0,0.1-0.1h0.4l0.1-0.1h8.6c0.2,0,0.4,0.1,0.6,0.1h0.1c0.4,0,0.8,0.1,1.2,0.1h0.1
			c0.1,0.1,0.4,0.1,0.5,0.1h0.1c0.1,0.1,0.2,0.1,0.5,0.1l0.5,0.2c0.2,1,0.4,2,0.4,3.5c-0.1,7.4-3,8.2-8.8,8.2h-6.7V29.3z
			 M437.3,99.7v0.2c0,0.1,0,0.1-0.1,0.1v0.1c0,0.1-0.1,0.2-0.1,0.4c0,0,0,0.1-0.1,0.1v0.1l-0.2,0.4l-0.2,0.2
			c-0.1,0.1-0.1,0.2-0.2,0.2c0,0.1-0.1,0.1-0.1,0.1c-0.1,0.1-0.1,0.2-0.2,0.2c-0.1,0.1-0.1,0.1-0.2,0.1c0,0.1-0.1,0.1-0.2,0.2
			c-0.1,0-0.1,0-0.2,0.1c0,0-0.1,0-0.2,0.1h-0.2c-0.1,0.1-0.2,0.1-0.4,0.1c0,0-0.1,0.1-0.2,0.1h-0.4c-0.1,0-0.1,0.1-0.2,0.1h-14.3
			c-0.6,0-1.1-0.1-1.6-0.4l-0.1-0.1c-0.4-0.1-0.6-0.4-0.7-0.6l-10.4-13.2h0.1v0.1l0.2,0.2h0.1c0,0.1,0.1,0.1,0.2,0.2
			s0.2,0.1,0.4,0.1c0,0.1,0.1,0.1,0.1,0.1c0.1,0,0.1,0,0.2,0.1h0.6c0.1,0.1,0.2,0.1,0.4,0.1h13.7c0.2,0,0.5,0,0.6-0.1h0.5
			c0.1,0,0.1,0,0.1-0.1h0.4l0.6-0.2c0,0,0.1,0,0.1-0.1c0.1,0,0.2,0,0.2-0.1h0.1l0.4-0.2c0-0.1,0.1-0.1,0.2-0.2c0,0,0.1,0,0.1-0.1
			c0.1-0.1,0.2-0.1,0.2-0.2c0.2-0.2,0.4-0.5,0.5-0.7c0.1,0,0.1-0.1,0.1-0.1l0.4-1.1v-1.6l-0.4-1c0-0.1-0.1-0.4-0.2-0.5l-12.7-23.6
			c0-0.1-0.1-0.2-0.1-0.4v-0.6l0.2-0.2v-0.1c0.1,0,0.1,0,0.1-0.1c0,0,0.1-0.1,0.2-0.1l1.1-1c0.8-0.7,1.7-1.4,2.4-2.4
			c0.2-0.1,0.4-0.4,0.6-0.6c0.1-0.2,0.2-0.5,0.5-0.7l0.4-0.6c0.2-0.4,0.2-0.7,0.5-1l0.5-1v-0.1l0.6-1.1c0-0.1,0.1-0.4,0.1-0.5
			c0.2-0.4,0.4-0.7,0.5-1.1c0-0.2,0.1-0.5,0.2-0.7c0-0.1,0.1-0.2,0.1-0.4c0-0.2,0.1-0.5,0.2-0.7c0.2-0.8,0.2-1.7,0.5-2.5
			c0-0.4,0.1-0.7,0.1-1.1c0.1-0.2,0.1-0.6,0.1-0.8c0.1-0.2,0.1-0.4,0.1-0.6l0.4-3.1v-1.1c0-0.2,0-0.6,0.1-1v-4.2
			c-0.1,0-0.1-0.1-0.1-0.1v-1.9c0,0,0-0.1-0.1-0.1c0-0.5,0-1-0.1-1.4V28c-0.1-0.7-0.2-1.4-0.2-2.2h-0.1v-0.2l-0.2-1.2v-0.2
			c-0.1-0.1-0.1-0.2-0.1-0.4l-0.2-1c0-0.2-0.1-0.4-0.1-0.5v-0.1l-0.4-0.8c0-0.2-0.1-0.4-0.1-0.5v-0.1l-0.4-0.8v-0.1
			c-0.1-0.1-0.1-0.2-0.1-0.4l-0.1-0.1l-0.5-0.7c0-0.1-0.1-0.2-0.1-0.4s0-0.1-0.1-0.2l-0.4-0.7c-0.1-0.1-0.1-0.2-0.1-0.2l-0.1-0.1
			c-0.2-0.5-0.5-1-0.8-1.4l-0.2-0.2l-0.5-0.6l10.8,13v0.1l0.8,1c0,0.1,0.1,0.2,0.2,0.4c0.1,0.2,0.2,0.6,0.5,0.8
			c0,0.1,0.1,0.2,0.2,0.4l0.5,1c0,0,0,0.1,0.1,0.2l0.6,1.3c0,0.1,0,0.1,0.1,0.2l0.4,1.1c0,0.1,0.1,0.2,0.1,0.5l0.4,1
			c0,0.1,0,0.4,0.1,0.5l0.4,1.4c0.1,0.5,0.2,1.1,0.2,1.6c0,0,0,0.1,0.1,0.1v0.4l0.2,1.4v0.4l0.2,1.9v1.9c0,0.2,0,0.4,0.1,0.6V49
			c0,0.1-0.1,0.2-0.1,0.5v1.9c-0.1,0.4-0.1,0.6-0.1,1s0,0.6-0.1,1c0,0.2,0,0.6-0.1,0.8c0,0.4,0,0.7-0.1,1c0,0.4,0,0.6-0.1,0.8v0.5
			c-0.1,0.2-0.1,0.4-0.1,0.6c-0.1,0.1-0.1,0.2-0.1,0.4l-0.4,1.6V59l-0.4,1.2c-0.1,0.1-0.1,0.2-0.1,0.5c-0.1,0.1-0.1,0.1-0.1,0.2
			c-0.1,0.1-0.1,0.2-0.1,0.4c-0.1,0.5-0.4,0.7-0.5,1.1c0,0.2-0.1,0.5-0.2,0.6c-0.1,0.4-0.2,0.7-0.5,1.1c0,0.1-0.1,0.2-0.1,0.4
			c-0.1,0.1-0.1,0.1-0.1,0.2c-0.1,0-0.1,0.1-0.1,0.2l-0.7,1.1v0.1l-0.7,1l-0.2,0.2c0,0,0,0.1-0.1,0.1l-0.4,0.6l-0.4,0.4
			c-0.2,0.2-0.4,0.5-0.6,0.6l-0.4,0.5l-0.7,0.6l-0.4,0.4c-0.4,0.2-0.7,0.6-1.2,0.8c0,0-0.1,0.1-0.1,0.2h-0.1v0.1c0,0-0.1,0-0.1,0.1
			V72c0,0,0,0.1-0.1,0.1v0.1c0,0.1,0,0.1,0.1,0.2v0.4l12.6,23.6c0.1,0.1,0.2,0.4,0.2,0.5s0.1,0.1,0.1,0.1c0,0.2,0.1,0.4,0.1,0.6
			c0,0.1,0.1,0.2,0.1,0.4v1.4C437.5,99.6,437.3,99.6,437.3,99.7z"/>
		<path style="&st0;" d="M447.2,88.6c0,0.1,0.1,0.1,0.1,0.2c0-0.1-0.1-0.1-0.1-0.1V88.6z M447.4,88.9c0-0.1-0.1-0.1-0.1-0.1h0.1
			V88.9z M503.1,22.4c0,0.1,0,0.1-0.1,0.1v0.1c0,0.1-0.1,0.4-0.2,0.5l-21.5,48c-0.1,0.1-0.1,0.2-0.1,0.4c-0.1,0-0.1,0.1-0.1,0.1v0.7
			c-0.1,0.1-0.1,0.2-0.1,0.2v27.5c0,0.1,0,0.1-0.1,0.2v0.1c0,0.1,0,0.4-0.1,0.5c0,0.1-0.1,0.2-0.1,0.4v0.1h-0.1
			c0,0.1-0.1,0.4-0.2,0.5c-0.1,0-0.1,0.1-0.2,0.2l-0.2,0.2h-0.1c0,0.1-0.1,0.1-0.1,0.1c-0.1,0-0.1,0.1-0.1,0.1c-0.1,0-0.1,0-0.2,0.1
			H479c-0.1,0-0.1,0-0.2,0.1h-0.1c-0.1,0-0.2,0-0.2,0.1h-18c-1.3,0-2.3-0.4-2.9-1.1l-10.1-13h0.1l0.1,0.1c0,0.1,0.1,0.1,0.1,0.1
			c0.1,0,0.1,0.1,0.2,0.1h0.1c0,0.1,0.1,0.1,0.1,0.1c0.1,0,0.1,0.1,0.1,0.1h0.2l0.1,0.1h0.5c0,0.1,0.1,0.1,0.2,0.1h18
			c0.2,0,0.5-0.1,0.7-0.1c0,0,0.1,0,0.1-0.1h0.2l0.4-0.2h0.1l0.4-0.2v-0.1c0.1,0,0.2-0.1,0.4-0.2v-0.1c0.1-0.1,0.2-0.2,0.2-0.4
			c0.1,0,0.1-0.1,0.1-0.1c0-0.1,0.1-0.2,0.1-0.4c0.1-0.2,0.1-0.4,0.1-0.5s0.1-0.1,0.1-0.2V58.4l0.1-0.1v-0.1c0,0,0-0.1,0.1-0.2
			l21.5-48c0.1-0.1,0.2-0.4,0.2-0.6l0.2-0.6V7.7c0-0.1,0-0.1-0.1-0.2V7.3c0,0,0-0.1-0.1-0.1V7.1c0-0.1-0.1-0.1-0.1-0.2L502.7,20
			l0.2,0.2v0.1c0.1,0,0.1,0.1,0.1,0.2c0.1,0.1,0.1,0.2,0.1,0.4v1.1C503.1,22.2,503.1,22.3,503.1,22.4z M448,7.2
			c0,0.1,0.1,0.2,0.1,0.4C448.1,7.4,448,7.3,448,7.2z M448.3,7.6c0,0.1,0,0.1,0.1,0.2C448.3,7.7,448.3,7.7,448.3,7.6z M448.5,8
			c-0.1-0.1-0.1-0.2-0.1-0.2c3.4,4.2,6.8,8.4,10.3,12.6c0,0.1,0.1,0.1,0.1,0.2l-2.5,6.2c0,0.1-0.1,0.2-0.1,0.2l-7.4-18.6l-0.2-0.4V8
			z"/>
	</g>
	<g>
		<path style="&st1;" d="M17.4,6.1c-2.3,0-3.6,1.2-3.6,3.6v76.8c-1.9-0.2-3-1.6-3-3.6V5.8c0-2.4,1.3-3.6,3.6-3.6h16.2
			c2.4,0,3.5,1.2,4.3,3.6L35,6.1H17.4z M35.9,47.4l15.8,38.8c-1.2-0.4-2.2-1.2-2.8-2.6L34.4,48.2v-0.5c0-0.6,0.2-1.1,0.6-1.1
			S35.7,47,35.9,47.4z M55.5,48.8l-1.9-4.7V5.8c0-2.4,1.3-3.6,3.6-3.6h13.4c2.4,0,3.6,1.2,3.6,3.6v0.4H60.6c-2.3,0-3.6,1.2-3.6,3.6
			v38.8c0,0.7-0.4,1.1-0.7,1.1C56,49.6,55.8,49.3,55.5,48.8z"/>
		<path style="&st1;" d="M93.2,6.1c-2.3,0-3.6,1.2-3.6,3.6v76.8c-1.9-0.2-3-1.6-3-3.6V5.8c0-2.4,1.3-3.6,3.6-3.6h13.4
			c2.4,0,3.2,1.1,3.2,3.6v0.4H93.2z"/>
		<path style="&st1;" d="M120.8,63.1c0,3.7,0.4,11,4.2,17.2c-6.6-6.8-7.2-16.4-7.2-21.1v-30c0-7.9,1.8-29.2,30.4-29.2
			c14.4,0,21.7,5.5,25.6,11.9C169.4,7.3,162.3,4,150.9,4c-28.4,0-30.1,21.2-30.1,29.2V63.1z M142.4,66.5c1.4,0.7,2.9,1.2,5.3,1.2
			c6.6,0,8.4-3.1,9.2-8.6c0.2-2.2,1.8-3.6,3.7-3.6c0.2,0,0.6,0,1,0.1l13.6,3c1.7,0.4,2.6,1.6,2.6,3.5c0,0.1,0,0.2,0,0.4l-13.2-2.9
			c-0.4-0.1-0.6-0.1-1-0.1c-1.9,0-3.2,1.4-3.6,3.6c-0.7,5.5-2.4,8.6-9.1,8.6C145.9,71.6,143.5,69.8,142.4,66.5z"/>
		<path style="&st1;" d="M192.8,6.1c-2.3,0-3.6,1.2-3.6,3.6v76.8c-1.9-0.2-3-1.6-3-3.6V5.8c0-2.4,1.3-3.6,3.6-3.6h50.5
			c2.4,0,3.2,1.2,3.2,3.6v0.4H192.8z M214.2,37.8c-2.3,0-3.6-1.3-3.6-3.6v-0.4h19.1c2.4,0,3.4,1.2,3.4,3.6v0.4H214.2z M214.2,69.5
			c-2.3,0-3.6-1.3-3.6-3.6v-0.4h29.3c2.4,0,3.6,1.2,3.6,3.6v0.4H214.2z"/>
		<path style="&st1;" d="M290.9,6.1c-2.3,0-3.6,1.2-3.6,3.6v13.4c-1.9,0-3-1.4-3-3.6V5.8c0-2.4,1.3-3.6,3.6-3.6h61.3
			c2.5,0,3.6,1.2,3.6,3.6v0.4H290.9z M311.3,30.4v56.2c-1.9,0-3-1.4-3-3.6V26.8C310.3,27,311.3,28.2,311.3,30.4z"/>
		<path style="&st1;" d="M366.7,6.1c-2.3,0-3.6,1.3-3.6,3.7v76.7c-1.8,0-3-1.4-3-3.6v-77c0-2.4,1.2-3.7,3.6-3.7h26.5
			c13.3,0,21.6,3.5,25.9,11c-4.8-4.8-12.2-7.1-23-7.1H366.7z M390.8,39c5.8,0,8.6-0.7,8.6-8.2c0-1.3-0.1-2.5-0.4-3.5
			c2.2,0.8,3.4,2.9,3.4,7.6c0,7.3-2.8,8.2-8.6,8.2h-6.1c-2.3,0-3.7-1.7-3.7-3.7V39H390.8z"/>
		<path style="&st1;" d="M424.4,10.1l-1.6-3.7c-1.2-2.5,0-4.2,2.8-4.2h16.1c2,0,3.1,1,4.1,2.8l0.8,1.6c-0.6-0.2-1.3-0.4-2-0.4h-17.3
			C424.9,6.1,423.3,7.4,424.4,10.1z M446.1,58.3c0.2,0.5,0.2,1,0.2,1.4v26.8c-1.8,0-2.9-1.6-2.9-3.6V53.3c0-0.4-0.1-0.8-0.2-1.3
			L446.1,58.3z M457.5,31.2l-1.4-3.6l9.1-22.7c0.7-1.9,2.2-2.8,4.2-2.8h17.2c2.6,0,3.8,1.7,2.8,4h-17.2c-2,0-3.4,0.8-4.1,2.8
			l-8.9,22.3c-0.2,0.6-0.6,0.8-0.8,0.8C458.1,32,457.8,31.8,457.5,31.2z"/>
	</g>
	<g>
		<path style="&st2;" d="M35,6.1c2,0,3.4,0.8,4.2,2.8l16.3,40c0.5,1.1,1.4,0.8,1.4-0.4V9.7c0-2.4,1.3-3.6,3.6-3.6H74
			c2.4,0,3.6,1.2,3.6,3.6v76.8c0,2.3-1.2,3.6-3.6,3.6H56.4c-2,0-3.4-0.8-4.2-2.8l-16.3-40c-0.5-1.1-1.4-0.8-1.4,0.4v38.8
			c0,2.3-1.2,3.6-3.6,3.6H17.4c-2.3,0-3.6-1.3-3.6-3.6V9.7c0-2.4,1.3-3.6,3.6-3.6H35z"/>
		<path style="&st2;" d="M106.4,6.1c2.4,0,3.6,1.2,3.6,3.6v76.8c0,2.3-1.2,3.6-3.6,3.6H93.2c-2.3,0-3.6-1.3-3.6-3.6V9.7
			c0-2.4,1.3-3.6,3.6-3.6H106.4z"/>
		<path style="&st2;" d="M120.8,33.1c0-7.9,1.7-29.2,30.1-29.2c25.6,0,29.5,17.2,30,26.4c0.1,1.7-1,3-2.6,3.4l-13.3,3
			c-2.5,0.5-4.4-1.2-4.8-3.7c-0.6-5.3-2.8-8.4-9.2-8.4c-8.9,0-9.5,5.6-9.5,14.9v17.3c0,9.2,0.6,14.9,9.5,14.9c6.6,0,8.4-3.1,9.1-8.6
			c0.4-2.5,2.3-4.1,4.7-3.5l13.6,3c1.7,0.4,2.8,1.7,2.6,3.5c-0.5,9.1-4.4,26.3-30,26.3c-28.4,0-30.1-21.2-30.1-29.2V33.1z"/>
		<path style="&st2;" d="M243.2,6.1c2.4,0,3.6,1.2,3.6,3.6v13.4c0,2.3-1.2,3.6-3.6,3.6h-29c-2.3,0-3.6,1.2-3.6,3.6v3.8
			c0,2.3,1.3,3.6,3.6,3.6h18.6c2.4,0,3.6,1.2,3.6,3.6v13.4c0,2.3-1.2,3.6-3.6,3.6h-18.6c-2.3,0-3.6,1.2-3.6,3.6v3.8
			c0,2.3,1.3,3.6,3.6,3.6h29c2.4,0,3.6,1.2,3.6,3.6v13.4c0,2.4-1.2,3.6-3.6,3.6h-50.4c-2.3,0-3.6-1.3-3.6-3.6V9.7
			c0-2.4,1.3-3.6,3.6-3.6H243.2z"/>
		<path style="&st2;" d="M311.3,30.3c0-2.4-1.2-3.6-3.6-3.6h-16.8c-2.3,0-3.6-1.3-3.6-3.6V9.7c0-2.4,1.3-3.6,3.6-3.6h61.4
			c2.4,0,3.6,1.2,3.6,3.6v13.4c0,2.3-1.2,3.6-3.6,3.6h-16.8c-2.3,0-3.6,1.2-3.6,3.6v56.2c0,2.3-1.2,3.6-3.6,3.6h-13.4
			c-2.3,0-3.6-1.3-3.6-3.6V30.3z"/>
		<path style="&st2;" d="M426.3,83.6c1.7,3.1-0.2,6.5-4,6.5h-13.7c-1.2,0-2.3-0.6-2.8-1.7l-12.5-24.1c-0.2-0.4-0.6-0.6-1-0.6h-4.8
			c-2.2,0-3.7,1.6-3.7,3.7v19c0,2.2-1.6,3.7-3.7,3.7h-13.4c-2.2,0-3.7-1.6-3.7-3.7V9.8c0-2.2,1.6-3.7,3.7-3.7h26.3
			c21.4,0,30,9.1,30,28.8c0,11.2-2.8,19-9.1,23.5c-0.5,0.4-0.6,1-0.4,1.6L426.3,83.6z M387.7,26.7c-2.2,0-3.7,1.6-3.7,3.7v8.9
			c0,2.2,1.6,3.7,3.7,3.7h6.1c5.8,0,8.6-0.7,8.6-8.2s-2.9-8.2-8.6-8.2H387.7z"/>
		<path style="&st2;" d="M444.6,6.1c2,0,3.4,0.8,4.1,2.8l8.9,22.3c0.5,1.1,1.2,1.1,1.7,0l8.9-22.3c0.7-1.9,2-2.8,4.1-2.8h17.2
			c2.8,0,4,1.7,2.8,4.2l-21.5,48c-0.2,0.5-0.2,1-0.2,1.4v26.8c0,2.3-1.2,3.6-3.6,3.6H450c-2.3,0-3.6-1.3-3.6-3.6V59.7
			c0-0.5,0-1-0.2-1.4l-21.6-48c-1.2-2.5,0-4.2,2.8-4.2H444.6z"/>
	</g>
</g>
</svg>
